<svg width="25" height="25" viewBox="0 0 25 25" fill="none" xmlns="http://www.w3.org/2000/svg">
<path fill-rule="evenodd" clip-rule="evenodd" d="M5.19258 2.08331C3.7661 2.08331 2.71059 3.33183 2.75784 4.68585C2.80318 5.9867 2.74428 7.67145 2.32012 9.04539C1.89471 10.4233 1.17521 11.2962 0 11.4083V12.6735C1.17521 12.7856 1.89471 13.6585 2.32012 15.0365C2.74428 16.4104 2.80318 18.0952 2.75784 19.396C2.71059 20.7499 3.7661 21.9985 5.19279 21.9985H19.8093C21.2358 21.9985 22.2911 20.7501 22.2439 19.396C22.1985 18.0952 22.2574 16.4104 22.6816 15.0365C23.1072 13.6585 23.8248 12.7856 25 12.6735V11.4083C23.8248 11.2962 23.1072 10.4233 22.6816 9.04539C22.2574 7.67166 22.1985 5.9867 22.2439 4.68585C22.2911 3.33204 21.2358 2.08331 19.8093 2.08331H5.19258ZM16.9492 14.3424C16.9492 16.2069 15.5584 17.3376 13.2506 17.3376H9.32203C9.20966 17.3376 9.10187 17.2929 9.02242 17.2134C8.94295 17.1339 8.8983 17.0262 8.8983 16.9138V7.16806C8.8983 7.05568 8.94295 6.94791 9.02242 6.86844C9.10187 6.78897 9.20966 6.74433 9.32203 6.74433H13.2282C15.1525 6.74433 16.4154 7.7867 16.4154 9.38713C16.4154 10.5104 15.5659 11.5161 14.4834 11.6922V11.7509C15.957 11.9126 16.9492 12.9329 16.9492 14.3424ZM12.8223 8.08755H10.5822V11.2515H12.4689C13.9273 11.2515 14.7316 10.6643 14.7316 9.61446C14.7316 8.63077 14.04 8.08755 12.8223 8.08755ZM10.5822 12.5071V15.9939H12.9047C14.4231 15.9939 15.2275 15.3846 15.2275 14.2395C15.2275 13.0941 14.4006 12.5069 12.807 12.5069L10.5822 12.5071Z" fill="#712CF9"/>
</svg>
