<svg width="25" height="25" viewBox="0 0 25 25" fill="none" xmlns="http://www.w3.org/2000/svg">
<g clip-path="url(#clip0_27_393)">
<path d="M23.7719 11.4555L13.5414 1.22577C13.268 0.953113 12.8906 0.784363 12.4735 0.784363C12.0563 0.784363 11.6789 0.953113 11.4055 1.22577L9.28595 3.34921L11.9805 6.04374C12.1524 5.98358 12.35 5.94921 12.5563 5.94921C13.5477 5.94921 14.3508 6.75233 14.3508 7.74374C14.3508 7.95389 14.3149 8.15468 14.2485 8.34218L14.2524 8.32968L16.8477 10.9266C17.0211 10.8648 17.2219 10.8289 17.4305 10.8289C18.4211 10.8289 19.2242 11.632 19.2242 12.6226C19.2242 13.6133 18.4211 14.4164 17.4305 14.4164C16.4399 14.4164 15.6367 13.6133 15.6367 12.6226C15.6367 12.3781 15.686 12.1453 15.7742 11.9328L15.7695 11.9445L13.3399 9.52733V15.8976C13.9367 16.1984 14.3391 16.8062 14.3391 17.5078C14.3391 18.5 13.5344 19.3047 12.5422 19.3047C11.55 19.3047 10.7453 18.5 10.7453 17.5078C10.7453 17.0125 10.9453 16.5648 11.2695 16.2398C11.4344 16.075 11.6305 15.9414 11.8485 15.8476L11.8602 15.843V9.41014C11.2024 9.13358 10.7492 8.49374 10.7492 7.74921C10.7492 7.49921 10.8 7.26171 10.8922 7.0453L10.8875 7.05702L8.23986 4.39686L1.22423 11.4078C0.952359 11.682 0.785172 12.0594 0.785172 12.4766C0.785172 12.8937 0.95314 13.2711 1.22502 13.5453L11.4563 23.7734C11.7289 24.0469 12.1063 24.2156 12.5235 24.2156C12.9406 24.2156 13.3172 24.0469 13.5906 23.7734L23.7735 13.5906C24.0469 13.318 24.2164 12.9398 24.2164 12.5234C24.2164 12.107 24.0469 11.7289 23.7735 11.4562L23.7719 11.4555Z" fill="#F1502F"/>
</g>
<defs>
<clipPath id="clip0_27_393">
<rect width="25" height="25" fill="white"/>
</clipPath>
</defs>
</svg>
