<svg width="25" height="25" viewBox="0 0 25 25" fill="none" xmlns="http://www.w3.org/2000/svg">
<g clip-path="url(#clip0_747_1166)">
<path fill-rule="evenodd" clip-rule="evenodd" d="M24.9003 11.6813C24.7213 11.4198 22.4345 7.21203 22.0479 6.51668C21.6329 5.82132 21.4539 5.95207 21.1853 5.99665C20.9188 6.04122 18.0359 6.77818 17.7083 6.81978C17.3808 6.90596 17.1733 7.08128 17.3808 7.51513C17.5598 7.90441 19.46 11.8121 19.8771 12.7243L12.3006 15.372L6.29883 0.656698C6.06079 0.136669 6.00179 -0.0386545 5.46672 0.00591938C4.93164 0.0504933 0.742594 0.570522 0.445557 0.570522C0.146484 0.615096 -0.179036 0.787448 0.118001 1.83048C0.415039 2.87053 5.16968 17.7998 5.28768 18.2337C5.40568 18.6675 5.76375 19.3629 6.56535 19.1014C7.39746 18.7983 10.2498 17.7136 11.8245 17.1045C12.6567 19.2737 14.3209 23.7014 14.6484 24.3522C15.0635 25.2199 15.3625 25.0475 15.9851 24.786C16.4897 24.5691 23.7712 20.7506 24.0967 20.5337C24.4242 20.3167 24.6318 20.186 24.3937 19.7076C24.2147 19.3599 22.3145 15.583 21.3033 13.6307C21.9869 13.3692 24.4527 12.4153 24.7213 12.2845C25.0183 12.1597 25.0773 11.9428 24.9003 11.6813ZM11.141 15.8059C11.0514 15.8504 6.80339 17.3244 6.59383 17.4105C6.35579 17.4967 6.35579 17.4551 6.35579 17.3244C6.29883 17.1936 1.30615 2.089 1.21663 1.91665C1.15763 1.7443 1.15763 1.56898 1.21663 1.56898C1.27563 1.56898 5.22868 1.04895 5.34668 1.04895C5.4952 1.04895 5.46468 1.09352 5.52572 1.2213C5.52572 1.2213 11.0819 15.2413 11.1715 15.4582C11.2895 15.6751 11.2305 15.7613 11.141 15.8059ZM23.0876 19.0598C23.1466 19.2321 23.2361 19.3213 22.998 19.4074C22.7905 19.5382 15.8366 22.9674 15.6881 23.0536C15.5396 23.1398 15.45 23.1843 15.273 22.7921C15.094 22.4028 12.8357 16.7152 12.8357 16.7152L20.2352 13.8951C20.4142 13.809 20.4732 13.7644 20.5912 14.0259C20.7092 14.329 23.0286 18.929 23.0876 19.0598ZM23.5616 11.4198C23.3826 11.4644 20.6787 12.4628 20.6787 12.4628L18.4509 8.03516C18.3919 7.90441 18.3329 7.77366 18.4814 7.73206C18.63 7.68748 21.1568 7.03671 21.2748 6.9951C21.3928 6.95053 21.4823 6.90893 21.6309 7.21203C21.7794 7.47353 23.6816 11.0305 23.7712 11.1613C23.8586 11.292 23.7406 11.3782 23.5616 11.4198Z" fill="#FB503B"/>
</g>
<defs>
<clipPath id="clip0_747_1166">
<rect width="25" height="25" fill="white"/>
</clipPath>
</defs>
</svg>
