<svg width="61" height="46" viewBox="0 0 61 46" fill="none" xmlns="http://www.w3.org/2000/svg">
<g clip-path="url(#clip0_123_3309)">
<path d="M33.1893 4.6351C33.9847 4.6351 34.6295 3.99027 34.6295 3.19483C34.6295 2.3994 33.9847 1.75457 33.1893 1.75457C32.3939 1.75457 31.749 2.3994 31.749 3.19483C31.749 3.99027 32.3939 4.6351 33.1893 4.6351Z" fill="#8BD346"/>
<path d="M33.0465 3.74425C33.0141 3.74431 32.9825 3.73382 32.9566 3.71438L32.955 3.71318L32.6165 3.45425C32.5506 3.40371 32.5381 3.30929 32.5887 3.24336C32.6392 3.17743 32.7336 3.16495 32.7996 3.2155L33.0188 3.38362L33.5369 2.70773C33.5874 2.64183 33.6818 2.62937 33.7477 2.67989L33.7445 2.68439L33.7478 2.67992C33.8136 2.73051 33.8261 2.82484 33.7756 2.89077L33.1662 3.68541C33.1377 3.72252 33.0934 3.74421 33.0466 3.74407L33.0465 3.74425Z" fill="white"/>
<path d="M33.1893 14.3717C33.9847 14.3717 34.6295 13.7269 34.6295 12.9314C34.6295 12.136 33.9847 11.4912 33.1893 11.4912C32.3939 11.4912 31.749 12.136 31.749 12.9314C31.749 13.7269 32.3939 14.3717 33.1893 14.3717Z" fill="#8BD346"/>
<path d="M33.0465 13.4809C33.0141 13.4809 32.9825 13.4704 32.9566 13.451L32.955 13.4498L32.6165 13.1909C32.5506 13.1403 32.5381 13.0459 32.5887 12.98C32.6392 12.914 32.7336 12.9016 32.7996 12.9521L33.0188 13.1202L33.5369 12.4443C33.5874 12.3784 33.6818 12.366 33.7477 12.4165L33.7445 12.421L33.7478 12.4165C33.8136 12.4671 33.8261 12.5615 33.7756 12.6274L33.1662 13.422C33.1377 13.4591 33.0934 13.4808 33.0466 13.4807L33.0465 13.4809Z" fill="white"/>
<path d="M36.8063 28.0657C36.7886 27.6146 37.14 27.2346 37.5911 27.2169C37.6392 27.2151 37.6873 27.2174 37.735 27.224L39.0541 24.636L39.7994 25.9486L38.4326 28.205C38.3408 28.6495 37.9061 28.9355 37.4615 28.8437C37.0896 28.767 36.8187 28.4453 36.8063 28.0657Z" fill="#FFB7B7"/>
<path d="M42.956 44.362L41.9208 44.3619L41.4283 40.3691L42.9562 40.3692L42.956 44.362Z" fill="#FFB7B7"/>
<path d="M43.22 45.3655L39.8821 45.3653V45.3231C39.8821 44.6056 40.4638 44.024 41.1813 44.0239H41.1814L43.22 44.024L43.22 45.3655Z" fill="#2F2E41"/>
<path d="M48.5677 44.362L47.5325 44.3619L47.04 40.3691L48.5678 40.3692L48.5677 44.362Z" fill="#FFB7B7"/>
<path d="M48.8316 45.3655L45.4938 45.3653V45.3231C45.4938 44.6056 46.0755 44.024 46.793 44.0239H46.7931L48.8317 44.024L48.8316 45.3655Z" fill="#2F2E41"/>
<path d="M38.3962 25.8133L37.9443 26.5665C37.9443 26.5665 38.6975 26.5665 38.8482 27.6963L39.4507 26.9431L38.3962 25.8133Z" fill="#E5E5E5"/>
<path d="M46.3046 24.2317C46.3046 24.2317 47.5097 27.395 47.7357 29.3533C47.9616 31.3116 48.3382 36.5085 48.3382 36.5085L49.0914 43.2118L46.9825 43.5131L46.0787 36.7345L44.0451 30.0312L43.5932 36.7345L43.2166 42.8352L41.2583 42.9105L41.1077 36.5838L40.2792 28.5248L40.7311 24.6836L46.3046 24.2317Z" fill="#2F2E41"/>
<path d="M44.8359 14.6287L45.5891 15.1558L46.5683 25.0225L40.4675 25.1731L41.2961 18.3192L42.0492 16.361L42.5929 15.6422L44.8359 14.6287Z" fill="#E5E5E5"/>
<path d="M44.9866 21.7085L45.217 14.8954C45.217 14.8954 45.6644 14.9299 45.8151 15.1558C45.9657 15.3818 48.4512 15.8337 48.4512 15.8337L47.9993 22.8383C47.9993 22.8383 49.8822 28.4118 49.2044 28.7131C48.5265 29.0144 47.3214 28.939 47.3214 28.939L44.9866 21.7085Z" fill="#3D5AF1"/>
<path d="M41.3336 20.8424L42.1326 16.2506L40.3545 17.453L40.8064 20.767L40.4298 23.0266C40.4298 23.0266 38.9988 29.278 39.4507 29.5039C39.9026 29.7299 40.4298 29.5039 40.4298 29.5039L41.3336 23.1772V20.8424Z" fill="#3D5AF1"/>
<path d="M40.8817 17.3024L40.3545 17.453L40.1286 20.4658L39.752 23.1019L37.9443 26.3406C37.9443 26.3406 38.8482 25.738 39.2247 27.4703L41.2155 24.0044L40.8817 17.3024Z" fill="#3D5AF1"/>
<path d="M44.9786 27.448C45.0488 27.0021 45.4672 26.6975 45.9132 26.7678C45.9607 26.7752 46.0075 26.7869 46.053 26.8026L47.8494 24.52L48.3257 25.9523L46.5468 27.9004C46.3705 28.3186 45.8886 28.5148 45.4703 28.3384C45.1203 28.1909 44.9171 27.8228 44.9786 27.448Z" fill="#FFB7B7"/>
<path d="M48.037 26.6418L47.3592 27.4703L46.4553 25.8887L46.8319 25.2108L48.037 26.6418Z" fill="#E5E5E5"/>
<path d="M47.8864 16.0973L48.4889 15.796C48.4889 15.796 48.9408 16.3986 49.0161 16.9258C49.0915 17.453 49.468 18.1309 49.468 18.5075C49.468 18.8841 50.5225 22.424 50.5225 22.424L48.1123 27.3197C48.1123 27.3197 47.5851 25.5121 46.4553 25.3614L48.3383 22.7253L47.2838 20.8424L47.8864 16.0973Z" fill="#3D5AF1"/>
<path d="M60.9239 45.4119H31.9423C31.9003 45.4119 31.8662 45.3778 31.8662 45.3358C31.8662 45.2938 31.9003 45.2598 31.9423 45.2598H60.9239C60.9659 45.2598 61 45.2938 61 45.3358C61 45.3778 60.9659 45.4119 60.9239 45.4119Z" fill="black"/>
<path d="M27.7646 16.1263H0V9.73663H27.7646V16.1263Z" fill="white"/>
<path d="M4.0071 11.8493C3.85769 11.8493 3.73657 11.9705 3.73657 12.1199C3.73657 12.2693 3.85769 12.3904 4.0071 12.3904H23.7587C23.9081 12.3904 24.0292 12.2693 24.0292 12.1199C24.0292 11.9705 23.9081 11.8493 23.7587 11.8493H4.0071Z" fill="#22D1EE"/>
<path d="M4.00706 13.4725C3.85765 13.4722 3.73628 13.593 3.73596 13.7424C3.73565 13.8919 3.85651 14.0132 4.00592 14.0135H16.4931C16.6425 14.0135 16.7636 13.8924 16.7636 13.743C16.7636 13.5936 16.6425 13.4725 16.4931 13.4725L4.00706 13.4725Z" fill="#22D1EE"/>
<path d="M27.7646 16.1263H0V9.73663H27.7646V16.1263ZM0.456404 15.6699H27.3082V10.193H0.456404V15.6699Z" fill="#E5E5E5"/>
<path d="M27.7646 25.8629H0V19.4732H27.7646V25.8629Z" fill="white"/>
<path d="M4.0071 21.586C3.85769 21.586 3.73657 21.7071 3.73657 21.8565C3.73657 22.0059 3.85769 22.127 4.0071 22.127H23.7587C23.9081 22.127 24.0292 22.0059 24.0292 21.8565C24.0292 21.7071 23.9081 21.586 23.7587 21.586H4.0071Z" fill="#E6E6E6"/>
<path d="M4.00706 23.2091C3.85765 23.2088 3.73628 23.3297 3.73596 23.4791C3.73565 23.6285 3.85651 23.7499 4.00592 23.7502H16.4931C16.6425 23.7502 16.7636 23.6291 16.7636 23.4796C16.7636 23.3302 16.6425 23.2091 16.4931 23.2091H4.00706Z" fill="#E6E6E6"/>
<path d="M27.7646 25.8629H0V19.4732H27.7646V25.8629ZM0.456404 25.4065H27.3082V19.9296H0.456404V25.4065Z" fill="#E5E5E5"/>
<path d="M27.9927 6.38966H0.228149V0H27.9927V6.38966Z" fill="white"/>
<path d="M4.23524 2.11272C4.08584 2.11299 3.96494 2.23433 3.96521 2.38374C3.96548 2.53276 4.08622 2.6535 4.23524 2.65377H23.9868C24.1362 2.6535 24.2571 2.53216 24.2569 2.38275C24.2566 2.23373 24.1359 2.11299 23.9868 2.11272H4.23524Z" fill="#22D1EE"/>
<path d="M4.23521 3.73589C4.0858 3.73557 3.96443 3.85644 3.96411 4.00584C3.9638 4.15525 4.08466 4.27662 4.23407 4.27694H16.7212C16.8706 4.27721 16.992 4.15631 16.9922 4.00691C16.9925 3.8575 16.8716 3.73616 16.7222 3.73589C16.7219 3.73589 16.7225 3.73589 16.7222 3.73589L4.23521 3.73589Z" fill="#22D1EE"/>
<path d="M27.9927 6.38966H0.228149V0H27.9927V6.38966ZM0.684553 5.93325H27.5363V0.456404H0.684553V5.93325Z" fill="#E5E5E5"/>
<path d="M36.8405 27.8999C37.636 27.8999 38.2808 27.2551 38.2808 26.4597C38.2808 25.6643 37.636 25.0194 36.8405 25.0194C36.0451 25.0194 35.4003 25.6643 35.4003 26.4597C35.4003 27.2551 36.0451 27.8999 36.8405 27.8999Z" fill="#8BD346"/>
<path d="M36.6977 27.0091C36.6653 27.0091 36.6338 26.9987 36.6079 26.9792L36.6063 26.978L36.2678 26.7191C36.2018 26.6685 36.1894 26.5741 36.2399 26.5082C36.2905 26.4423 36.3849 26.4298 36.4508 26.4803L36.67 26.6485L37.1881 25.9726C37.2386 25.9067 37.333 25.8942 37.3989 25.9447C37.4648 25.9953 37.4773 26.0897 37.4269 26.1556L36.8175 26.9503C36.7889 26.9874 36.7446 27.0092 36.6977 27.0091Z" fill="white"/>
<path d="M42.7184 14.7535C43.857 14.7535 44.78 13.8305 44.78 12.6918C44.78 11.5532 43.857 10.6302 42.7184 10.6302C41.5798 10.6302 40.6567 11.5532 40.6567 12.6918C40.6567 13.8305 41.5798 14.7535 42.7184 14.7535Z" fill="#FFB6B6"/>
<path d="M44.5193 14.2759C44.5193 14.2759 45.1299 13.0392 45.119 12.5671C45.1082 12.095 44.7745 10.88 44.6338 10.7999C44.493 10.7198 42.9748 9.94897 42.5633 10.1807C42.1518 10.4125 41.4278 11.2052 40.6468 11.4197C40.4259 11.4804 40.6187 12.6152 40.6187 12.6152L41.5327 12.483C41.5327 12.483 42.4855 11.6274 42.5267 12.21C42.5679 12.7926 43.4515 12.5499 43.4515 12.5499L43.4623 13.022L43.824 13.0415L43.9236 12.539C43.9236 12.539 44.0861 13.5634 43.8761 14.0962C43.6661 14.629 44.5193 14.2759 44.5193 14.2759Z" fill="#2F2E41"/>
</g>
<defs>
<clipPath id="clip0_123_3309">
<rect width="61" height="46" fill="white"/>
</clipPath>
</defs>
</svg>
