<svg width="25" height="25" viewBox="0 0 30 18" fill="none" xmlns="http://www.w3.org/2000/svg">
<g clip-path="url(#clip0_747_1176)">
<path fill-rule="evenodd" clip-rule="evenodd" d="M15 0.106934C11.001 0.106934 8.50098 2.09505 7.5 6.07129C9.00065 4.08398 10.7503 3.33854 12.749 3.83496C13.8916 4.11816 14.7021 4.94092 15.6104 5.85156C17.0752 7.33594 18.7842 9.05225 22.5 9.05225C26.499 9.05225 28.999 7.06413 30 3.08789C28.501 5.07682 26.7513 5.82227 24.751 5.32422C23.6084 5.04102 22.7979 4.21826 21.8896 3.30762C20.4199 1.81592 18.7183 0.106934 15 0.106934ZM7.5 9.05225C3.50098 9.05225 1.00098 11.0404 0 15.0166C1.50228 13.0293 3.25195 12.2839 5.24902 12.7803C6.3916 13.0635 7.20215 13.8862 8.11035 14.7993C9.5752 16.2813 11.2842 18 15 18C18.999 18 21.499 16.0119 22.5 12.0356C21.001 14.0229 19.2513 14.7668 17.251 14.2671C16.1084 13.9839 15.2979 13.1611 14.3896 12.2505C12.9248 10.7661 11.2158 9.04736 7.5 9.04736V9.05225Z" fill="#06B6D4"/>
</g>
<defs>
<clipPath id="clip0_747_1176">
<rect width="30" height="17.8931" fill="white" transform="translate(0 0.106934)"/>
</clipPath>
</defs>
</svg>
