<svg width="25" height="25" viewBox="0 0 25 25" fill="none" xmlns="http://www.w3.org/2000/svg">
<g clip-path="url(#clip0_27_386)">
<path d="M17.8437 14.8281C17.5469 14.6875 16.125 13.9844 15.8594 13.875C15.5937 13.7656 15.4062 13.7344 15.2031 14.0312C15 14.3281 14.4531 14.9687 14.2812 15.1719C14.1094 15.375 13.9531 15.3906 13.6562 15.1719C12.8035 14.8297 12.016 14.3434 11.3281 13.7344C10.7054 13.1481 10.1782 12.468 9.76561 11.7187C9.59374 11.4375 9.76561 11.2812 9.89061 11.125C10.0156 10.9687 10.1719 10.7969 10.3281 10.625C10.4424 10.4764 10.5369 10.3135 10.6094 10.1406C10.6481 10.0602 10.6683 9.97208 10.6683 9.88281C10.6683 9.79354 10.6481 9.70541 10.6094 9.625C10.6094 9.48437 9.95311 8.0625 9.70311 7.48437C9.45311 6.90625 9.23436 6.98437 9.06249 6.98437H8.43749C8.13975 6.99598 7.85879 7.12522 7.65624 7.34375C7.3293 7.65573 7.07033 8.03189 6.89556 8.44864C6.72079 8.8654 6.634 9.31376 6.64061 9.76562C6.72053 10.875 7.12843 11.9355 7.81249 12.8125C9.06775 14.6772 10.7851 16.1846 12.7969 17.1875C13.4844 17.4844 14.0156 17.6562 14.4375 17.7969C15.0299 17.9759 15.6561 18.0134 16.2656 17.9062C16.6704 17.8241 17.0541 17.6597 17.3928 17.4232C17.7314 17.1866 18.0179 16.8831 18.2344 16.5312C18.4145 16.0968 18.4739 15.6217 18.4062 15.1562C18.3281 15.0469 18.1406 14.9687 17.8437 14.8281Z" fill="#25D366"/>
<path d="M20.7656 4.18747C19.685 3.09666 18.397 2.23329 16.9774 1.64827C15.5578 1.06326 14.0354 0.768443 12.5 0.781221C10.4661 0.791865 8.47056 1.33596 6.71272 2.35916C4.95489 3.38236 3.49627 4.84886 2.48256 6.61218C1.46885 8.37551 0.935515 10.3739 0.935834 12.4079C0.936152 14.4418 1.47011 16.4401 2.48438 18.2031L0.921875 24.2187L7.07813 22.6562C8.78005 23.5823 10.6874 24.0659 12.625 24.0625H12.5C14.8092 24.0775 17.0707 23.4045 18.9958 22.1291C20.921 20.8538 22.4228 19.0339 23.3095 16.9017C24.1963 14.7694 24.4279 12.4214 23.9748 10.157C23.5218 7.89255 22.4045 5.81438 20.7656 4.18747ZM12.5 22.0625C10.7665 22.0638 9.06521 21.594 7.57812 20.7031L7.23438 20.5L3.57813 21.4531L4.54688 17.8906L4.32813 17.5312C3.08024 15.5216 2.61346 13.1238 3.01633 10.7928C3.4192 8.46181 4.66369 6.35979 6.5137 4.88557C8.3637 3.41135 10.6905 2.6675 13.0526 2.79515C15.4147 2.92281 17.6478 3.91309 19.3281 5.5781C20.229 6.47168 20.943 7.53561 21.4285 8.70789C21.9141 9.88018 22.1614 11.1374 22.1563 12.4062C22.1521 14.9659 21.1334 17.4197 19.3234 19.2297C17.5134 21.0397 15.0597 22.0583 12.5 22.0625Z" fill="#25D366"/>
</g>
<defs>
<clipPath id="clip0_27_386">
<rect width="25" height="25" fill="white"/>
</clipPath>
</defs>
</svg>
