<svg width="45" height="46" viewBox="0 0 45 46" fill="none" xmlns="http://www.w3.org/2000/svg">
<g clip-path="url(#clip0_715_4484)">
<path d="M30.0535 31.7533C28.2338 30.6426 27.5808 30.7545 27.5808 28.5355C27.5808 27.7588 27.5808 26.3157 27.5808 24.9844C28.5796 23.8752 28.9429 24.0133 29.7875 19.6585C31.4955 19.6585 31.3848 17.4394 32.1904 15.471C32.8471 13.8681 32.297 13.2182 31.7439 12.9526C32.196 7.11124 32.1961 3.08813 25.5659 1.84009C23.1627 -0.219807 19.5362 0.479539 17.8177 0.823279C16.1006 1.16702 14.5517 0.823279 14.5517 0.823279L14.8467 3.59096C12.3323 6.60842 13.5897 10.6315 13.1849 12.9879C12.6574 13.2753 12.1815 13.9379 12.8097 15.471C13.6152 17.4394 13.5045 19.6585 15.2126 19.6585C16.0572 24.0133 16.4204 23.8752 17.4193 24.9844C17.4193 26.3157 17.4193 27.7588 17.4193 28.5355C17.4193 30.7545 16.6651 30.7928 14.9466 31.7533C10.8035 34.0691 5.40444 35.4147 4.43712 42.6526C4.25993 43.9764 11.8611 45.4217 22.5 45.4263C33.139 45.4217 40.7398 43.9764 40.5631 42.6526C39.5957 35.4147 34.1472 34.2507 30.0535 31.7533Z" fill="black"/>
</g>
<defs>
<clipPath id="clip0_715_4484">
<rect width="45" height="45" fill="white" transform="translate(0 0.42627)"/>
</clipPath>
</defs>
</svg>
