<svg width="25" height="25" viewBox="0 0 25 25" fill="none" xmlns="http://www.w3.org/2000/svg">
<path d="M15.9188 1.84865C16.1088 2.08439 16.2057 2.40255 16.3986 3.0381L20.6283 16.9318C19.0397 16.1073 17.3345 15.53 15.5717 15.2199L12.8182 5.91408C12.7964 5.83969 12.7511 5.77436 12.6891 5.72791C12.6271 5.68146 12.5516 5.6564 12.4741 5.65648C12.3966 5.65657 12.3212 5.68181 12.2593 5.7284C12.1974 5.77499 12.1522 5.84042 12.1307 5.91486L9.41016 15.2152C7.63965 15.524 5.92688 16.1022 4.33145 16.9297L8.58106 3.03517C8.77559 2.4004 8.87247 2.08282 9.06231 1.84708C9.23012 1.63957 9.44814 1.47836 9.69571 1.37872C9.97559 1.26642 10.3082 1.26642 10.9721 1.26642H14.0078C14.6723 1.26642 15.0049 1.26642 15.2857 1.3795C15.5335 1.47912 15.7513 1.64066 15.9188 1.84865Z" fill="url(#paint0_linear_747_1175)"/>
<path d="M16.4246 17.5926C15.7273 18.1893 14.3355 18.5959 12.7326 18.5959C10.7658 18.5959 9.1164 17.9832 8.67909 17.1592C8.52284 17.6314 8.48769 18.1717 8.48769 18.5174C8.48769 18.5174 8.38476 20.2117 9.56347 21.3904C9.56347 21.245 9.59212 21.1009 9.6478 20.9665C9.70348 20.8321 9.78508 20.71 9.88795 20.6072C9.99082 20.5043 10.1129 20.4227 10.2474 20.3671C10.3818 20.3114 10.5258 20.2828 10.6713 20.2828C11.7201 20.2828 11.7195 21.1975 11.7187 21.9406V22.0062C11.7187 23.1338 12.4076 24.0998 13.3873 24.5072C13.2363 24.197 13.158 23.8565 13.1584 23.5115C13.1584 22.4357 13.7893 22.0359 14.5232 21.5705C15.107 21.2006 15.7555 20.7893 16.2018 19.9646C16.4426 19.5203 16.5685 19.0228 16.568 18.5174C16.5682 18.2036 16.5199 17.8916 16.4246 17.5926Z" fill="#FF5D01"/>
<path d="M16.4246 17.5926C15.7273 18.1893 14.3355 18.5959 12.7326 18.5959C10.7658 18.5959 9.1164 17.9832 8.67909 17.1592C8.52284 17.6314 8.48769 18.1717 8.48769 18.5174C8.48769 18.5174 8.38476 20.2117 9.56347 21.3904C9.56347 21.245 9.59212 21.1009 9.6478 20.9665C9.70348 20.8321 9.78508 20.71 9.88795 20.6072C9.99082 20.5043 10.1129 20.4227 10.2474 20.3671C10.3818 20.3114 10.5258 20.2828 10.6713 20.2828C11.7201 20.2828 11.7195 21.1975 11.7187 21.9406V22.0062C11.7187 23.1338 12.4076 24.0998 13.3873 24.5072C13.2363 24.197 13.158 23.8565 13.1584 23.5115C13.1584 22.4357 13.7893 22.0359 14.5232 21.5705C15.107 21.2006 15.7555 20.7893 16.2018 19.9646C16.4426 19.5203 16.5685 19.0228 16.568 18.5174C16.5682 18.2036 16.5199 17.8916 16.4246 17.5926Z" fill="url(#paint1_linear_747_1175)"/>
<defs>
<linearGradient id="paint0_linear_747_1175" x1="17.246" y1="0.529563" x2="12.4796" y2="16.9317" gradientUnits="userSpaceOnUse">
<stop stop-color="#000014"/>
<stop offset="1" stop-color="#150426"/>
</linearGradient>
<linearGradient id="paint1_linear_747_1175" x1="19.5641" y1="12.7432" x2="15.436" y2="21.385" gradientUnits="userSpaceOnUse">
<stop stop-color="#FF1639"/>
<stop offset="1" stop-color="#FF1639" stop-opacity="0"/>
</linearGradient>
</defs>
</svg>
