<svg width="25" height="25" viewBox="0 0 25 25" fill="none" xmlns="http://www.w3.org/2000/svg">
<path fill-rule="evenodd" clip-rule="evenodd" d="M12.5 12.5C12.5 10.7741 13.8991 9.375 15.625 9.375C17.3509 9.375 18.75 10.7741 18.75 12.5C18.75 14.2259 17.3509 15.625 15.625 15.625C13.8991 15.625 12.5 14.2259 12.5 12.5Z" fill="#1ABCFE"/>
<path fill-rule="evenodd" clip-rule="evenodd" d="M6.25 18.75C6.25 17.0241 7.64911 15.625 9.375 15.625H12.5V18.75C12.5 20.4759 11.1009 21.875 9.375 21.875C7.64911 21.875 6.25 20.4759 6.25 18.75Z" fill="#0ACF83"/>
<path fill-rule="evenodd" clip-rule="evenodd" d="M12.5 3.125V9.375H15.625C17.3509 9.375 18.75 7.97586 18.75 6.25C18.75 4.52411 17.3509 3.125 15.625 3.125H12.5Z" fill="#FF7262"/>
<path fill-rule="evenodd" clip-rule="evenodd" d="M6.25 6.25C6.25 7.97586 7.64911 9.375 9.375 9.375H12.5V3.125H9.375C7.64911 3.125 6.25 4.52411 6.25 6.25Z" fill="#F24E1E"/>
<path fill-rule="evenodd" clip-rule="evenodd" d="M6.25 12.5C6.25 14.2259 7.64911 15.625 9.375 15.625H12.5V9.375H9.375C7.64911 9.375 6.25 10.7741 6.25 12.5Z" fill="#A259FF"/>
</svg>
