<svg id="visual" viewBox="0 0 900 600" width="900" height="600" xmlns="http://www.w3.org/2000/svg" xmlns:xlink="http://www.w3.org/1999/xlink" version="1.1"><g transform="translate(456.8245781168902 261.17115527659985)"><path d="M146.4 -188.3C196.6 -195.6 248.8 -166.5 261.7 -123.8C274.6 -81 248.2 -24.6 224.3 21.1C200.5 66.9 179.2 101.9 158.5 151.7C137.7 201.6 117.4 266.3 82.1 274.4C46.7 282.4 -3.9 233.8 -51.7 206C-99.5 178.2 -144.6 171.3 -162.1 144.3C-179.6 117.2 -169.5 70.1 -194.7 16.7C-219.9 -36.7 -280.5 -96.2 -278.7 -138.5C-276.8 -180.7 -212.5 -205.6 -155.6 -195.3C-98.8 -184.9 -49.4 -139.3 -0.6 -138.4C48.1 -137.4 96.2 -181 146.4 -188.3" fill="#93DEFF"></path></g></svg>