<svg width="660" height="25" viewBox="0 0 660 25" fill="none" xmlns="http://www.w3.org/2000/svg">
<g clip-path="url(#clip0_24_322)">
<path d="M17.8437 14.8281C17.5469 14.6875 16.125 13.9844 15.8594 13.875C15.5937 13.7656 15.4062 13.7344 15.2031 14.0312C15 14.3281 14.4531 14.9687 14.2812 15.1719C14.1094 15.375 13.9531 15.3906 13.6562 15.1719C12.8035 14.8297 12.016 14.3434 11.3281 13.7344C10.7054 13.1481 10.1782 12.468 9.76561 11.7187C9.59374 11.4375 9.76561 11.2812 9.89061 11.125C10.0156 10.9687 10.1719 10.7969 10.3281 10.625C10.4424 10.4764 10.5369 10.3135 10.6094 10.1406C10.6481 10.0602 10.6683 9.97208 10.6683 9.88281C10.6683 9.79354 10.6481 9.70541 10.6094 9.625C10.6094 9.48437 9.95311 8.0625 9.70311 7.48437C9.45311 6.90625 9.23436 6.98437 9.06249 6.98437H8.43749C8.13975 6.99598 7.85879 7.12522 7.65624 7.34375C7.3293 7.65573 7.07033 8.03189 6.89556 8.44864C6.72079 8.8654 6.634 9.31376 6.64061 9.76562C6.72053 10.875 7.12843 11.9355 7.81249 12.8125C9.06775 14.6772 10.7851 16.1846 12.7969 17.1875C13.4844 17.4844 14.0156 17.6562 14.4375 17.7969C15.0299 17.9759 15.6561 18.0134 16.2656 17.9062C16.6704 17.8241 17.0541 17.6597 17.3928 17.4232C17.7314 17.1866 18.0179 16.8831 18.2344 16.5312C18.4145 16.0968 18.4739 15.6217 18.4062 15.1562C18.3281 15.0469 18.1406 14.9687 17.8437 14.8281Z" fill="#25D366"/>
<path d="M20.7656 4.18747C19.685 3.09666 18.397 2.23329 16.9774 1.64827C15.5578 1.06326 14.0354 0.768443 12.5 0.781221C10.4661 0.791865 8.47056 1.33596 6.71272 2.35916C4.95489 3.38236 3.49627 4.84886 2.48256 6.61218C1.46885 8.37551 0.935515 10.3739 0.935834 12.4079C0.936152 14.4418 1.47011 16.4401 2.48438 18.2031L0.921875 24.2187L7.07813 22.6562C8.78005 23.5823 10.6874 24.0659 12.625 24.0625H12.5C14.8092 24.0775 17.0707 23.4045 18.9958 22.1291C20.921 20.8538 22.4228 19.0339 23.3095 16.9017C24.1963 14.7694 24.4279 12.4214 23.9748 10.157C23.5218 7.89255 22.4045 5.81438 20.7656 4.18747ZM12.5 22.0625C10.7665 22.0638 9.06521 21.594 7.57812 20.7031L7.23438 20.5L3.57813 21.4531L4.54688 17.8906L4.32813 17.5312C3.08024 15.5216 2.61346 13.1238 3.01633 10.7928C3.4192 8.46181 4.66369 6.35979 6.5137 4.88557C8.3637 3.41135 10.6905 2.6675 13.0526 2.79515C15.4147 2.92281 17.6478 3.91309 19.3281 5.5781C20.229 6.47168 20.943 7.53561 21.4285 8.70789C21.9141 9.88018 22.1614 11.1374 22.1563 12.4062C22.1521 14.9659 21.1334 17.4197 19.3234 19.2297C17.5134 21.0397 15.0597 22.0583 12.5 22.0625Z" fill="#25D366"/>
</g>
<path d="M54.5 6.25417C54.4635 6.25417 54.4208 6.25417 54.3792 6.25417C52.7021 6.25417 51.0667 6.43646 49.4937 6.78229L49.6437 6.75417C48.1417 7.06979 46.8125 7.53646 45.5708 8.15312L45.6688 8.10937C44.6156 8.61667 43.724 9.29583 42.9917 10.1198L42.9844 10.1281C42.3896 10.7781 42.0187 11.6417 42 12.5906V12.5948C42.0198 13.5469 42.3896 14.4083 42.9854 15.0604L42.9833 15.0573C43.7229 15.8896 44.6146 16.5687 45.6177 17.0542L45.6677 17.076C46.8115 17.6479 48.1406 18.1156 49.5323 18.4115L49.6427 18.4312C51.0656 18.749 52.701 18.9312 54.3781 18.9312H54.5062H54.5H54.6208C56.2979 18.9312 57.9333 18.749 59.5062 18.4031L59.3563 18.4312C60.8583 18.1156 62.1875 17.649 63.4292 17.0323L63.3312 17.076C64.3844 16.5687 65.276 15.8896 66.0083 15.0656L66.0156 15.0573C66.6104 14.4073 66.9812 13.5437 67 12.5948V12.5906C66.9812 11.6375 66.6104 10.774 66.0135 10.1208L66.0156 10.124C65.276 9.29167 64.3844 8.6125 63.3812 8.12708L63.3312 8.10521C62.1875 7.53333 60.8583 7.06563 59.4667 6.76979L59.3563 6.75C57.9333 6.43229 56.2979 6.25 54.6208 6.25C54.5781 6.25 54.5354 6.25 54.4927 6.25H54.499L54.5 6.25417ZM51.25 13.8208C51.1135 13.9448 50.9583 14.051 50.7896 14.1344L50.7781 14.1396C50.6312 14.2104 50.4573 14.276 50.276 14.326L50.2542 14.3312C50.075 14.3958 49.8677 14.4344 49.651 14.4344C49.6427 14.4344 49.6344 14.4344 49.626 14.4344H47.5729L47.2396 16.4792H45.7323L47.0656 9.52604H49.9542C49.9729 9.52604 49.9958 9.525 50.0187 9.525C50.3937 9.525 50.7542 9.59062 51.0875 9.71146L51.0656 9.70417C51.3729 9.81667 51.6344 9.99167 51.8448 10.2135L51.8458 10.2146C52.0281 10.4469 52.1583 10.7281 52.2146 11.0365L52.2167 11.0479C52.2427 11.2 52.2583 11.375 52.2583 11.5542C52.2583 11.7583 52.2385 11.9573 52.201 12.151L52.2042 12.1312C52.1667 12.3177 52.1177 12.4802 52.0562 12.6365L52.0635 12.6167C52.0038 12.7701 51.9399 12.9149 51.8719 13.051C51.7872 13.1872 51.6934 13.3236 51.5906 13.4604C51.4906 13.5948 51.3813 13.7125 51.2604 13.8177L51.2573 13.8198L51.25 13.8208ZM55.5958 14.4344L56.1844 11.4948C56.2094 11.3833 56.224 11.2562 56.224 11.125C56.224 11.0979 56.2229 11.0708 56.2219 11.0438V11.0479C56.2208 10.9344 56.1771 10.8312 56.1062 10.7531C56.0344 10.6906 55.949 10.6427 55.8552 10.6135L55.85 10.6125C55.7198 10.5708 55.5698 10.5479 55.4146 10.5479C55.3969 10.5479 55.3792 10.5479 55.3615 10.549H55.3635H54.1906L53.424 14.4344H51.9417L53.275 7.68437H54.7573L54.4 9.525H55.7333C55.7562 9.525 55.7823 9.52396 55.8094 9.52396C56.1542 9.52396 56.4896 9.56667 56.8104 9.64583L56.7823 9.63958C57.0417 9.69687 57.2677 9.81875 57.45 9.98542L57.449 9.98438C57.6115 10.1125 57.7271 10.2948 57.7677 10.5031L57.7687 10.5083C57.7833 10.601 57.7917 10.7073 57.7917 10.8156C57.7917 10.9927 57.7698 11.1646 57.7271 11.3281L57.7302 11.3135L57.1167 14.4323L55.5958 14.4344ZM63.8271 12.1594C63.7854 12.3479 63.7417 12.501 63.6896 12.6521L63.699 12.6198C63.6427 12.7854 63.574 12.9292 63.4896 13.0625L63.4948 13.0542C63.4229 13.2156 63.3375 13.3542 63.2365 13.4792L63.2396 13.475C63.1375 13.6021 63.0281 13.7146 62.9094 13.8177L62.9062 13.8208C62.7698 13.9448 62.6146 14.051 62.4458 14.1344L62.4344 14.1396C62.2875 14.2104 62.1135 14.276 61.9323 14.326L61.9104 14.3312C61.7312 14.3958 61.524 14.4344 61.3073 14.4344C61.299 14.4344 61.2906 14.4344 61.2823 14.4344H59.2292L58.8719 16.475H57.3896L58.7229 9.52187H61.5865C61.6094 9.52083 61.6354 9.52083 61.6625 9.52083C62.0427 9.52083 62.4083 9.58646 62.7469 9.70833L62.724 9.70104C63.0229 9.80937 63.275 9.98437 63.4719 10.2094L63.474 10.2115C63.6719 10.4427 63.8125 10.7292 63.8677 11.0438L63.8698 11.0542C63.8927 11.1906 63.9062 11.3469 63.9062 11.5073C63.9062 11.7375 63.8792 11.9604 63.8281 12.175L63.8323 12.1552L63.8271 12.1594ZM61.0146 10.5479H59.9958L59.4615 13.4115H60.3531H60.4073C60.6677 13.4115 60.924 13.3875 61.1719 13.3427L61.1458 13.3469C61.3583 13.3094 61.5479 13.2333 61.7146 13.126L61.7083 13.1292C61.85 13.0021 61.9688 12.8552 62.0615 12.6906L62.0656 12.6823C62.1729 12.4865 62.2531 12.2583 62.2937 12.0177L62.2958 12.0052C62.3281 11.8708 62.3458 11.7156 62.3458 11.5562C62.3458 11.4792 62.3417 11.4031 62.3333 11.3292L62.3344 11.3385C62.3198 11.174 62.2594 11.025 62.1667 10.9021L62.1677 10.9042C62.0469 10.7917 61.9021 10.7042 61.7417 10.651L61.7333 10.649C61.5396 10.5844 61.3177 10.5479 61.0865 10.5479C61.0625 10.5479 61.0385 10.5479 61.0156 10.549H61.0187L61.0146 10.5479ZM49.3583 10.5479H48.3396L47.8031 13.4115H48.6969H48.751C49.0115 13.4115 49.2677 13.3875 49.5156 13.3427L49.4896 13.3469C49.7021 13.3094 49.8917 13.2333 50.0583 13.126L50.0521 13.1292C50.1937 13.0021 50.3125 12.8552 50.4052 12.6906L50.4094 12.6823C50.5167 12.4865 50.5969 12.2583 50.6375 12.0177L50.6396 12.0052C50.6719 11.8708 50.6896 11.7156 50.6896 11.5562C50.6896 11.4792 50.6854 11.4031 50.6771 11.3292L50.6781 11.3385C50.6635 11.174 50.6031 11.025 50.5104 10.9021L50.5115 10.9042C50.3906 10.7917 50.2458 10.7042 50.0854 10.651L50.0771 10.649C49.8833 10.5844 49.6615 10.5479 49.4302 10.5479C49.4062 10.5479 49.3823 10.5479 49.3594 10.549H49.3625L49.3583 10.5479Z" fill="#8993BE"/>
<path d="M106.853 0.735291L104.971 21.8809L96.4706 24.2647L88.0294 21.8809L86.1471 0.735291H106.853ZM103 5.05735H90L90.6912 12.9103H99.6927L99.3662 16.2618L96.4706 17.0441L93.5882 16.2632L93.3971 14.2059H90.825L91.1485 18.2926L96.4721 19.7632H96.5294V19.7485L101.81 18.2926L102.546 10.2926H93.0735L92.8529 7.63088H102.765L103 5.05735Z" fill="#E34C26"/>
<g clip-path="url(#clip1_24_322)">
<path d="M138.5 2.08333C136.019 2.07397 133.617 2.95015 131.725 4.55423C129.833 6.1583 128.575 8.38497 128.178 10.8336C127.781 13.2823 128.271 15.7922 129.56 17.9117C130.849 20.0312 132.852 21.6213 135.208 22.3958C135.729 22.4792 135.896 22.1562 135.896 21.875V20.1146C133.01 20.7396 132.396 18.75 132.396 18.75C132.201 18.103 131.78 17.5481 131.208 17.1875C130.26 16.5417 131.281 16.5625 131.281 16.5625C131.608 16.6048 131.921 16.7205 132.197 16.9008C132.473 17.0812 132.705 17.3216 132.875 17.6042C133.164 18.1187 133.645 18.4981 134.213 18.66C134.78 18.8219 135.389 18.7532 135.906 18.4687C135.954 17.9407 136.186 17.4463 136.562 17.0729C134.333 16.8437 131.854 15.9479 131.854 11.9792C131.824 10.939 132.197 9.92751 132.896 9.15624C132.579 8.25982 132.616 7.2761 133 6.40624C133 6.40624 133.875 6.12499 135.865 7.44791C137.57 6.98934 139.367 6.98934 141.073 7.44791C143.062 6.10416 143.937 6.40624 143.937 6.40624C144.322 7.2761 144.359 8.25982 144.042 9.15624C144.74 9.92751 145.113 10.939 145.083 11.9792C145.083 15.9583 142.646 16.8333 140.323 17.0937C140.573 17.3452 140.767 17.6472 140.891 17.9796C141.015 18.3119 141.066 18.6669 141.042 19.0208V21.875C141.042 22.1562 141.208 22.4896 141.74 22.3958C144.092 21.6227 146.092 20.0369 147.381 17.9228C148.67 15.8087 149.164 13.3046 148.774 10.8594C148.384 8.41422 147.135 6.18792 145.253 4.57967C143.37 2.97142 140.976 2.08642 138.5 2.08333Z" fill="#4078C0"/>
</g>
<path d="M186.934 5.09296L174.066 5.08983L174.274 7.64999L184.159 7.65155L183.91 10.3031H177.427L177.662 12.8148H183.697L183.34 16.2547L180.499 17.0398L177.613 16.2492L177.43 14.1891H174.881L175.164 17.9523L180.499 19.6148L185.745 18.1211L186.933 5.09374L186.934 5.09296ZM170.249 0.784363H190.751L188.886 21.8359L180.477 24.2148L172.116 21.8344L170.249 0.784363Z" fill="#2965F1"/>
<path d="M233.458 11.8273C233.394 11.8227 233.32 11.8195 233.245 11.8195C232.866 11.8195 232.505 11.8898 232.172 12.018L232.192 12.0109C232.095 12.05 231.938 12.05 231.925 12.1742C231.979 12.2258 231.987 12.3109 232.032 12.3828C232.123 12.5375 232.236 12.6687 232.367 12.7781L232.37 12.7805C232.506 12.8875 232.643 12.9914 232.787 13.0828C233.041 13.2391 233.329 13.332 233.577 13.4891C233.719 13.5805 233.863 13.6969 234.007 13.7945C234.078 13.843 234.124 13.9312 234.216 13.9625V13.943C234.171 13.8844 234.157 13.7992 234.113 13.7344C234.048 13.6687 233.983 13.6102 233.918 13.5461C233.724 13.2922 233.5 13.075 233.248 12.8937L233.239 12.8875C233.03 12.7453 232.573 12.5461 232.488 12.3062L232.475 12.2922C232.645 12.268 232.797 12.232 232.943 12.1836L232.924 12.1891C233.146 12.1305 233.349 12.143 233.578 12.0859C233.681 12.0594 233.786 12.0273 233.891 11.9945V11.9359C233.773 11.8187 233.686 11.6594 233.565 11.55C233.245 11.2687 232.893 11.0047 232.522 10.7672L232.487 10.7461C232.282 10.6156 232.022 10.5312 231.806 10.4203C231.728 10.3812 231.598 10.3617 231.552 10.2961C231.451 10.1516 231.361 9.98593 231.29 9.81093L231.284 9.79374C231.092 9.42187 230.914 9.04348 230.749 8.65859C230.637 8.35937 230.525 8.11406 230.399 7.87656L230.417 7.91328C229.803 6.88281 228.948 6.05468 227.927 5.48984L227.893 5.47265C227.652 5.35312 227.371 5.26015 227.077 5.20781L227.057 5.20468C226.894 5.19687 226.731 5.18515 226.569 5.17812C226.455 5.10468 226.356 5.02968 226.264 4.94687L226.266 4.94921C225.895 4.71484 224.935 4.20703 224.662 4.8789C224.486 5.30234 224.923 5.72031 225.073 5.93515C225.194 6.07812 225.303 6.23828 225.398 6.40781L225.405 6.42343C225.452 6.53671 225.464 6.65312 225.51 6.77109C225.623 7.12421 225.738 7.41406 225.869 7.69453L225.848 7.64609C225.926 7.80156 226.006 7.93359 226.096 8.05859L226.09 8.04921C226.142 8.12031 226.232 8.1539 226.253 8.27109C226.186 8.41249 226.134 8.57656 226.105 8.74765L226.103 8.75859C226.019 9.01796 225.97 9.31718 225.97 9.62734C225.97 10.1125 226.089 10.5695 226.3 10.9711L226.292 10.9555C226.397 11.1172 226.645 11.4766 226.978 11.3391C227.271 11.2219 227.206 10.8508 227.291 10.5242C227.31 10.4461 227.298 10.3945 227.337 10.3414V10.3562C227.429 10.5398 227.521 10.7148 227.605 10.8984C227.841 11.2383 228.121 11.5273 228.441 11.7656L228.452 11.7727C228.608 11.8898 228.732 12.093 228.927 12.1648V12.1453H228.913C228.868 12.0969 228.819 12.0539 228.765 12.0172L228.762 12.0156C228.641 11.8969 228.528 11.7687 228.427 11.6336L228.42 11.625C228.166 11.2812 227.923 10.8922 227.713 10.4836L227.691 10.4359C227.584 10.2312 227.494 10.0102 227.408 9.80781C227.369 9.72968 227.369 9.61249 227.303 9.57343C227.188 9.70312 227.084 9.84765 226.997 10.0031L226.991 10.0156C226.891 10.307 226.825 10.6437 226.808 10.993V11.0016C226.781 11.0086 226.795 11.0016 226.781 11.0156C226.573 10.9648 226.501 10.7484 226.423 10.5664C226.316 10.2805 226.255 9.94921 226.255 9.60468C226.255 9.32656 226.295 9.05781 226.37 8.8039L226.365 8.82421C226.411 8.68749 226.606 8.25624 226.528 8.12499C226.488 8.00078 226.359 7.92968 226.287 7.8289C226.202 7.70859 226.123 7.57187 226.059 7.42734L226.052 7.41171C225.896 7.04687 225.818 6.64218 225.648 6.27734C225.546 6.08671 225.438 5.92265 225.317 5.76953L225.323 5.77656C225.194 5.62734 225.075 5.46093 224.972 5.28437L224.963 5.26874C224.931 5.19765 224.885 5.07968 224.937 5.00156C224.946 4.95624 224.982 4.92109 225.028 4.91406C225.114 4.84374 225.356 4.93515 225.441 4.97421C225.688 5.06796 225.902 5.17812 226.099 5.30781L226.087 5.29999C226.178 5.36406 226.277 5.48828 226.395 5.52031H226.531C226.74 5.5664 226.976 5.53437 227.171 5.5914C227.53 5.71249 227.84 5.86406 228.127 6.04999L228.11 6.03984C228.973 6.59687 229.663 7.34999 230.13 8.23984L230.146 8.27187C230.224 8.42187 230.259 8.56015 230.33 8.7164C230.466 9.03828 230.635 9.36406 230.774 9.67499C230.906 10.0094 231.062 10.2984 231.248 10.5648L231.239 10.5508C231.337 10.6875 231.729 10.7586 231.905 10.8297C232.09 10.8945 232.238 10.9562 232.382 11.0258L232.353 11.0133C232.577 11.15 232.796 11.3062 233.007 11.4562C233.114 11.5305 233.44 11.6937 233.459 11.825L233.458 11.8273ZM224.298 17.5406C224.298 17.5523 224.299 17.5656 224.299 17.5789C224.299 18.0148 224.105 18.4047 223.797 18.6672L223.795 18.6687C223.457 18.9437 223.022 19.1109 222.548 19.1109C222.511 19.1109 222.474 19.1102 222.438 19.1078H222.443C221.866 19.1 221.334 18.9125 220.899 18.5992L220.907 18.6047L221.138 18.1398C221.473 18.3273 221.872 18.4437 222.295 18.4601H222.3C222.321 18.4617 222.345 18.4625 222.37 18.4625C222.63 18.4625 222.871 18.3812 223.069 18.243L223.065 18.2453C223.244 18.1094 223.358 17.8969 223.358 17.6578C223.358 17.6531 223.358 17.6492 223.358 17.6445V17.6453C223.358 17.3234 223.134 17.05 222.725 16.8203C222.346 16.6125 221.59 16.1789 221.59 16.1789C221.216 15.9476 220.972 15.5406 220.972 15.0766C220.972 15.0602 220.972 15.0437 220.973 15.0273V15.0297C220.972 15.0148 220.972 14.9977 220.972 14.9805C220.972 14.5781 221.149 14.2172 221.43 13.9719L221.431 13.9703C221.73 13.7172 222.12 13.5633 222.545 13.5633C222.573 13.5633 222.599 13.5641 222.626 13.5648H222.622C222.629 13.5648 222.637 13.5648 222.646 13.5648C223.145 13.5648 223.61 13.7141 223.998 13.9711L223.988 13.9656L223.78 14.4305C223.475 14.293 223.119 14.2102 222.744 14.2062H222.742C222.723 14.2047 222.702 14.2039 222.68 14.2039C222.462 14.2039 222.26 14.2805 222.102 14.4086L222.104 14.407C221.956 14.5297 221.862 14.7133 221.862 14.9187C221.862 15.2391 222.09 15.5141 222.512 15.7484C222.895 15.9586 223.67 16.4023 223.67 16.4023C224.052 16.6266 224.304 17.0344 224.304 17.5016C224.304 17.5156 224.304 17.5305 224.303 17.5445V17.5422L224.298 17.5406ZM225.917 17.9555C225.704 17.5297 225.58 17.0281 225.58 16.4977C225.58 16.4141 225.583 16.3312 225.589 16.25L225.588 16.2609C225.588 14.901 226.002 14.2208 226.828 14.2203C226.848 14.2187 226.873 14.218 226.898 14.218C227.269 14.218 227.595 14.4117 227.78 14.7039L227.782 14.7078C227.994 15.1312 228.118 15.6312 228.118 16.1594C228.118 16.2406 228.115 16.3211 228.109 16.4008L228.11 16.3898C228.11 17.7607 227.697 18.4466 226.87 18.4477C226.849 18.4492 226.825 18.45 226.801 18.45C226.43 18.45 226.103 18.2562 225.918 17.9641L225.916 17.9602L225.917 17.9555ZM229.131 19.168L228.139 18.6797C228.23 18.6039 228.311 18.5242 228.386 18.4383L228.388 18.4359C228.789 17.8953 229.03 17.2148 229.03 16.4789C229.03 16.3937 229.027 16.3094 229.02 16.2258L229.021 16.2367C229.021 14.4503 228.32 13.5565 226.917 13.5555C226.886 13.5539 226.849 13.5531 226.813 13.5531C226.213 13.5531 225.675 13.8164 225.309 14.2344L225.307 14.2367C224.908 14.7773 224.668 15.457 224.668 16.193C224.668 16.2758 224.671 16.3578 224.677 16.4391L224.677 16.4281C224.67 16.507 224.666 16.5992 224.666 16.6922C224.666 17.375 224.88 18.0078 225.244 18.5273L225.237 18.5172C225.588 18.8906 226.085 19.1234 226.636 19.1234C226.688 19.1234 226.738 19.1211 226.788 19.1172L226.781 19.118C226.788 19.118 226.798 19.118 226.806 19.118C227.049 19.118 227.284 19.0828 227.507 19.018L227.49 19.0227L228.784 19.7766L229.135 19.1695L229.131 19.168ZM232.372 19.0359H229.804V13.6375H230.668V18.3727H232.372V19.0359ZM220.34 15.0531C220.116 16.6812 219.602 18.1508 218.852 19.4672L218.883 19.407C218.582 19.9859 218.013 20.3891 217.345 20.4539L217.338 20.4547C217.135 20.4437 216.947 20.3953 216.776 20.3164L216.785 20.3203V19.8383C216.892 19.8547 217.016 19.8641 217.141 19.8641C217.148 19.8641 217.155 19.8641 217.163 19.8641C217.176 19.8648 217.189 19.8648 217.203 19.8648C217.429 19.8648 217.636 19.7828 217.795 19.6461L217.794 19.6469C217.966 19.5055 218.076 19.2945 218.082 19.057C218.041 18.7148 217.962 18.4023 217.848 18.1078L217.858 18.1344L216.868 15.0531H217.756L218.466 17.357C218.593 17.682 218.666 18.0586 218.666 18.4516C218.666 18.4523 218.666 18.4531 218.666 18.4531C219.043 17.4672 219.329 16.3172 219.474 15.1242L219.481 15.0523L220.34 15.0531ZM216.418 19.0359H215.513C215.488 17.5979 215.4 16.1628 215.25 14.7305H215.242L213.866 19.0359H213.177L211.81 14.7305H211.801C211.694 16.1633 211.63 17.5984 211.61 19.0359H210.785C210.839 17.1167 210.972 15.3169 211.185 13.6367H212.308L213.611 17.6047H213.619L214.934 13.6367H216.002C216.239 15.6039 216.378 17.4036 216.42 19.0359H216.418ZM226.801 6.15546C226.799 6.15546 226.797 6.15546 226.795 6.15546C226.702 6.15546 226.612 6.16718 226.526 6.18906L226.534 6.18749V6.19999H226.547C226.614 6.29999 226.683 6.38671 226.757 6.46796L226.755 6.4664C226.808 6.57109 226.853 6.67499 226.905 6.7789L226.919 6.76406C227.004 6.69687 227.058 6.59374 227.058 6.47812C227.058 6.46406 227.057 6.45078 227.055 6.43671V6.43828C227.016 6.39218 227.011 6.34687 226.977 6.30156C226.938 6.23593 226.855 6.2039 226.802 6.15234L226.801 6.15546Z" fill="#00758F"/>
<path d="M256.297 6.42108V18.5797C256.297 19.7273 257.2 20.6305 258.348 20.6305H270.506C271.068 20.6305 271.605 20.3617 271.947 20.0203C272.313 19.6539 272.557 19.1898 272.557 18.5797V6.42108C272.557 5.27343 271.654 4.3703 270.506 4.3703H258.348C257.737 4.3703 257.273 4.61483 256.907 4.98046C256.565 5.32264 256.297 5.85936 256.297 6.42108ZM258.495 8.03202C258.495 7.25077 259.13 6.56718 259.911 6.56718C260.716 6.56718 261.376 7.25077 261.376 8.03202C261.376 8.83749 260.716 9.47264 259.911 9.47264C259.13 9.47264 258.495 8.83749 258.495 8.03202ZM262.425 18.0664V10.6203C262.425 10.4492 262.596 10.3031 262.718 10.3031H264.793C265.086 10.3031 265.086 10.6453 265.086 10.8648C265.672 10.2789 266.429 10.132 267.21 10.132C269.115 10.132 270.335 11.0351 270.335 13.0375V18.0672C270.335 18.2383 270.188 18.3844 270.042 18.3844H267.894C267.723 18.3844 267.601 18.2133 267.601 18.0672V13.5258C267.601 12.7687 267.381 12.3539 266.527 12.3539C265.452 12.3539 265.184 13.0617 265.184 14.0141V18.0672C265.184 18.2383 265.012 18.3844 264.841 18.3844H262.717C262.595 18.3844 262.424 18.2133 262.424 18.0672L262.425 18.0664ZM258.543 18.0664V10.6203C258.543 10.4492 258.714 10.3031 258.836 10.3031H260.96C261.155 10.3031 261.277 10.425 261.277 10.6203V18.0664C261.277 18.2375 261.13 18.3836 260.96 18.3836H258.836C258.689 18.3836 258.543 18.2125 258.543 18.0664Z" fill="#126D9F"/>
<path d="M309.919 1.84865C310.109 2.08439 310.206 2.40255 310.399 3.0381L314.628 16.9318C313.04 16.1073 311.334 15.53 309.572 15.2199L306.818 5.91408C306.796 5.83969 306.751 5.77436 306.689 5.72791C306.627 5.68146 306.552 5.6564 306.474 5.65648C306.397 5.65657 306.321 5.68181 306.259 5.7284C306.197 5.77499 306.152 5.84042 306.131 5.91486L303.41 15.2152C301.64 15.524 299.927 16.1022 298.331 16.9297L302.581 3.03517C302.776 2.4004 302.872 2.08282 303.062 1.84708C303.23 1.63957 303.448 1.47836 303.696 1.37872C303.976 1.26642 304.308 1.26642 304.972 1.26642H308.008C308.672 1.26642 309.005 1.26642 309.286 1.3795C309.533 1.47912 309.751 1.64066 309.919 1.84865Z" fill="url(#paint0_linear_24_322)"/>
<path d="M310.425 17.5926C309.727 18.1893 308.336 18.5959 306.733 18.5959C304.766 18.5959 303.116 17.9832 302.679 17.1592C302.523 17.6314 302.488 18.1717 302.488 18.5174C302.488 18.5174 302.385 20.2117 303.563 21.3904C303.563 21.245 303.592 21.1009 303.648 20.9665C303.703 20.8321 303.785 20.71 303.888 20.6072C303.991 20.5043 304.113 20.4227 304.247 20.3671C304.382 20.3114 304.526 20.2828 304.671 20.2828C305.72 20.2828 305.72 21.1975 305.719 21.9406V22.0062C305.719 23.1338 306.408 24.0998 307.387 24.5072C307.236 24.197 307.158 23.8565 307.158 23.5115C307.158 22.4357 307.789 22.0359 308.523 21.5705C309.107 21.2006 309.755 20.7893 310.202 19.9646C310.443 19.5203 310.569 19.0228 310.568 18.5174C310.568 18.2036 310.52 17.8916 310.425 17.5926Z" fill="#FF5D01"/>
<path d="M310.425 17.5926C309.727 18.1893 308.336 18.5959 306.733 18.5959C304.766 18.5959 303.116 17.9832 302.679 17.1592C302.523 17.6314 302.488 18.1717 302.488 18.5174C302.488 18.5174 302.385 20.2117 303.563 21.3904C303.563 21.245 303.592 21.1009 303.648 20.9665C303.703 20.8321 303.785 20.71 303.888 20.6072C303.991 20.5043 304.113 20.4227 304.247 20.3671C304.382 20.3114 304.526 20.2828 304.671 20.2828C305.72 20.2828 305.72 21.1975 305.719 21.9406V22.0062C305.719 23.1338 306.408 24.0998 307.387 24.5072C307.236 24.197 307.158 23.8565 307.158 23.5115C307.158 22.4357 307.789 22.0359 308.523 21.5705C309.107 21.2006 309.755 20.7893 310.202 19.9646C310.443 19.5203 310.569 19.0228 310.568 18.5174C310.568 18.2036 310.52 17.8916 310.425 17.5926Z" fill="url(#paint1_linear_24_322)"/>
<g clip-path="url(#clip2_24_322)">
<path d="M347.681 0.00672759C347.628 0.0116145 347.457 0.0287185 347.303 0.0409357C343.752 0.361025 340.426 2.27668 338.319 5.22101C337.146 6.85812 336.396 8.71513 336.112 10.6821C336.012 11.3687 336 11.5715 336 12.5024C336 13.4334 336.012 13.6362 336.112 14.3228C336.792 19.0166 340.132 22.9603 344.663 24.4215C345.475 24.683 346.33 24.8613 347.303 24.9688C347.681 25.0104 349.319 25.0104 349.697 24.9688C351.376 24.7831 352.799 24.3678 354.201 23.6518C354.416 23.5419 354.458 23.5126 354.429 23.4881C354.409 23.4735 353.493 22.2444 352.393 20.7588L350.394 18.0588L347.889 14.3521C346.511 12.3143 345.377 10.6479 345.367 10.6479C345.357 10.6454 345.348 12.2923 345.343 14.3033C345.335 17.8242 345.333 17.966 345.289 18.049C345.225 18.1688 345.176 18.2176 345.074 18.2714C344.996 18.3105 344.927 18.3178 344.558 18.3178H344.135L344.023 18.247C343.95 18.2005 343.896 18.1394 343.859 18.0686L343.808 17.9586L343.813 13.0596L343.82 8.15802L343.896 8.06273C343.935 8.01142 344.018 7.94544 344.077 7.91368C344.177 7.86481 344.216 7.85992 344.639 7.85992C345.137 7.85992 345.22 7.87947 345.35 8.02119C345.387 8.06028 346.743 10.103 348.366 12.5635C349.988 15.0241 352.207 18.3838 353.297 20.0331L355.277 23.0312L355.377 22.9652C356.264 22.3886 357.202 21.5676 357.945 20.7124C359.526 18.8969 360.545 16.6832 360.888 14.3228C360.988 13.6362 361 13.4334 361 12.5024C361 11.5715 360.988 11.3687 360.888 10.6821C360.208 5.98825 356.868 2.04455 352.337 0.583378C351.538 0.324374 350.687 0.146003 349.734 0.0384922C349.5 0.0140579 347.884 -0.0128199 347.681 0.00672759ZM352.799 7.56671C352.916 7.62535 353.011 7.73775 353.045 7.85504C353.065 7.91857 353.07 9.27711 353.065 12.3387L353.058 16.732L352.283 15.5445L351.506 14.357V11.1634C351.506 9.09874 351.516 7.93811 351.53 7.88191C351.569 7.74508 351.655 7.63757 351.772 7.57404C351.872 7.52273 351.909 7.51784 352.293 7.51784C352.654 7.51784 352.718 7.52273 352.799 7.56671Z" fill="black"/>
</g>
<g clip-path="url(#clip3_24_322)">
<path fill-rule="evenodd" clip-rule="evenodd" d="M393 7.10693C389.001 7.10693 386.501 9.09505 385.5 13.0713C387.001 11.084 388.75 10.3385 390.749 10.835C391.892 11.1182 392.702 11.9409 393.61 12.8516C395.075 14.3359 396.784 16.0522 400.5 16.0522C404.499 16.0522 406.999 14.0641 408 10.0879C406.501 12.0768 404.751 12.8223 402.751 12.3242C401.608 12.041 400.798 11.2183 399.89 10.3076C398.42 8.81592 396.718 7.10693 393 7.10693ZM385.5 16.0522C381.501 16.0522 379.001 18.0404 378 22.0166C379.502 20.0293 381.252 19.2839 383.249 19.7803C384.392 20.0635 385.202 20.8862 386.11 21.7993C387.575 23.2813 389.284 25 393 25C396.999 25 399.499 23.0119 400.5 19.0356C399.001 21.0229 397.251 21.7668 395.251 21.2671C394.108 20.9839 393.298 20.1611 392.39 19.2505C390.925 17.7661 389.216 16.0474 385.5 16.0474V16.0522Z" fill="#06B6D4"/>
</g>
<g clip-path="url(#clip4_24_322)">
<path fill-rule="evenodd" clip-rule="evenodd" d="M450 12.5034C450 10.6438 447.927 8.88239 444.747 7.78808C445.481 4.14877 445.154 1.25423 443.717 0.326693C443.386 0.109659 442.999 0.0068537 442.576 0.0068537V1.28393C442.81 1.28393 442.999 1.33647 443.158 1.43242C443.852 1.87791 444.151 3.57763 443.917 5.76396C443.86 6.30083 443.768 6.8674 443.656 7.4454C442.657 7.17125 441.567 6.95879 440.422 6.82171C439.734 5.76396 439.02 4.80216 438.302 3.96144C439.962 2.22517 441.52 1.27707 442.58 1.27707V0C441.178 0 439.345 1.12172 437.49 3.06817C435.634 1.13314 433.801 0.0228457 432.399 0.0228457V1.29992C433.453 1.29992 435.018 2.24344 436.68 3.96601C435.966 4.80673 435.254 5.76167 434.576 6.82171C433.425 6.95879 432.334 7.17125 431.335 7.44997C431.217 6.87883 431.132 6.32368 431.071 5.79137C430.831 3.60504 431.128 1.90533 431.816 1.45298C431.968 1.35018 432.168 1.30449 432.402 1.30449V0.0296993C431.974 0.0296993 431.586 0.132505 431.25 0.349539C429.818 1.27707 429.496 4.16705 430.237 7.79494C427.063 8.89153 425 10.6484 425 12.5034C425 14.3631 427.073 16.1245 430.253 17.2188C429.519 20.8581 429.846 23.7526 431.283 24.6802C431.614 24.8972 432.001 25 432.43 25C433.832 25 435.665 23.8783 437.52 21.9318C439.376 23.8669 441.209 24.9772 442.611 24.9772C443.038 24.9772 443.427 24.8743 443.762 24.6573C445.194 23.7298 445.516 20.8398 444.775 17.2119C447.937 16.1199 450 14.3562 450 12.5034ZM439.823 12.5034C439.823 11.0596 438.782 9.8876 437.494 9.8876C436.208 9.8876 435.164 11.0573 435.164 12.5034C435.164 13.9496 436.206 15.1193 437.494 15.1193C438.782 15.117 439.823 13.9473 439.823 12.5034ZM443.365 8.68592C443.176 9.42383 442.942 10.1846 442.678 10.9454C442.468 10.4884 442.251 10.0292 442.01 9.57233C441.777 9.11542 441.526 8.66764 441.276 8.23357C442 8.35466 442.698 8.50315 443.365 8.68592ZM441.032 14.7811C440.635 15.5533 440.226 16.2867 439.803 16.9675C439.044 17.0429 438.275 17.0817 437.5 17.0817C436.731 17.0817 435.962 17.0406 435.207 16.972C434.784 16.2912 434.371 15.5647 433.974 14.7971C433.588 14.0478 433.236 13.287 432.914 12.5194C433.23 11.7518 433.588 10.9865 433.968 10.2371C434.365 9.46495 434.774 8.73161 435.197 8.05081C435.956 7.97542 436.725 7.93658 437.5 7.93658C438.269 7.93658 439.038 7.9777 439.793 8.04624C440.216 8.72704 440.629 9.45353 441.026 10.2211C441.412 10.9705 441.764 11.7312 442.086 12.4989C441.764 13.2642 441.414 14.0295 441.032 14.7811ZM442.678 14.0364C442.952 14.804 443.186 15.5693 443.382 16.3141C442.714 16.4968 442.01 16.6522 441.282 16.771C441.532 16.3301 441.781 15.8777 442.017 15.414C442.249 14.9571 442.468 14.4933 442.678 14.0364ZM437.51 20.1407C437.036 19.5924 436.562 18.9802 436.094 18.3108C436.552 18.3336 437.022 18.3519 437.496 18.3519C437.974 18.3519 438.448 18.3405 438.912 18.3108C438.452 18.9802 437.978 19.5924 437.51 20.1407ZM433.72 16.771C432.996 16.6499 432.298 16.5014 431.63 16.3187C431.82 15.5807 432.054 14.82 432.318 14.0592C432.528 14.5161 432.745 14.9753 432.985 15.4322C433.226 15.8914 433.47 16.3369 433.72 16.771ZM437.484 4.86384C437.958 5.41214 438.432 6.0244 438.9 6.69378C438.442 6.67093 437.972 6.65265 437.498 6.65265C437.02 6.65265 436.546 6.66408 436.082 6.69378C436.542 6.0244 437.016 5.41214 437.484 4.86384ZM433.714 8.23357C433.464 8.67449 433.215 9.12684 432.979 9.59061C432.745 10.0475 432.526 10.5067 432.316 10.9636C432.041 10.196 431.807 9.43069 431.612 8.68592C432.281 8.50772 432.985 8.35466 433.714 8.23357ZM429.102 15.398C427.297 14.5344 426.131 13.4013 426.131 12.5034C426.131 11.6056 427.299 10.4656 429.102 9.60888C429.539 9.39642 430.019 9.20908 430.514 9.03089C430.804 10.1526 431.187 11.32 431.661 12.5148C431.193 13.7051 430.815 14.8657 430.53 15.9828C430.025 15.8046 429.545 15.6104 429.102 15.398ZM431.844 23.5744C431.15 23.1289 430.851 21.4292 431.085 19.2429C431.142 18.706 431.234 18.1395 431.346 17.5615C432.345 17.8356 433.435 18.0481 434.58 18.1851C435.268 19.2429 435.982 20.2047 436.7 21.0454C435.038 22.7794 433.48 23.7298 432.42 23.7298C432.19 23.7229 431.997 23.6727 431.844 23.5744ZM443.931 19.2155C444.171 21.4018 443.874 23.1015 443.186 23.5539C443.034 23.6567 442.834 23.7024 442.601 23.7024C441.547 23.7024 439.982 22.7588 438.32 21.0363C439.034 20.1956 439.746 19.2406 440.424 18.1806C441.575 18.0435 442.666 17.831 443.665 17.55C443.783 18.128 443.874 18.6832 443.931 19.2155ZM445.892 15.398C445.455 15.6104 444.975 15.7978 444.48 15.976C444.189 14.8542 443.807 13.6868 443.333 12.492C443.801 11.3017 444.179 10.1412 444.464 9.02403C444.969 9.20223 445.447 9.39642 445.896 9.6066C447.701 10.4702 448.867 11.6033 448.867 12.5011C448.863 13.4013 447.697 14.539 445.892 15.398Z" fill="#00D8FF"/>
</g>
<g clip-path="url(#clip5_24_322)">
<path fill-rule="evenodd" clip-rule="evenodd" d="M491.9 11.6813C491.721 11.4198 489.434 7.21203 489.048 6.51668C488.633 5.82132 488.454 5.95207 488.185 5.99665C487.919 6.04122 485.036 6.77818 484.708 6.81978C484.381 6.90596 484.173 7.08128 484.381 7.51513C484.56 7.90441 486.46 11.8121 486.877 12.7243L479.301 15.372L473.299 0.656698C473.061 0.136669 473.002 -0.0386545 472.467 0.00591938C471.932 0.0504933 467.743 0.570522 467.446 0.570522C467.146 0.615096 466.821 0.787448 467.118 1.83048C467.415 2.87053 472.17 17.7998 472.288 18.2337C472.406 18.6675 472.764 19.3629 473.565 19.1014C474.397 18.7983 477.25 17.7136 478.825 17.1045C479.657 19.2737 481.321 23.7014 481.648 24.3522C482.063 25.2199 482.363 25.0475 482.985 24.786C483.49 24.5691 490.771 20.7506 491.097 20.5337C491.424 20.3167 491.632 20.186 491.394 19.7076C491.215 19.3599 489.314 15.583 488.303 13.6307C488.987 13.3692 491.453 12.4153 491.721 12.2845C492.018 12.1597 492.077 11.9428 491.9 11.6813ZM478.141 15.8059C478.051 15.8504 473.803 17.3244 473.594 17.4105C473.356 17.4967 473.356 17.4551 473.356 17.3244C473.299 17.1936 468.306 2.089 468.217 1.91665C468.158 1.7443 468.158 1.56898 468.217 1.56898C468.276 1.56898 472.229 1.04895 472.347 1.04895C472.495 1.04895 472.465 1.09352 472.526 1.2213C472.526 1.2213 478.082 15.2413 478.171 15.4582C478.289 15.6751 478.23 15.7613 478.141 15.8059ZM490.088 19.0598C490.147 19.2321 490.236 19.3213 489.998 19.4074C489.791 19.5382 482.837 22.9674 482.688 23.0536C482.54 23.1398 482.45 23.1843 482.273 22.7921C482.094 22.4028 479.836 16.7152 479.836 16.7152L487.235 13.8951C487.414 13.809 487.473 13.7644 487.591 14.0259C487.709 14.329 490.029 18.929 490.088 19.0598ZM490.562 11.4198C490.383 11.4644 487.679 12.4628 487.679 12.4628L485.451 8.03516C485.392 7.90441 485.333 7.77366 485.481 7.73206C485.63 7.68748 488.157 7.03671 488.275 6.9951C488.393 6.95053 488.482 6.90893 488.631 7.21203C488.779 7.47353 490.682 11.0305 490.771 11.1613C490.859 11.292 490.741 11.3782 490.562 11.4198Z" fill="#FB503B"/>
</g>
<g clip-path="url(#clip6_24_322)">
<rect width="25" height="25" transform="translate(509)" fill="#323330"/>
<path fill-rule="evenodd" clip-rule="evenodd" d="M509 0H534V25H509V0ZM528.111 20.9579C526.952 20.9579 526.297 20.3535 525.794 19.5314L523.884 20.6405C524.574 22.0031 525.984 23.0428 528.166 23.0428C530.397 23.0428 532.058 21.8842 532.058 19.7691C532.058 17.8072 530.931 16.9345 528.935 16.0785L528.348 15.827C527.34 15.3905 526.904 15.1052 526.904 14.4004C526.904 13.8302 527.34 13.3936 528.028 13.3936C528.702 13.3936 529.137 13.6781 529.54 14.4004L531.369 13.2258C530.595 11.8647 529.521 11.3448 528.028 11.3448C525.93 11.3448 524.587 12.6861 524.587 14.448C524.587 16.3607 525.713 17.2655 527.409 17.9877L527.996 18.2397C529.067 18.7083 529.706 18.9936 529.706 19.7992C529.706 20.4715 529.084 20.9579 528.111 20.9579ZM519.007 20.9432C518.2 20.9432 517.864 20.3897 517.495 19.7349L515.583 20.8927C516.136 22.0651 517.226 23.0385 519.107 23.0385C521.188 23.0385 522.615 21.9314 522.615 19.4989V11.479H520.266V19.4671C520.266 20.6412 519.779 20.9432 519.007 20.9432Z" fill="#F0DB4F"/>
</g>
<path fill-rule="evenodd" clip-rule="evenodd" d="M556.193 2.08331C554.766 2.08331 553.711 3.33183 553.758 4.68585C553.803 5.9867 553.744 7.67145 553.32 9.04539C552.895 10.4233 552.175 11.2962 551 11.4083V12.6735C552.175 12.7856 552.895 13.6585 553.32 15.0365C553.744 16.4104 553.803 18.0952 553.758 19.396C553.711 20.7499 554.766 21.9985 556.193 21.9985H570.809C572.236 21.9985 573.291 20.7501 573.244 19.396C573.199 18.0952 573.257 16.4104 573.682 15.0365C574.107 13.6585 574.825 12.7856 576 12.6735V11.4083C574.825 11.2962 574.107 10.4233 573.682 9.04539C573.257 7.67166 573.199 5.9867 573.244 4.68585C573.291 3.33204 572.236 2.08331 570.809 2.08331H556.193ZM567.949 14.3424C567.949 16.2069 566.558 17.3376 564.251 17.3376H560.322C560.21 17.3376 560.102 17.2929 560.022 17.2134C559.943 17.1339 559.898 17.0262 559.898 16.9138V7.16806C559.898 7.05568 559.943 6.94791 560.022 6.86844C560.102 6.78897 560.21 6.74433 560.322 6.74433H564.228C566.152 6.74433 567.415 7.7867 567.415 9.38713C567.415 10.5104 566.566 11.5161 565.483 11.6922V11.7509C566.957 11.9126 567.949 12.9329 567.949 14.3424ZM563.822 8.08755H561.582V11.2515H563.469C564.927 11.2515 565.732 10.6643 565.732 9.61446C565.732 8.63077 565.04 8.08755 563.822 8.08755ZM561.582 12.5071V15.9939H563.905C565.423 15.9939 566.227 15.3846 566.227 14.2395C566.227 13.0941 565.401 12.5069 563.807 12.5069L561.582 12.5071Z" fill="#712CF9"/>
<g clip-path="url(#clip7_24_322)">
<path d="M616.772 11.4555L606.541 1.22577C606.268 0.953113 605.891 0.784363 605.473 0.784363C605.056 0.784363 604.679 0.953113 604.405 1.22577L602.286 3.34921L604.98 6.04374C605.152 5.98358 605.35 5.94921 605.556 5.94921C606.548 5.94921 607.351 6.75233 607.351 7.74374C607.351 7.95389 607.315 8.15468 607.248 8.34218L607.252 8.32968L609.848 10.9266C610.021 10.8648 610.222 10.8289 610.43 10.8289C611.421 10.8289 612.224 11.632 612.224 12.6226C612.224 13.6133 611.421 14.4164 610.43 14.4164C609.44 14.4164 608.637 13.6133 608.637 12.6226C608.637 12.3781 608.686 12.1453 608.774 11.9328L608.77 11.9445L606.34 9.52733V15.8976C606.937 16.1984 607.339 16.8062 607.339 17.5078C607.339 18.5 606.534 19.3047 605.542 19.3047C604.55 19.3047 603.745 18.5 603.745 17.5078C603.745 17.0125 603.945 16.5648 604.27 16.2398C604.434 16.075 604.63 15.9414 604.848 15.8476L604.86 15.843V9.41014C604.202 9.13358 603.749 8.49374 603.749 7.74921C603.749 7.49921 603.8 7.26171 603.892 7.0453L603.888 7.05702L601.24 4.39686L594.224 11.4078C593.952 11.682 593.785 12.0594 593.785 12.4766C593.785 12.8937 593.953 13.2711 594.225 13.5453L604.456 23.7734C604.729 24.0469 605.106 24.2156 605.523 24.2156C605.941 24.2156 606.317 24.0469 606.591 23.7734L616.773 13.5906C617.047 13.318 617.216 12.9398 617.216 12.5234C617.216 12.107 617.047 11.7289 616.773 11.4562L616.772 11.4555Z" fill="#F1502F"/>
</g>
<path fill-rule="evenodd" clip-rule="evenodd" d="M647.5 12.5C647.5 10.7741 648.899 9.375 650.625 9.375C652.351 9.375 653.75 10.7741 653.75 12.5C653.75 14.2259 652.351 15.625 650.625 15.625C648.899 15.625 647.5 14.2259 647.5 12.5Z" fill="#1ABCFE"/>
<path fill-rule="evenodd" clip-rule="evenodd" d="M641.25 18.75C641.25 17.0241 642.649 15.625 644.375 15.625H647.5V18.75C647.5 20.4759 646.101 21.875 644.375 21.875C642.649 21.875 641.25 20.4759 641.25 18.75Z" fill="#0ACF83"/>
<path fill-rule="evenodd" clip-rule="evenodd" d="M647.5 3.125V9.375H650.625C652.351 9.375 653.75 7.97586 653.75 6.25C653.75 4.52411 652.351 3.125 650.625 3.125H647.5Z" fill="#FF7262"/>
<path fill-rule="evenodd" clip-rule="evenodd" d="M641.25 6.25C641.25 7.97586 642.649 9.375 644.375 9.375H647.5V3.125H644.375C642.649 3.125 641.25 4.52411 641.25 6.25Z" fill="#F24E1E"/>
<path fill-rule="evenodd" clip-rule="evenodd" d="M641.25 12.5C641.25 14.2259 642.649 15.625 644.375 15.625H647.5V9.375H644.375C642.649 9.375 641.25 10.7741 641.25 12.5Z" fill="#A259FF"/>
<defs>
<linearGradient id="paint0_linear_24_322" x1="311.246" y1="0.529563" x2="306.48" y2="16.9317" gradientUnits="userSpaceOnUse">
<stop stop-color="#000014"/>
<stop offset="1" stop-color="#150426"/>
</linearGradient>
<linearGradient id="paint1_linear_24_322" x1="313.564" y1="12.7432" x2="309.436" y2="21.385" gradientUnits="userSpaceOnUse">
<stop stop-color="#FF1639"/>
<stop offset="1" stop-color="#FF1639" stop-opacity="0"/>
</linearGradient>
<clipPath id="clip0_24_322">
<rect width="25" height="25" fill="white"/>
</clipPath>
<clipPath id="clip1_24_322">
<rect width="25" height="25" fill="white" transform="translate(126)"/>
</clipPath>
<clipPath id="clip2_24_322">
<rect width="25" height="25" fill="white" transform="translate(336)"/>
</clipPath>
<clipPath id="clip3_24_322">
<rect width="30" height="17.8931" fill="white" transform="translate(378 7.10693)"/>
</clipPath>
<clipPath id="clip4_24_322">
<rect width="25" height="25" fill="white" transform="translate(425)"/>
</clipPath>
<clipPath id="clip5_24_322">
<rect width="25" height="25" fill="white" transform="translate(467)"/>
</clipPath>
<clipPath id="clip6_24_322">
<rect width="25" height="25" fill="white" transform="translate(509)"/>
</clipPath>
<clipPath id="clip7_24_322">
<rect width="25" height="25" fill="white" transform="translate(593)"/>
</clipPath>
</defs>
</svg>
