<svg width="25" height="25" viewBox="0 0 25 25" fill="none" xmlns="http://www.w3.org/2000/svg">
<g clip-path="url(#clip0_27_395)">
<rect width="25" height="25" fill="#323330"/>
<path fill-rule="evenodd" clip-rule="evenodd" d="M0 0H25V25H0V0ZM19.1111 20.9579C17.9524 20.9579 17.2972 20.3535 16.7936 19.5314L14.8845 20.6405C15.5742 22.0031 16.9837 23.0428 19.1655 23.0428C21.3968 23.0428 23.0583 21.8842 23.0583 19.7691C23.0583 17.8072 21.9314 16.9345 19.9353 16.0785L19.348 15.827C18.3401 15.3905 17.9035 15.1052 17.9035 14.4004C17.9035 13.8302 18.3397 13.3936 19.0278 13.3936C19.7024 13.3936 20.1369 13.6781 20.5397 14.4004L22.3691 13.2258C21.5952 11.8647 20.5215 11.3448 19.0278 11.3448C16.9298 11.3448 15.5873 12.6861 15.5873 14.448C15.5873 16.3607 16.7134 17.2655 18.4087 17.9877L18.996 18.2397C20.0675 18.7083 20.7064 18.9936 20.7064 19.7992C20.7064 20.4715 20.0845 20.9579 19.1111 20.9579ZM10.0067 20.9432C9.19959 20.9432 8.86388 20.3897 8.49483 19.7349L6.58253 20.8927C7.1365 22.0651 8.22579 23.0385 10.1067 23.0385C12.1884 23.0385 13.6147 21.9314 13.6147 19.4989V11.479H11.2655V19.4671C11.2655 20.6412 10.7785 20.9432 10.0067 20.9432Z" fill="#F0DB4F"/>
</g>
<defs>
<clipPath id="clip0_27_395">
<rect width="25" height="25" fill="white"/>
</clipPath>
</defs>
</svg>
