<svg width="25" height="25" viewBox="0 0 25 25" fill="none" xmlns="http://www.w3.org/2000/svg">
<path d="M23.4578 11.8273C23.3937 11.8227 23.3195 11.8195 23.2445 11.8195C22.8664 11.8195 22.5047 11.8898 22.1719 12.018L22.1922 12.0109C22.0945 12.05 21.9383 12.05 21.925 12.1742C21.9789 12.2258 21.9867 12.3109 22.032 12.3828C22.1234 12.5375 22.2359 12.6687 22.3672 12.7781L22.3695 12.7805C22.5063 12.8875 22.643 12.9914 22.7867 13.0828C23.0406 13.2391 23.3289 13.332 23.5773 13.4891C23.7188 13.5805 23.8633 13.6969 24.007 13.7945C24.0781 13.843 24.1242 13.9312 24.2156 13.9625V13.943C24.1711 13.8844 24.157 13.7992 24.1133 13.7344C24.0477 13.6687 23.9828 13.6102 23.918 13.5461C23.7242 13.2922 23.5 13.075 23.2484 12.8937L23.2391 12.8875C23.0305 12.7453 22.5734 12.5461 22.4875 12.3062L22.475 12.2922C22.6453 12.268 22.7969 12.232 22.943 12.1836L22.9242 12.1891C23.1461 12.1305 23.3492 12.143 23.5781 12.0859C23.6813 12.0594 23.7859 12.0273 23.8906 11.9945V11.9359C23.7734 11.8187 23.6859 11.6594 23.5648 11.55C23.2453 11.2687 22.893 11.0047 22.5219 10.7672L22.4867 10.7461C22.282 10.6156 22.0219 10.5312 21.8063 10.4203C21.7281 10.3812 21.5977 10.3617 21.5523 10.2961C21.4508 10.1516 21.3609 9.98593 21.2898 9.81093L21.2836 9.79374C21.0919 9.42187 20.9138 9.04348 20.7492 8.65859C20.6367 8.35937 20.525 8.11406 20.3992 7.87656L20.4172 7.91328C19.8031 6.88281 18.9477 6.05468 17.9266 5.48984L17.893 5.47265C17.6516 5.35312 17.3711 5.26015 17.0766 5.20781L17.057 5.20468C16.8938 5.19687 16.7313 5.18515 16.5688 5.17812C16.4547 5.10468 16.3563 5.02968 16.2641 4.94687L16.2664 4.94921C15.8953 4.71484 14.9352 4.20703 14.6617 4.8789C14.4859 5.30234 14.9227 5.72031 15.0734 5.93515C15.1938 6.07812 15.3031 6.23828 15.3977 6.40781L15.4055 6.42343C15.4516 6.53671 15.4641 6.65312 15.5102 6.77109C15.6234 7.12421 15.7383 7.41406 15.8688 7.69453L15.8484 7.64609C15.9258 7.80156 16.0063 7.93359 16.0961 8.05859L16.0898 8.04921C16.1422 8.12031 16.232 8.1539 16.2531 8.27109C16.1859 8.41249 16.1336 8.57656 16.1047 8.74765L16.1031 8.75859C16.0188 9.01796 15.9695 9.31718 15.9695 9.62734C15.9695 10.1125 16.0891 10.5695 16.3 10.9711L16.2922 10.9555C16.3969 11.1172 16.6453 11.4766 16.9781 11.3391C17.2711 11.2219 17.2063 10.8508 17.2906 10.5242C17.3102 10.4461 17.2977 10.3945 17.3375 10.3414V10.3562C17.4289 10.5398 17.5211 10.7148 17.6047 10.8984C17.8406 11.2383 18.1211 11.5273 18.4414 11.7656L18.4516 11.7727C18.6078 11.8898 18.732 12.093 18.9273 12.1648V12.1453H18.9125C18.868 12.0969 18.8188 12.0539 18.7648 12.0172L18.7617 12.0156C18.6406 11.8969 18.5281 11.7687 18.4266 11.6336L18.4203 11.625C18.1656 11.2812 17.9234 10.8922 17.7133 10.4836L17.6906 10.4359C17.5836 10.2312 17.4937 10.0102 17.4078 9.80781C17.3687 9.72968 17.3688 9.61249 17.3031 9.57343C17.1875 9.70312 17.0836 9.84765 16.9969 10.0031L16.9906 10.0156C16.8906 10.307 16.825 10.6437 16.8078 10.993V11.0016C16.7813 11.0086 16.7945 11.0016 16.7812 11.0156C16.5727 10.9648 16.5008 10.7484 16.4227 10.5664C16.3164 10.2805 16.2547 9.94921 16.2547 9.60468C16.2547 9.32656 16.2945 9.05781 16.3695 8.8039L16.3648 8.82421C16.4109 8.68749 16.6063 8.25624 16.5281 8.12499C16.4875 8.00078 16.3586 7.92968 16.2867 7.8289C16.2016 7.70859 16.1234 7.57187 16.0586 7.42734L16.0523 7.41171C15.8961 7.04687 15.818 6.64218 15.6484 6.27734C15.5461 6.08671 15.4383 5.92265 15.3172 5.76953L15.3227 5.77656C15.1938 5.62734 15.075 5.46093 14.9719 5.28437L14.9633 5.26874C14.9313 5.19765 14.8852 5.07968 14.9367 5.00156C14.9461 4.95624 14.982 4.92109 15.0281 4.91406C15.1141 4.84374 15.3563 4.93515 15.4406 4.97421C15.6883 5.06796 15.9016 5.17812 16.0992 5.30781L16.0867 5.29999C16.1781 5.36406 16.2773 5.48828 16.3945 5.52031H16.5313C16.7398 5.5664 16.9758 5.53437 17.1711 5.5914C17.5297 5.71249 17.8398 5.86406 18.1266 6.04999L18.1102 6.03984C18.9727 6.59687 19.6633 7.34999 20.1305 8.23984L20.1461 8.27187C20.2242 8.42187 20.2586 8.56015 20.3297 8.7164C20.4664 9.03828 20.6352 9.36406 20.7742 9.67499C20.9062 10.0094 21.0625 10.2984 21.2484 10.5648L21.2391 10.5508C21.3367 10.6875 21.7289 10.7586 21.9047 10.8297C22.0898 10.8945 22.2383 10.9562 22.382 11.0258L22.3531 11.0133C22.5773 11.15 22.7961 11.3062 23.007 11.4562C23.1141 11.5305 23.4398 11.6937 23.4594 11.825L23.4578 11.8273ZM14.2984 17.5406C14.2984 17.5523 14.2992 17.5656 14.2992 17.5789C14.2992 18.0148 14.1047 18.4047 13.7969 18.6672L13.7945 18.6687C13.457 18.9437 13.0219 19.1109 12.5477 19.1109C12.5109 19.1109 12.4742 19.1102 12.4383 19.1078H12.443C11.8656 19.1 11.3344 18.9125 10.8992 18.5992L10.907 18.6047L11.1383 18.1398C11.4734 18.3273 11.8719 18.4437 12.2953 18.4601H12.3C12.3211 18.4617 12.3453 18.4625 12.3703 18.4625C12.6297 18.4625 12.8711 18.3812 13.0688 18.243L13.0648 18.2453C13.2437 18.1094 13.3578 17.8969 13.3578 17.6578C13.3578 17.6531 13.3578 17.6492 13.3578 17.6445V17.6453C13.3578 17.3234 13.1336 17.05 12.725 16.8203C12.3461 16.6125 11.5898 16.1789 11.5898 16.1789C11.2164 15.9476 10.9719 15.5406 10.9719 15.0766C10.9719 15.0602 10.9719 15.0437 10.9727 15.0273V15.0297C10.9719 15.0148 10.9719 14.9977 10.9719 14.9805C10.9719 14.5781 11.1492 14.2172 11.4297 13.9719L11.4312 13.9703C11.7297 13.7172 12.1195 13.5633 12.5453 13.5633C12.5727 13.5633 12.5992 13.5641 12.6258 13.5648H12.6219C12.6289 13.5648 12.6375 13.5648 12.6461 13.5648C13.1453 13.5648 13.6102 13.7141 13.9977 13.9711L13.9883 13.9656L13.7805 14.4305C13.475 14.293 13.1188 14.2102 12.7438 14.2062H12.7422C12.7234 14.2047 12.7023 14.2039 12.6805 14.2039C12.4617 14.2039 12.2602 14.2805 12.1023 14.4086L12.1039 14.407C11.9563 14.5297 11.8625 14.7133 11.8617 14.9187C11.8617 15.2391 12.0898 15.5141 12.5117 15.7484C12.8953 15.9586 13.6703 16.4023 13.6703 16.4023C14.0516 16.6266 14.3039 17.0344 14.3039 17.5016C14.3039 17.5156 14.3039 17.5305 14.3031 17.5445V17.5422L14.2984 17.5406ZM15.9172 17.9555C15.7039 17.5297 15.5797 17.0281 15.5797 16.4977C15.5797 16.4141 15.5828 16.3312 15.5891 16.25L15.5883 16.2609C15.5883 14.901 16.0016 14.2208 16.8281 14.2203C16.8484 14.2187 16.8727 14.218 16.8977 14.218C17.2688 14.218 17.5945 14.4117 17.7797 14.7039L17.782 14.7078C17.9937 15.1312 18.118 15.6312 18.118 16.1594C18.118 16.2406 18.1148 16.3211 18.1094 16.4008L18.1102 16.3898C18.1102 17.7607 17.6969 18.4466 16.8703 18.4477C16.8492 18.4492 16.825 18.45 16.8008 18.45C16.4297 18.45 16.1031 18.2562 15.918 17.9641L15.9156 17.9602L15.9172 17.9555ZM19.1313 19.168L18.1391 18.6797C18.2297 18.6039 18.3109 18.5242 18.3859 18.4383L18.3883 18.4359C18.7891 17.8953 19.0297 17.2148 19.0297 16.4789C19.0297 16.3937 19.0266 16.3094 19.0203 16.2258L19.0211 16.2367C19.0211 14.4503 18.3198 13.5565 16.9172 13.5555C16.8859 13.5539 16.8492 13.5531 16.8125 13.5531C16.2133 13.5531 15.675 13.8164 15.3086 14.2344L15.307 14.2367C14.9078 14.7773 14.668 15.457 14.668 16.193C14.668 16.2758 14.6711 16.3578 14.6773 16.4391L14.6766 16.4281C14.6695 16.507 14.6656 16.5992 14.6656 16.6922C14.6656 17.375 14.8797 18.0078 15.2437 18.5273L15.2367 18.5172C15.5875 18.8906 16.0852 19.1234 16.6359 19.1234C16.6875 19.1234 16.7383 19.1211 16.7883 19.1172L16.7812 19.118C16.7883 19.118 16.7977 19.118 16.8062 19.118C17.0492 19.118 17.2844 19.0828 17.507 19.018L17.4898 19.0227L18.7836 19.7766L19.1352 19.1695L19.1313 19.168ZM22.3719 19.0359H19.8039V13.6375H20.668V18.3727H22.3719V19.0359ZM10.3398 15.0531C10.1156 16.6812 9.60234 18.1508 8.85156 19.4672L8.88281 19.407C8.58203 19.9859 8.01328 20.3891 7.34531 20.4539L7.3375 20.4547C7.13516 20.4437 6.94688 20.3953 6.77578 20.3164L6.78516 20.3203V19.8383C6.89219 19.8547 7.01562 19.8641 7.14141 19.8641C7.14844 19.8641 7.15547 19.8641 7.16328 19.8641C7.17578 19.8648 7.18906 19.8648 7.20312 19.8648C7.42891 19.8648 7.63594 19.7828 7.79531 19.6461L7.79375 19.6469C7.96562 19.5055 8.07578 19.2945 8.08203 19.057C8.04063 18.7148 7.96172 18.4023 7.84844 18.1078L7.85781 18.1344L6.86797 15.0531H7.75625L8.46641 17.357C8.59297 17.682 8.66641 18.0586 8.66641 18.4516C8.66641 18.4523 8.66641 18.4531 8.66641 18.4531C9.04297 17.4672 9.32891 16.3172 9.47422 15.1242L9.48125 15.0523L10.3398 15.0531ZM6.41797 19.0359H5.51328C5.48776 17.5979 5.4 16.1628 5.25 14.7305H5.24219L3.86562 19.0359H3.17734L1.81016 14.7305H1.80078C1.69401 16.1633 1.63047 17.5984 1.61016 19.0359H0.785156C0.838802 17.1167 0.972135 15.3169 1.18516 13.6367H2.30781L3.61094 17.6047H3.61875L4.93359 13.6367H6.00234C6.2388 15.6039 6.37813 17.4036 6.42031 19.0359H6.41797ZM16.8008 6.15546C16.7992 6.15546 16.7969 6.15546 16.7945 6.15546C16.7016 6.15546 16.6117 6.16718 16.5258 6.18906L16.5336 6.18749V6.19999H16.5469C16.6141 6.29999 16.6828 6.38671 16.757 6.46796L16.7555 6.4664C16.8078 6.57109 16.8531 6.67499 16.9055 6.7789L16.9188 6.76406C17.0039 6.69687 17.0578 6.59374 17.0578 6.47812C17.0578 6.46406 17.057 6.45078 17.0555 6.43671V6.43828C17.0164 6.39218 17.0109 6.34687 16.9773 6.30156C16.9383 6.23593 16.8547 6.2039 16.8016 6.15234L16.8008 6.15546Z" fill="#00758F"/>
</svg>
