<svg width="25" height="25" viewBox="0 0 25 25" fill="none" xmlns="http://www.w3.org/2000/svg">
<path d="M12.5 6.25417C12.4635 6.25417 12.4208 6.25417 12.3792 6.25417C10.7021 6.25417 9.06667 6.43646 7.49375 6.78229L7.64375 6.75417C6.14167 7.06979 4.8125 7.53646 3.57083 8.15312L3.66875 8.10937C2.61562 8.61667 1.72396 9.29583 0.991667 10.1198L0.984375 10.1281C0.389583 10.7781 0.01875 11.6417 0 12.5906V12.5948C0.0197917 13.5469 0.389583 14.4083 0.985417 15.0604L0.983333 15.0573C1.72292 15.8896 2.61458 16.5687 3.61771 17.0542L3.66771 17.076C4.81146 17.6479 6.14062 18.1156 7.53229 18.4115L7.64271 18.4312C9.06562 18.749 10.701 18.9312 12.3781 18.9312H12.5062H12.5H12.6208C14.2979 18.9312 15.9333 18.749 17.5062 18.4031L17.3563 18.4312C18.8583 18.1156 20.1875 17.649 21.4292 17.0323L21.3312 17.076C22.3844 16.5687 23.276 15.8896 24.0083 15.0656L24.0156 15.0573C24.6104 14.4073 24.9812 13.5437 25 12.5948V12.5906C24.9812 11.6375 24.6104 10.774 24.0135 10.1208L24.0156 10.124C23.276 9.29167 22.3844 8.6125 21.3812 8.12708L21.3312 8.10521C20.1875 7.53333 18.8583 7.06563 17.4667 6.76979L17.3563 6.75C15.9333 6.43229 14.2979 6.25 12.6208 6.25C12.5781 6.25 12.5354 6.25 12.4927 6.25H12.499L12.5 6.25417ZM9.25 13.8208C9.11354 13.9448 8.95833 14.051 8.78958 14.1344L8.77812 14.1396C8.63125 14.2104 8.45729 14.276 8.27604 14.326L8.25417 14.3312C8.075 14.3958 7.86771 14.4344 7.65104 14.4344C7.64271 14.4344 7.63437 14.4344 7.62604 14.4344H5.57292L5.23958 16.4792H3.73229L5.06562 9.52604H7.95417C7.97292 9.52604 7.99583 9.525 8.01875 9.525C8.39375 9.525 8.75417 9.59062 9.0875 9.71146L9.06563 9.70417C9.37292 9.81667 9.63437 9.99167 9.84479 10.2135L9.84583 10.2146C10.0281 10.4469 10.1583 10.7281 10.2146 11.0365L10.2167 11.0479C10.2427 11.2 10.2583 11.375 10.2583 11.5542C10.2583 11.7583 10.2385 11.9573 10.201 12.151L10.2042 12.1312C10.1667 12.3177 10.1177 12.4802 10.0562 12.6365L10.0635 12.6167C10.0038 12.7701 9.93993 12.9149 9.87187 13.051C9.78715 13.1872 9.6934 13.3236 9.59062 13.4604C9.49062 13.5948 9.38125 13.7125 9.26042 13.8177L9.25729 13.8198L9.25 13.8208ZM13.5958 14.4344L14.1844 11.4948C14.2094 11.3833 14.224 11.2562 14.224 11.125C14.224 11.0979 14.2229 11.0708 14.2219 11.0438V11.0479C14.2208 10.9344 14.1771 10.8312 14.1062 10.7531C14.0344 10.6906 13.949 10.6427 13.8552 10.6135L13.85 10.6125C13.7198 10.5708 13.5698 10.5479 13.4146 10.5479C13.3969 10.5479 13.3792 10.5479 13.3615 10.549H13.3635H12.1906L11.424 14.4344H9.94167L11.275 7.68437H12.7573L12.4 9.525H13.7333C13.7562 9.525 13.7823 9.52396 13.8094 9.52396C14.1542 9.52396 14.4896 9.56667 14.8104 9.64583L14.7823 9.63958C15.0417 9.69687 15.2677 9.81875 15.45 9.98542L15.449 9.98438C15.6115 10.1125 15.7271 10.2948 15.7677 10.5031L15.7687 10.5083C15.7833 10.601 15.7917 10.7073 15.7917 10.8156C15.7917 10.9927 15.7698 11.1646 15.7271 11.3281L15.7302 11.3135L15.1167 14.4323L13.5958 14.4344ZM21.8271 12.1594C21.7854 12.3479 21.7417 12.501 21.6896 12.6521L21.699 12.6198C21.6427 12.7854 21.574 12.9292 21.4896 13.0625L21.4948 13.0542C21.4229 13.2156 21.3375 13.3542 21.2365 13.4792L21.2396 13.475C21.1375 13.6021 21.0281 13.7146 20.9094 13.8177L20.9062 13.8208C20.7698 13.9448 20.6146 14.051 20.4458 14.1344L20.4344 14.1396C20.2875 14.2104 20.1135 14.276 19.9323 14.326L19.9104 14.3312C19.7312 14.3958 19.524 14.4344 19.3073 14.4344C19.299 14.4344 19.2906 14.4344 19.2823 14.4344H17.2292L16.8719 16.475H15.3896L16.7229 9.52187H19.5865C19.6094 9.52083 19.6354 9.52083 19.6625 9.52083C20.0427 9.52083 20.4083 9.58646 20.7469 9.70833L20.724 9.70104C21.0229 9.80937 21.275 9.98437 21.4719 10.2094L21.474 10.2115C21.6719 10.4427 21.8125 10.7292 21.8677 11.0438L21.8698 11.0542C21.8927 11.1906 21.9062 11.3469 21.9062 11.5073C21.9062 11.7375 21.8792 11.9604 21.8281 12.175L21.8323 12.1552L21.8271 12.1594ZM19.0146 10.5479H17.9958L17.4615 13.4115H18.3531H18.4073C18.6677 13.4115 18.924 13.3875 19.1719 13.3427L19.1458 13.3469C19.3583 13.3094 19.5479 13.2333 19.7146 13.126L19.7083 13.1292C19.85 13.0021 19.9688 12.8552 20.0615 12.6906L20.0656 12.6823C20.1729 12.4865 20.2531 12.2583 20.2937 12.0177L20.2958 12.0052C20.3281 11.8708 20.3458 11.7156 20.3458 11.5562C20.3458 11.4792 20.3417 11.4031 20.3333 11.3292L20.3344 11.3385C20.3198 11.174 20.2594 11.025 20.1667 10.9021L20.1677 10.9042C20.0469 10.7917 19.9021 10.7042 19.7417 10.651L19.7333 10.649C19.5396 10.5844 19.3177 10.5479 19.0865 10.5479C19.0625 10.5479 19.0385 10.5479 19.0156 10.549H19.0187L19.0146 10.5479ZM7.35833 10.5479H6.33958L5.80312 13.4115H6.69687H6.75104C7.01146 13.4115 7.26771 13.3875 7.51562 13.3427L7.48958 13.3469C7.70208 13.3094 7.89167 13.2333 8.05833 13.126L8.05208 13.1292C8.19375 13.0021 8.3125 12.8552 8.40521 12.6906L8.40937 12.6823C8.51667 12.4865 8.59687 12.2583 8.6375 12.0177L8.63958 12.0052C8.67187 11.8708 8.68958 11.7156 8.68958 11.5562C8.68958 11.4792 8.68542 11.4031 8.67708 11.3292L8.67813 11.3385C8.66354 11.174 8.60312 11.025 8.51042 10.9021L8.51146 10.9042C8.39062 10.7917 8.24583 10.7042 8.08542 10.651L8.07708 10.649C7.88333 10.5844 7.66146 10.5479 7.43021 10.5479C7.40625 10.5479 7.38229 10.5479 7.35938 10.549H7.3625L7.35833 10.5479Z" fill="#8993BE"/>
</svg>
