<svg width="98" height="34" viewBox="0 0 98 34" fill="none" xmlns="http://www.w3.org/2000/svg">
<path d="M6.45243 26.0745C6.01107 26.0745 5.61734 25.9796 5.27117 25.7897C4.92502 25.6069 4.65242 25.3503 4.45339 25.0199C4.26301 24.6894 4.1678 24.3133 4.1678 23.8913V20.7484C4.1678 20.1226 4.0856 19.6479 3.92117 19.3245C3.76541 18.994 3.48848 18.7585 3.0904 18.6179C2.85675 18.5053 2.68367 18.3823 2.57118 18.2487C2.46733 18.1081 2.41541 17.9218 2.41541 17.6897V17.4577C2.41541 17.2257 2.46733 17.0394 2.57118 16.8987C2.68367 16.7581 2.85675 16.6316 3.0904 16.5191C3.48848 16.3855 3.76541 16.1569 3.92117 15.8335C4.0856 15.503 4.1678 15.0284 4.1678 14.4097V11.2562C4.1678 10.8343 4.26301 10.4581 4.45339 10.1276C4.65242 9.79717 4.92502 9.54052 5.27117 9.35772C5.61734 9.17491 6.01107 9.0835 6.45243 9.0835H7.36107C7.60338 9.0835 7.77647 9.14326 7.88031 9.26279C7.99281 9.3753 8.04907 9.56162 8.04907 9.82178V10.0854C8.04907 10.3315 8.00146 10.5179 7.90627 10.6444C7.81108 10.771 7.65964 10.8378 7.45194 10.8448H7.49088C7.24859 10.8448 7.0755 10.8976 6.97166 11.003C6.87645 11.1015 6.82887 11.2702 6.82887 11.5093V14.705C6.82887 15.394 6.6904 15.9882 6.41347 16.4874C6.14522 16.9796 5.76011 17.3416 5.2582 17.5738C5.76876 17.8128 6.15819 18.1784 6.42647 18.6706C6.69474 19.1557 6.82887 19.7464 6.82887 20.4425V23.6382C6.82887 23.8702 6.87213 24.0389 6.95867 24.1445C7.04521 24.2499 7.18367 24.3026 7.37406 24.3026H7.40003C7.62502 24.3167 7.78944 24.3835 7.8933 24.503C7.99714 24.6226 8.04907 24.8089 8.04907 25.0621V25.3152C8.04907 25.5823 7.99281 25.7757 7.88031 25.8952C7.77647 26.0148 7.60338 26.0745 7.36107 26.0745H6.45243Z" fill="#362999"/>
<path d="M81.3012 27.0745C81.0589 27.0745 80.8815 27.0148 80.7689 26.8952C80.6651 26.7757 80.6132 26.5823 80.6132 26.3152V26.0621C80.6132 25.7948 80.6608 25.6014 80.756 25.4819C80.8599 25.3624 81.0286 25.3026 81.2624 25.3026H81.2753C81.4743 25.3026 81.617 25.2464 81.7037 25.1338C81.7902 25.0284 81.8334 24.8633 81.8334 24.6382V21.4425C81.8334 20.7464 81.9676 20.1557 82.2359 19.6706C82.504 19.1784 82.8936 18.8128 83.404 18.5738C82.9021 18.3416 82.5127 17.9796 82.2359 17.4874C81.9676 16.9882 81.8334 16.394 81.8334 15.705V12.5093C81.8334 12.2632 81.7902 12.0909 81.7037 11.9925C81.617 11.894 81.4527 11.8448 81.2104 11.8448H81.1844C80.9853 11.8448 80.8382 11.7815 80.7431 11.655C80.6566 11.5284 80.6132 11.3386 80.6132 11.0854V10.8218C80.6132 10.5616 80.6651 10.3753 80.7689 10.2628C80.8815 10.1433 81.0589 10.0835 81.3012 10.0835H82.2098C82.6426 10.0835 83.032 10.1784 83.3781 10.3683C83.733 10.5511 84.0055 10.8077 84.1959 11.1382C84.3949 11.4616 84.4945 11.8343 84.4945 12.2562V15.4097C84.4945 16.0284 84.5723 16.503 84.7281 16.8335C84.8926 17.1569 85.1738 17.3855 85.5719 17.5191C85.8055 17.6316 85.9742 17.7581 86.0781 17.8987C86.1906 18.0394 86.247 18.2257 86.247 18.4577V18.6897C86.247 18.9218 86.1906 19.1081 86.0781 19.2487C85.9742 19.3823 85.8055 19.5053 85.5719 19.6179C85.1738 19.7585 84.8926 19.994 84.7281 20.3245C84.5723 20.6479 84.4945 21.1226 84.4945 21.7484V24.8913C84.4945 25.3133 84.3949 25.6894 84.1959 26.0199C84.0055 26.3503 83.733 26.6069 83.3781 26.7897C83.032 26.9796 82.6426 27.0745 82.2098 27.0745H81.3012Z" fill="#362999"/>
<g filter="url(#filter0_d_715_4224)">
<path d="M74.5891 10.332C74.4187 9.97663 74.123 9.66999 73.7394 9.45031C73.3557 9.23064 72.9008 9.10768 72.4316 9.09678C72.4213 9.09641 72.4117 9.09887 72.4014 9.09918C72.3879 9.09687 72.374 9.09537 72.3601 9.09469C70.1711 9.04053 67.7941 10.1357 67.1209 11.9618C66.6104 11.4956 65.8583 11.2304 65.1031 11.3276C64.1397 11.4517 63.3627 12.1276 63.2034 12.943C63.1951 12.9919 63.2055 13.0417 63.2333 13.0856C63.261 13.1295 63.3047 13.1655 63.3583 13.1885C63.5409 13.2777 63.6659 13.3405 63.8791 13.3604C64.2802 13.3979 64.6819 13.4294 65.0843 13.4547C65.8694 13.5042 66.6557 13.5313 67.4432 13.5359C69.0411 13.5458 70.6377 13.4614 72.2206 13.2834C72.7477 13.2241 73.2558 13.1655 73.7146 12.9246C74.0514 12.7424 74.3236 12.4919 74.5043 12.1978C74.8595 11.6368 74.88 10.9218 74.5891 10.332Z" fill="#3F3D56"/>
<path d="M74.3631 10.445C74.2044 10.1305 73.934 9.86149 73.5863 9.67237C73.2256 9.48045 72.8059 9.37431 72.3747 9.36594L72.349 9.36813L72.3246 9.36669C72.3167 9.36539 72.3088 9.36456 72.3007 9.36419C71.5802 9.35626 70.8643 9.45977 70.1914 9.66921C68.8974 10.0673 67.724 10.8483 67.2761 11.9848L67.2123 12.1479L67.069 12.0227C66.5977 11.6132 65.9438 11.4067 65.3031 11.4614C65.2713 11.4641 65.2395 11.4674 65.2072 11.4716C64.3217 11.5835 63.5957 12.1712 63.441 12.901C63.4381 12.9267 63.4451 12.9524 63.4611 12.9746C63.4771 12.9968 63.5013 13.0144 63.5302 13.0249L63.5407 13.03C63.7101 13.1077 63.8122 13.1549 63.9909 13.1703C64.3801 13.2036 64.7753 13.2312 65.1655 13.2528C65.9221 13.295 66.696 13.317 67.4647 13.3183C68.8243 13.3208 70.1828 13.2564 71.5329 13.1255C71.7306 13.1066 71.9278 13.0863 72.1242 13.0644C72.6302 13.0086 73.1086 12.9552 73.5404 12.7385C73.8494 12.5795 74.1023 12.358 74.2742 12.0958C74.4363 11.8425 74.5283 11.5635 74.5436 11.2784C74.559 10.9932 74.4973 10.7088 74.3631 10.445Z" fill="white"/>
<path d="M71.5328 13.1255C70.1828 13.2564 68.8243 13.3208 67.4647 13.3183C66.696 13.317 65.9222 13.2949 65.1655 13.2528C64.7754 13.2312 64.3801 13.2035 63.9909 13.1703C63.8123 13.1548 63.71 13.1077 63.5407 13.03L63.5301 13.0248C63.5012 13.0143 63.477 12.9968 63.4611 12.9746C63.4451 12.9523 63.438 12.9266 63.441 12.901C63.5957 12.1712 64.3217 11.5835 65.2071 11.4716C65.2394 11.4673 65.2713 11.4641 65.3032 11.4614C65.9438 11.4067 66.5977 11.6132 67.0691 12.0227L67.2123 12.1479L67.2761 11.9848C67.7241 10.8483 68.8973 10.0672 70.1914 9.66919C70.4854 9.8435 70.6974 10.1311 70.6356 10.4199C70.5613 10.7701 70.1204 11.0223 70.0869 11.3767C70.0562 11.7001 70.3738 11.9711 70.6901 12.1687C71.0063 12.3657 71.3679 12.56 71.492 12.8676C71.5253 12.9508 71.5392 13.0382 71.5328 13.1255Z" fill="#362999"/>
<path d="M73.2844 11.6841L73.7347 11.2337L73.179 10.8692L73.3163 10.7319L74.0414 11.2075L73.4538 11.7952L73.2844 11.6841Z" fill="#E6E6E6"/>
<path d="M71.5705 11.8262L71.0143 11.4618L71.4646 11.0114L71.2951 10.9003L70.7081 11.4879L71.4332 11.9635L71.5705 11.8262Z" fill="#E6E6E6"/>
<path d="M73.2744 11.6046L73.7247 11.1542L73.1689 10.7897L73.3062 10.6525L74.0314 11.128L73.4437 11.7157L73.2744 11.6046Z" fill="#362999"/>
<path d="M71.7891 11.3491L71.9935 11.3317L71.972 11.1655L71.7675 11.183L71.7891 11.3491ZM72.7939 11.0953L72.5895 11.1128L72.611 11.2789L72.8155 11.2615L72.7939 11.0953ZM72.2 11.314L72.4045 11.2966L72.383 11.1304L72.1785 11.1479L72.2 11.314Z" fill="#0A0A19"/>
<path d="M71.5603 11.7471L71.0041 11.3827L71.4544 10.9323L71.285 10.8212L70.6979 11.4088L71.423 11.8844L71.5603 11.7471Z" fill="#362999"/>
</g>
<g filter="url(#filter1_d_715_4224)">
<path d="M15.2121 33.2646C16.5102 33.2646 17.5626 32.3905 17.5626 31.3122C17.5626 30.2339 16.5102 29.3599 15.2121 29.3599C13.9139 29.3599 12.8616 30.2339 12.8616 31.3122C12.8616 32.3905 13.9139 33.2646 15.2121 33.2646Z" fill="#362999"/>
<path d="M23.3319 33.2646C24.6301 33.2646 25.6825 32.3905 25.6825 31.3122C25.6825 30.2339 24.6301 29.3599 23.3319 29.3599C22.0338 29.3599 20.9814 30.2339 20.9814 31.3122C20.9814 32.3905 22.0338 33.2646 23.3319 33.2646Z" fill="#362999"/>
<path d="M31.4519 33.2646C32.7501 33.2646 33.8023 32.3905 33.8023 31.3122C33.8023 30.2339 32.7501 29.3599 31.4519 29.3599C30.1537 29.3599 29.1014 30.2339 29.1014 31.3122C29.1014 32.3905 30.1537 33.2646 31.4519 33.2646Z" fill="#362999"/>
<path d="M40.7107 32.8554C40.6736 32.8554 40.6369 32.8495 40.6029 32.8378C40.5687 32.8261 40.5379 32.809 40.512 32.7874L38.926 31.4702C38.8751 31.4281 38.8467 31.3713 38.8467 31.3123C38.8467 31.2532 38.8751 31.1965 38.926 31.1543L40.512 29.8371C40.5638 29.7951 40.6338 29.7712 40.7071 29.7708C40.7803 29.7705 40.8509 29.7935 40.9031 29.8351C40.9556 29.8767 40.9856 29.9335 40.9868 29.9931C40.9879 30.0526 40.96 30.11 40.9094 30.1531L39.5135 31.3123L40.9094 32.4716C40.9476 32.5034 40.9735 32.5436 40.9836 32.5874C40.9939 32.631 40.988 32.6761 40.9668 32.7171C40.9457 32.758 40.9101 32.793 40.8645 32.8177C40.8188 32.8423 40.7654 32.8554 40.7107 32.8554Z" fill="#362999"/>
<path d="M43.3758 32.8554C43.321 32.8554 43.2677 32.8423 43.2221 32.8177C43.1764 32.793 43.1408 32.758 43.1197 32.7171C43.0984 32.6761 43.0926 32.631 43.1028 32.5874C43.1129 32.5436 43.1388 32.5034 43.1771 32.4716L44.5728 31.3123L43.1771 30.1531C43.1264 30.11 43.0986 30.0526 43.0996 29.9931C43.1009 29.9335 43.1308 29.8767 43.1833 29.8351C43.2356 29.7935 43.3061 29.7705 43.3793 29.7708C43.4527 29.7712 43.5227 29.7951 43.5744 29.8371L45.1603 31.1543C45.2112 31.1965 45.2397 31.2532 45.2397 31.3123C45.2397 31.3713 45.2112 31.4281 45.1603 31.4702L43.5744 32.7874C43.5486 32.809 43.5177 32.8261 43.4835 32.8378C43.4495 32.8495 43.4128 32.8554 43.3758 32.8554Z" fill="#969696"/>
</g>
<path d="M10.23 24C10.12 24 10.025 23.96 9.94501 23.88C9.86501 23.8 9.82501 23.705 9.82501 23.595V13.905C9.82501 13.795 9.86501 13.7 9.94501 13.62C10.025 13.54 10.12 13.5 10.23 13.5H17.79C17.9 13.5 17.995 13.54 18.075 13.62C18.155 13.7 18.195 13.795 18.195 13.905V16.185C18.195 16.295 18.155 16.39 18.075 16.47C17.995 16.55 17.9 16.59 17.79 16.59H13.5V17.7H17.49C17.6 17.7 17.695 17.74 17.775 17.82C17.855 17.9 17.895 17.995 17.895 18.105V20.37C17.895 20.48 17.855 20.575 17.775 20.655C17.695 20.735 17.6 20.775 17.49 20.775H13.5V23.595C13.5 23.705 13.46 23.8 13.38 23.88C13.3 23.96 13.205 24 13.095 24H10.23ZM14.25 14.205C14.07 14.185 13.935 14.19 13.845 14.22C13.755 14.25 13.67 14.345 13.59 14.505C13.51 14.665 13.49 14.79 13.53 14.88C13.57 14.97 13.655 15.075 13.785 15.195C13.925 15.325 14.04 15.415 14.13 15.465C14.22 15.515 14.35 15.495 14.52 15.405C14.7 15.305 14.8 15.205 14.82 15.105C14.84 15.005 14.83 14.855 14.79 14.655C14.76 14.485 14.705 14.375 14.625 14.325C14.545 14.265 14.42 14.225 14.25 14.205ZM10.725 14.625C10.725 14.555 10.725 14.5 10.725 14.46C10.725 14.42 10.69 14.39 10.62 14.37C10.49 14.33 10.39 14.365 10.32 14.475C10.27 14.545 10.24 14.605 10.23 14.655C10.22 14.695 10.24 14.75 10.29 14.82C10.39 14.94 10.51 14.975 10.65 14.925C10.72 14.895 10.75 14.855 10.74 14.805C10.73 14.755 10.725 14.695 10.725 14.625ZM17.19 14.55C17.14 14.55 17.11 14.565 17.1 14.595C17.09 14.625 17.075 14.66 17.055 14.7C17.035 14.75 17.015 14.79 16.995 14.82C16.975 14.85 16.985 14.885 17.025 14.925C17.065 14.965 17.1 14.98 17.13 14.97C17.16 14.95 17.205 14.93 17.265 14.91C17.345 14.85 17.38 14.785 17.37 14.715C17.35 14.615 17.29 14.56 17.19 14.55ZM16.02 14.745C16 14.655 15.96 14.605 15.9 14.595C15.85 14.585 15.775 14.575 15.675 14.565C15.595 14.555 15.535 14.56 15.495 14.58C15.455 14.6 15.415 14.65 15.375 14.73C15.345 14.8 15.34 14.855 15.36 14.895C15.38 14.935 15.42 14.985 15.48 15.045C15.56 15.105 15.62 15.155 15.66 15.195C15.71 15.225 15.78 15.215 15.87 15.165C15.96 15.105 16.015 15.05 16.035 15C16.055 14.94 16.05 14.855 16.02 14.745ZM11.595 14.82C11.535 14.78 11.485 14.75 11.445 14.73C11.415 14.71 11.375 14.725 11.325 14.775C11.265 14.825 11.225 14.87 11.205 14.91C11.185 14.95 11.195 15.01 11.235 15.09C11.265 15.16 11.3 15.195 11.34 15.195C11.39 15.195 11.45 15.19 11.52 15.18C11.59 15.17 11.64 15.16 11.67 15.15C11.7 15.13 11.725 15.085 11.745 15.015C11.755 14.955 11.745 14.915 11.715 14.895C11.685 14.875 11.645 14.85 11.595 14.82ZM17.085 15.48L17.01 15.39L16.905 15.435L16.845 15.585L17.025 15.615L17.085 15.48ZM12.99 15.435C12.89 15.405 12.815 15.405 12.765 15.435C12.715 15.465 12.665 15.52 12.615 15.6C12.555 15.7 12.52 15.78 12.51 15.84C12.5 15.89 12.53 15.955 12.6 16.035C12.66 16.115 12.72 16.155 12.78 16.155C12.84 16.145 12.92 16.125 13.02 16.095C13.11 16.055 13.175 16.02 13.215 15.99C13.265 15.95 13.285 15.88 13.275 15.78C13.265 15.67 13.24 15.595 13.2 15.555C13.17 15.505 13.1 15.465 12.99 15.435ZM10.5 16.245L10.41 16.29L10.35 16.41L10.56 16.35L10.5 16.245ZM12 16.365L11.82 16.29L11.715 16.41L11.79 16.53H11.91L12 16.365ZM11.595 17.655C11.595 17.495 11.575 17.38 11.535 17.31C11.495 17.23 11.4 17.17 11.25 17.13C11.09 17.08 10.97 17.07 10.89 17.1C10.81 17.13 10.725 17.215 10.635 17.355C10.535 17.485 10.485 17.595 10.485 17.685C10.495 17.765 10.545 17.87 10.635 18C10.735 18.12 10.825 18.18 10.905 18.18C10.985 18.18 11.095 18.155 11.235 18.105C11.375 18.065 11.47 18.02 11.52 17.97C11.57 17.91 11.595 17.805 11.595 17.655ZM12.66 17.955L12.54 18L12.48 18.15L12.645 18.195L12.78 18.075L12.66 17.955ZM14.145 18.345C14.055 18.265 13.955 18.255 13.845 18.315C13.755 18.365 13.685 18.405 13.635 18.435C13.585 18.455 13.565 18.515 13.575 18.615C13.595 18.715 13.635 18.77 13.695 18.78C13.755 18.78 13.835 18.785 13.935 18.795C14.025 18.805 14.09 18.81 14.13 18.81C14.18 18.8 14.225 18.755 14.265 18.675C14.305 18.595 14.31 18.535 14.28 18.495C14.26 18.455 14.215 18.405 14.145 18.345ZM13.995 19.5C13.995 19.41 14 19.335 14.01 19.275C14.02 19.215 13.98 19.17 13.89 19.14C13.79 19.11 13.71 19.105 13.65 19.125C13.59 19.135 13.53 19.185 13.47 19.275C13.41 19.355 13.4 19.42 13.44 19.47C13.48 19.51 13.53 19.57 13.59 19.65C13.64 19.71 13.68 19.75 13.71 19.77C13.75 19.78 13.805 19.775 13.875 19.755C13.945 19.735 13.98 19.705 13.98 19.665C13.99 19.625 13.995 19.57 13.995 19.5ZM12.51 19.395C12.42 19.335 12.345 19.31 12.285 19.32C12.225 19.33 12.15 19.375 12.06 19.455C11.96 19.535 11.885 19.605 11.835 19.665C11.795 19.715 11.795 19.8 11.835 19.92C11.885 20.05 11.945 20.125 12.015 20.145C12.095 20.155 12.2 20.155 12.33 20.145C12.44 20.135 12.515 20.11 12.555 20.07C12.595 20.02 12.63 19.94 12.66 19.83C12.69 19.72 12.695 19.635 12.675 19.575C12.665 19.515 12.61 19.455 12.51 19.395ZM10.83 19.8L10.755 19.665L10.62 19.77L10.65 19.935H10.815L10.83 19.8ZM15.09 19.68C15.03 19.66 14.985 19.665 14.955 19.695C14.935 19.725 14.905 19.765 14.865 19.815C14.805 19.885 14.8 19.96 14.85 20.04C14.89 20.1 14.92 20.15 14.94 20.19C14.96 20.23 15.005 20.24 15.075 20.22C15.155 20.2 15.2 20.17 15.21 20.13C15.22 20.09 15.225 20.03 15.225 19.95C15.225 19.87 15.22 19.815 15.21 19.785C15.2 19.745 15.16 19.71 15.09 19.68ZM16.41 19.935C16.37 19.885 16.335 19.85 16.305 19.83C16.275 19.81 16.23 19.81 16.17 19.83C16.09 19.86 16.025 19.885 15.975 19.905C15.935 19.925 15.915 19.98 15.915 20.07C15.925 20.17 15.945 20.24 15.975 20.28C16.015 20.31 16.085 20.335 16.185 20.355C16.275 20.385 16.345 20.395 16.395 20.385C16.455 20.375 16.51 20.33 16.56 20.25C16.61 20.18 16.61 20.13 16.56 20.1C16.52 20.06 16.47 20.005 16.41 19.935ZM11.625 20.85C11.605 20.77 11.57 20.72 11.52 20.7C11.48 20.68 11.42 20.67 11.34 20.67C11.22 20.67 11.135 20.73 11.085 20.85C11.055 20.93 11.035 20.995 11.025 21.045C11.025 21.085 11.06 21.135 11.13 21.195C11.2 21.245 11.255 21.27 11.295 21.27C11.345 21.26 11.41 21.23 11.49 21.18C11.56 21.13 11.605 21.085 11.625 21.045C11.655 21.005 11.655 20.94 11.625 20.85ZM12.075 22.335C12.055 22.145 12.03 22 12 21.9C11.97 21.8 11.865 21.73 11.685 21.69C11.465 21.64 11.295 21.63 11.175 21.66C11.065 21.69 10.955 21.8 10.845 21.99C10.735 22.2 10.685 22.365 10.695 22.485C10.715 22.605 10.8 22.75 10.95 22.92C11.09 23.07 11.215 23.135 11.325 23.115C11.435 23.085 11.585 23.03 11.775 22.95C11.935 22.88 12.03 22.805 12.06 22.725C12.09 22.635 12.095 22.505 12.075 22.335Z" fill="#4262C5"/>
<path d="M23.0323 16.605V17.13C23.7323 16.51 24.5123 16.2 25.3723 16.2H26.0923C26.2023 16.2 26.2973 16.24 26.3773 16.32C26.4573 16.4 26.4973 16.495 26.4973 16.605V18.945C26.4973 19.055 26.4573 19.15 26.3773 19.23C26.2973 19.31 26.2023 19.35 26.0923 19.35H24.1573C23.8873 19.35 23.6723 19.415 23.5123 19.545C23.3623 19.665 23.2773 19.83 23.2573 20.04V23.595C23.2573 23.705 23.2173 23.8 23.1373 23.88C23.0573 23.96 22.9623 24 22.8523 24H20.0023C19.8923 24 19.7973 23.96 19.7173 23.88C19.6373 23.8 19.5973 23.705 19.5973 23.595V16.605C19.5973 16.495 19.6373 16.4 19.7173 16.32C19.7973 16.24 19.8923 16.2 20.0023 16.2H22.6273C22.7373 16.2 22.8323 16.24 22.9123 16.32C22.9923 16.4 23.0323 16.495 23.0323 16.605Z" fill="#4262C5"/>
<path d="M35.9214 20.985H31.4514V21.06C31.4514 21.67 31.6464 21.975 32.0364 21.975C32.1464 21.975 32.2814 21.895 32.4414 21.735C32.6014 21.575 32.7764 21.495 32.9664 21.495H35.8014C36.0214 21.495 36.1314 21.605 36.1314 21.825C36.1314 22.315 35.7614 22.825 35.0214 23.355C34.2914 23.885 33.2964 24.15 32.0364 24.15C30.7864 24.15 29.7614 23.825 28.9614 23.175C28.1714 22.515 27.7764 21.61 27.7764 20.46V19.74C27.7764 18.65 28.1814 17.765 28.9914 17.085C29.8014 16.395 30.8614 16.05 32.1714 16.05C33.4914 16.05 34.5114 16.435 35.2314 17.205C35.9614 17.975 36.3264 18.95 36.3264 20.13V20.58C36.3264 20.69 36.2864 20.785 36.2064 20.865C36.1264 20.945 36.0314 20.985 35.9214 20.985ZM32.6514 19.05C32.6514 18.45 32.4514 18.15 32.0514 18.15C31.6514 18.15 31.4514 18.45 31.4514 19.05V19.11H32.6514V19.05Z" fill="#4262C5"/>
<path d="M37.6711 20.685V19.5C37.6711 18.38 37.9711 17.525 38.5711 16.935C39.1711 16.345 39.9011 16.05 40.7611 16.05C41.6311 16.05 42.3261 16.285 42.8461 16.755V13.755C42.8461 13.645 42.8861 13.55 42.9661 13.47C43.0461 13.39 43.1411 13.35 43.2511 13.35H46.0261C46.1361 13.35 46.2311 13.39 46.3111 13.47C46.3911 13.55 46.4311 13.645 46.4311 13.755V23.595C46.4311 23.705 46.3911 23.8 46.3111 23.88C46.2311 23.96 46.1361 24 46.0261 24H43.4761C43.3661 24 43.2711 23.96 43.1911 23.88C43.1111 23.8 43.0711 23.705 43.0711 23.595V23.145C42.5511 23.815 41.8161 24.15 40.8661 24.15C39.9161 24.15 39.1461 23.87 38.5561 23.31C37.9661 22.74 37.6711 21.865 37.6711 20.685ZM42.8461 20.595V19.485C42.8161 18.985 42.5661 18.735 42.0961 18.735C41.5961 18.735 41.3461 19.025 41.3461 19.605V20.595C41.3461 21.175 41.5961 21.465 42.0961 21.465C42.5961 21.465 42.8461 21.175 42.8461 20.595Z" fill="#4262C5"/>
<path d="M48.7103 24C48.6003 24 48.5053 23.96 48.4253 23.88C48.3453 23.8 48.3053 23.705 48.3053 23.595V13.905C48.3053 13.795 48.3453 13.7 48.4253 13.62C48.5053 13.54 48.6003 13.5 48.7103 13.5H53.0303C53.9703 13.5 54.8103 13.66 55.5503 13.98C56.2903 14.29 56.8803 14.75 57.3203 15.36C57.7703 15.97 58.0103 16.725 58.0403 17.625C58.0603 18.055 58.0703 18.435 58.0703 18.765C58.0703 19.085 58.0603 19.45 58.0403 19.86C58.0003 20.8 57.7703 21.58 57.3503 22.2C56.9303 22.81 56.3553 23.265 55.6253 23.565C54.9053 23.855 54.0653 24 53.1053 24H48.7103ZM52.1153 14.97C52.1053 14.71 52.0653 14.52 51.9953 14.4C51.9353 14.28 51.7803 14.18 51.5303 14.1C51.3803 14.06 51.2703 14.07 51.2003 14.13C51.1403 14.18 51.0853 14.26 51.0353 14.37C50.9953 14.47 50.9353 14.585 50.8553 14.715C50.7553 14.865 50.6803 14.99 50.6303 15.09C50.5803 15.18 50.6103 15.295 50.7203 15.435C50.8303 15.585 50.9353 15.65 51.0353 15.63C51.1453 15.61 51.2853 15.57 51.4553 15.51C51.6553 15.44 51.8153 15.385 51.9353 15.345C52.0653 15.305 52.1253 15.18 52.1153 14.97ZM54.8303 14.31C54.7903 14.23 54.7253 14.2 54.6353 14.22C54.5653 14.24 54.5253 14.295 54.5153 14.385C54.5153 14.455 54.5053 14.515 54.4853 14.565C54.4753 14.605 54.5053 14.64 54.5753 14.67C54.6453 14.69 54.6953 14.69 54.7253 14.67C54.7553 14.64 54.7953 14.595 54.8453 14.535C54.8953 14.475 54.8903 14.4 54.8303 14.31ZM53.4503 15.045C53.3403 15.005 53.2553 15 53.1953 15.03C53.1453 15.06 53.0853 15.12 53.0153 15.21C52.9253 15.32 52.8553 15.41 52.8053 15.48C52.7553 15.55 52.7703 15.645 52.8503 15.765C52.9303 15.875 53.0103 15.915 53.0903 15.885C53.1703 15.845 53.2803 15.805 53.4203 15.765C53.5603 15.725 53.6803 15.7 53.7803 15.69C53.8803 15.68 53.9303 15.6 53.9303 15.45C53.9303 15.29 53.8853 15.195 53.7953 15.165C53.7153 15.135 53.6003 15.095 53.4503 15.045ZM49.8953 15.165L49.7603 15.18L49.8053 15.3L49.8953 15.345L49.9853 15.255L49.8953 15.165ZM55.3703 15.405C55.3703 15.355 55.3503 15.325 55.3103 15.315C55.2803 15.305 55.2403 15.29 55.1903 15.27C55.1303 15.26 55.0803 15.25 55.0403 15.24C55.0103 15.22 54.9803 15.235 54.9503 15.285C54.9103 15.335 54.9003 15.375 54.9203 15.405C54.9503 15.435 54.9803 15.475 55.0103 15.525C55.0503 15.565 55.0803 15.6 55.1003 15.63C55.1303 15.65 55.1703 15.65 55.2203 15.63C55.3203 15.59 55.3703 15.515 55.3703 15.405ZM49.6853 15.51C49.6453 15.44 49.6003 15.415 49.5503 15.435C49.5103 15.445 49.4503 15.465 49.3703 15.495C49.3003 15.515 49.2453 15.535 49.2053 15.555C49.1753 15.575 49.1603 15.62 49.1603 15.69C49.1603 15.82 49.2203 15.905 49.3403 15.945C49.4103 15.965 49.4603 15.965 49.4903 15.945C49.5303 15.925 49.5703 15.885 49.6103 15.825C49.6603 15.765 49.6953 15.715 49.7153 15.675C49.7453 15.635 49.7353 15.58 49.6853 15.51ZM54.7853 15.96C54.7153 15.89 54.6553 15.85 54.6053 15.84C54.5553 15.82 54.4903 15.835 54.4103 15.885C54.2903 15.935 54.2003 15.98 54.1403 16.02C54.0803 16.06 54.0603 16.14 54.0803 16.26C54.1103 16.4 54.1503 16.495 54.2003 16.545C54.2503 16.585 54.3453 16.62 54.4853 16.65C54.6153 16.67 54.7053 16.66 54.7553 16.62C54.8153 16.57 54.8753 16.49 54.9353 16.38C54.9853 16.28 54.9903 16.205 54.9503 16.155C54.9203 16.105 54.8653 16.04 54.7853 15.96ZM56.8403 16.155C56.6903 16.045 56.5653 15.97 56.4653 15.93C56.3653 15.88 56.2403 15.915 56.0903 16.035C55.9403 16.145 55.8703 16.255 55.8803 16.365C55.8903 16.465 55.9253 16.605 55.9853 16.785C56.0453 16.975 56.1003 17.115 56.1503 17.205C56.2103 17.295 56.3403 17.34 56.5403 17.34C56.7303 17.34 56.8503 17.295 56.9003 17.205C56.9603 17.105 57.0153 16.96 57.0653 16.77C57.1153 16.61 57.1253 16.49 57.0953 16.41C57.0653 16.33 56.9803 16.245 56.8403 16.155ZM52.0553 21.075H53.0303C53.3603 21.075 53.6353 20.98 53.8553 20.79C54.0853 20.59 54.2103 20.28 54.2303 19.86C54.2503 19.43 54.2603 19.055 54.2603 18.735C54.2603 18.405 54.2503 18.035 54.2303 17.625C54.2103 17.205 54.0753 16.9 53.8253 16.71C53.5853 16.52 53.2953 16.425 52.9553 16.425H52.0553V21.075ZM55.3103 16.875L55.1903 16.815L55.1303 16.935L55.2053 17.025L55.3403 16.995L55.3103 16.875ZM50.8103 17.865C50.7803 17.615 50.7403 17.425 50.6903 17.295C50.6503 17.155 50.5053 17.06 50.2553 17.01C49.9553 16.95 49.7203 16.935 49.5503 16.965C49.3903 16.995 49.2353 17.145 49.0853 17.415C48.9453 17.675 48.9153 17.875 48.9953 18.015C49.0853 18.155 49.2353 18.335 49.4453 18.555C49.5953 18.715 49.7203 18.855 49.8203 18.975C49.9203 19.095 50.0253 19.175 50.1353 19.215C50.2553 19.245 50.4153 19.215 50.6153 19.125C50.8153 19.035 50.9253 18.935 50.9453 18.825C50.9753 18.705 50.9653 18.57 50.9153 18.42C50.8653 18.26 50.8303 18.075 50.8103 17.865ZM55.1753 17.535C55.1153 17.505 55.0653 17.49 55.0253 17.49C54.9953 17.48 54.9553 17.5 54.9053 17.55C54.8653 17.6 54.8503 17.645 54.8603 17.685C54.8703 17.715 54.8953 17.76 54.9353 17.82C54.9753 17.88 55.0053 17.93 55.0253 17.97C55.0453 18.01 55.0903 18.02 55.1603 18C55.2403 17.99 55.2753 17.96 55.2653 17.91C55.2653 17.86 55.2703 17.8 55.2803 17.73C55.2903 17.63 55.2553 17.565 55.1753 17.535ZM57.2453 17.94C57.1053 17.82 56.9853 17.775 56.8853 17.805C56.7953 17.835 56.6703 17.895 56.5103 17.985C56.3803 18.065 56.3053 18.145 56.2853 18.225C56.2653 18.305 56.2753 18.415 56.3153 18.555C56.3653 18.765 56.3903 18.94 56.3903 19.08C56.4003 19.21 56.5103 19.285 56.7203 19.305C56.9503 19.325 57.1003 19.285 57.1703 19.185C57.2503 19.085 57.3353 18.93 57.4253 18.72C57.5053 18.54 57.5303 18.4 57.5003 18.3C57.4803 18.19 57.3953 18.07 57.2453 17.94ZM55.2653 18.54C55.2653 18.46 55.2503 18.41 55.2203 18.39C55.1903 18.36 55.1403 18.335 55.0703 18.315C55.0003 18.285 54.9453 18.275 54.9053 18.285C54.8653 18.285 54.8203 18.315 54.7703 18.375C54.7003 18.475 54.7053 18.58 54.7853 18.69C54.8253 18.75 54.8653 18.78 54.9053 18.78C54.9453 18.77 54.9953 18.755 55.0553 18.735C55.1253 18.715 55.1753 18.695 55.2053 18.675C55.2453 18.655 55.2653 18.61 55.2653 18.54ZM55.4603 19.485C55.2703 19.445 55.1203 19.405 55.0103 19.365C54.9003 19.315 54.7953 19.37 54.6953 19.53C54.5953 19.72 54.5603 19.87 54.5903 19.98C54.6203 20.09 54.7103 20.225 54.8603 20.385C55.0003 20.535 55.1203 20.62 55.2203 20.64C55.3303 20.65 55.4753 20.615 55.6553 20.535C55.8153 20.455 55.8853 20.365 55.8653 20.265C55.8553 20.165 55.8403 20.025 55.8203 19.845C55.8003 19.715 55.7653 19.63 55.7153 19.59C55.6653 19.54 55.5803 19.505 55.4603 19.485ZM56.9903 19.815C56.9703 19.735 56.9153 19.695 56.8253 19.695C56.7653 19.695 56.7153 19.7 56.6753 19.71C56.6453 19.71 56.6203 19.74 56.6003 19.8C56.5803 19.86 56.5753 19.905 56.5853 19.935C56.6053 19.965 56.6453 20 56.7053 20.04C56.7453 20.08 56.7803 20.095 56.8103 20.085C56.8403 20.065 56.8753 20.04 56.9153 20.01C56.9953 19.96 57.0203 19.895 56.9903 19.815ZM48.9803 19.92L48.9053 19.815L48.7703 19.92L48.8303 20.07L48.9953 20.055L48.9803 19.92ZM57.5003 20.25L57.3953 20.235L57.3353 20.355L57.4703 20.43L57.5303 20.325L57.5003 20.25ZM50.0603 20.475C49.9703 20.415 49.8953 20.385 49.8353 20.385C49.7853 20.375 49.7203 20.4 49.6403 20.46C49.5403 20.54 49.4753 20.61 49.4453 20.67C49.4253 20.72 49.4353 20.8 49.4753 20.91C49.5153 21.03 49.5603 21.11 49.6103 21.15C49.6603 21.19 49.7503 21.21 49.8803 21.21C50.0003 21.21 50.0703 21.18 50.0903 21.12C50.1203 21.05 50.1503 20.96 50.1803 20.85C50.2103 20.76 50.2153 20.69 50.1953 20.64C50.1853 20.58 50.1403 20.525 50.0603 20.475ZM55.9553 21.39C55.8553 21.29 55.7703 21.265 55.7003 21.315C55.6303 21.365 55.5303 21.42 55.4003 21.48C55.2803 21.54 55.1803 21.585 55.1003 21.615C55.0203 21.645 54.9903 21.725 55.0103 21.855C55.0403 22.015 55.0803 22.13 55.1303 22.2C55.1903 22.26 55.3003 22.3 55.4603 22.32C55.5903 22.35 55.6753 22.33 55.7153 22.26C55.7553 22.18 55.8053 22.075 55.8653 21.945C55.9353 21.825 55.9903 21.73 56.0303 21.66C56.0703 21.58 56.0453 21.49 55.9553 21.39ZM51.6203 21.72C51.6203 21.65 51.6053 21.605 51.5753 21.585C51.5453 21.555 51.4903 21.53 51.4103 21.51C51.3303 21.48 51.2653 21.465 51.2153 21.465C51.1753 21.455 51.1303 21.485 51.0803 21.555C51.0203 21.635 50.9903 21.7 50.9903 21.75C51.0003 21.8 51.0353 21.865 51.0953 21.945C51.1553 22.025 51.2103 22.08 51.2603 22.11C51.3103 22.14 51.3853 22.135 51.4853 22.095C51.5753 22.065 51.6203 22.02 51.6203 21.96C51.6203 21.9 51.6203 21.82 51.6203 21.72ZM53.7053 21.78C53.5953 21.75 53.5103 21.785 53.4503 21.885C53.4003 21.955 53.3653 22.015 53.3453 22.065C53.3253 22.105 53.3403 22.16 53.3903 22.23C53.4403 22.29 53.4853 22.31 53.5253 22.29C53.5753 22.26 53.6403 22.23 53.7203 22.2C53.7803 22.18 53.8203 22.16 53.8403 22.14C53.8703 22.12 53.8853 22.075 53.8853 22.005C53.8753 21.885 53.8153 21.81 53.7053 21.78ZM49.5203 21.96C49.4303 21.91 49.3603 21.9 49.3103 21.93C49.2603 21.95 49.1953 21.99 49.1153 22.05C49.0353 22.12 48.9803 22.18 48.9503 22.23C48.9203 22.28 48.9253 22.355 48.9653 22.455C49.0153 22.555 49.0653 22.615 49.1153 22.635C49.1753 22.655 49.2603 22.66 49.3703 22.65C49.4503 22.64 49.4903 22.61 49.4903 22.56C49.5003 22.5 49.5153 22.425 49.5353 22.335C49.5553 22.245 49.5753 22.175 49.5953 22.125C49.6153 22.065 49.5903 22.01 49.5203 21.96ZM50.4803 22.005L50.3453 22.02L50.3153 22.14L50.4353 22.185L50.5103 22.11L50.4803 22.005ZM52.2053 22.095C52.0753 22.065 51.9903 22.085 51.9503 22.155C51.9203 22.225 51.8753 22.315 51.8153 22.425C51.7553 22.515 51.7203 22.59 51.7103 22.65C51.7003 22.71 51.7303 22.78 51.8003 22.86C51.8703 22.94 51.9353 22.98 51.9953 22.98C52.0553 22.98 52.1353 22.955 52.2353 22.905C52.3453 22.855 52.4203 22.81 52.4603 22.77C52.5103 22.73 52.5303 22.655 52.5203 22.545C52.5003 22.405 52.4753 22.305 52.4453 22.245C52.4253 22.175 52.3453 22.125 52.2053 22.095ZM50.5403 23.055C50.4403 23.015 50.3553 23.04 50.2853 23.13C50.2153 23.21 50.2103 23.295 50.2703 23.385C50.3303 23.465 50.4153 23.495 50.5253 23.475C50.6053 23.445 50.6503 23.38 50.6603 23.28C50.6603 23.21 50.6553 23.16 50.6453 23.13C50.6353 23.1 50.6003 23.075 50.5403 23.055ZM54.0953 23.145C54.0353 23.115 53.9753 23.135 53.9153 23.205C53.8753 23.245 53.8453 23.28 53.8253 23.31C53.8153 23.33 53.8253 23.36 53.8553 23.4C53.8953 23.49 53.9603 23.525 54.0503 23.505C54.1603 23.485 54.2203 23.43 54.2303 23.34C54.2403 23.26 54.1953 23.195 54.0953 23.145Z" fill="#4262C5"/>
<path d="M67.5538 20.985H63.0838V21.06C63.0838 21.67 63.2788 21.975 63.6688 21.975C63.7788 21.975 63.9138 21.895 64.0738 21.735C64.2338 21.575 64.4088 21.495 64.5988 21.495H67.4338C67.6538 21.495 67.7638 21.605 67.7638 21.825C67.7638 22.315 67.3938 22.825 66.6538 23.355C65.9238 23.885 64.9288 24.15 63.6688 24.15C62.4188 24.15 61.3938 23.825 60.5938 23.175C59.8038 22.515 59.4088 21.61 59.4088 20.46V19.74C59.4088 18.65 59.8138 17.765 60.6238 17.085C61.4338 16.395 62.4938 16.05 63.8038 16.05C65.1238 16.05 66.1438 16.435 66.8638 17.205C67.5938 17.975 67.9588 18.95 67.9588 20.13V20.58C67.9588 20.69 67.9188 20.785 67.8388 20.865C67.7588 20.945 67.6638 20.985 67.5538 20.985ZM64.2838 19.05C64.2838 18.45 64.0838 18.15 63.6838 18.15C63.2838 18.15 63.0838 18.45 63.0838 19.05V19.11H64.2838V19.05Z" fill="#4262C5"/>
<path d="M74.7935 24H72.3935C72.1835 24 72.0185 23.875 71.8985 23.625L69.0185 16.68C69.0085 16.65 69.0035 16.6 69.0035 16.53C69.0035 16.46 69.0385 16.39 69.1085 16.32C69.1785 16.25 69.2635 16.215 69.3635 16.215H71.8985C72.1385 16.215 72.3035 16.335 72.3935 16.575L73.5935 20.055L74.7935 16.56C74.8835 16.32 75.0485 16.2 75.2885 16.2H77.8235C77.9235 16.2 78.0085 16.235 78.0785 16.305C78.1485 16.375 78.1835 16.445 78.1835 16.515C78.1835 16.585 78.1785 16.635 78.1685 16.665L75.2885 23.625C75.1685 23.875 75.0035 24 74.7935 24Z" fill="#4262C5"/>
<defs>
<filter id="filter0_d_715_4224" x="63.2006" y="8.19277" width="17.89" height="8.04385" filterUnits="userSpaceOnUse" color-interpolation-filters="sRGB">
<feFlood flood-opacity="0" result="BackgroundImageFix"/>
<feColorMatrix in="SourceAlpha" type="matrix" values="0 0 0 0 0 0 0 0 0 0 0 0 0 0 0 0 0 0 127 0" result="hardAlpha"/>
<feOffset dx="4.5" dy="0.9"/>
<feGaussianBlur stdDeviation="0.9"/>
<feComposite in2="hardAlpha" operator="out"/>
<feColorMatrix type="matrix" values="0 0 0 0 0 0 0 0 0 0 0 0 0 0 0 0 0 0 0.15 0"/>
<feBlend mode="normal" in2="BackgroundImageFix" result="effect1_dropShadow_715_4224"/>
<feBlend mode="normal" in="SourceGraphic" in2="effect1_dropShadow_715_4224" result="shape"/>
</filter>
<filter id="filter1_d_715_4224" x="11.0616" y="27.5599" width="34.1781" height="5.70466" filterUnits="userSpaceOnUse" color-interpolation-filters="sRGB">
<feFlood flood-opacity="0" result="BackgroundImageFix"/>
<feColorMatrix in="SourceAlpha" type="matrix" values="0 0 0 0 0 0 0 0 0 0 0 0 0 0 0 0 0 0 127 0" result="hardAlpha"/>
<feOffset dx="-0.9" dy="-0.9"/>
<feGaussianBlur stdDeviation="0.45"/>
<feComposite in2="hardAlpha" operator="out"/>
<feColorMatrix type="matrix" values="0 0 0 0 0 0 0 0 0 0 0 0 0 0 0 0 0 0 0.15 0"/>
<feBlend mode="normal" in2="BackgroundImageFix" result="effect1_dropShadow_715_4224"/>
<feBlend mode="normal" in="SourceGraphic" in2="effect1_dropShadow_715_4224" result="shape"/>
</filter>
</defs>
</svg>
