<svg width="98" height="34" viewBox="0 0 98 34" fill="none" xmlns="http://www.w3.org/2000/svg">
<path d="M4.45243 26.0745C4.01107 26.0745 3.61734 25.9796 3.27117 25.7897C2.92502 25.6069 2.65242 25.3503 2.45339 25.0199C2.26301 24.6894 2.1678 24.3133 2.1678 23.8913V20.7484C2.1678 20.1226 2.0856 19.6479 1.92117 19.3245C1.76541 18.994 1.48848 18.7585 1.0904 18.6179C0.856751 18.5053 0.683674 18.3823 0.571175 18.2487C0.467329 18.1081 0.415405 17.9218 0.415405 17.6897V17.4577C0.415405 17.2257 0.467329 17.0394 0.571175 16.8987C0.683674 16.7581 0.856751 16.6316 1.0904 16.5191C1.48848 16.3855 1.76541 16.1569 1.92117 15.8335C2.0856 15.503 2.1678 15.0284 2.1678 14.4097V11.2562C2.1678 10.8343 2.26301 10.4581 2.45339 10.1276C2.65242 9.79717 2.92502 9.54052 3.27117 9.35772C3.61734 9.17491 4.01107 9.0835 4.45243 9.0835H5.36107C5.60338 9.0835 5.77647 9.14326 5.88031 9.26279C5.99281 9.3753 6.04907 9.56162 6.04907 9.82178V10.0854C6.04907 10.3315 6.00146 10.5179 5.90627 10.6444C5.81108 10.771 5.65964 10.8378 5.45194 10.8448H5.49088C5.24859 10.8448 5.0755 10.8976 4.97166 11.003C4.87645 11.1015 4.82887 11.2702 4.82887 11.5093V14.705C4.82887 15.394 4.6904 15.9882 4.41347 16.4874C4.14522 16.9796 3.76011 17.3416 3.2582 17.5738C3.76876 17.8128 4.15819 18.1784 4.42647 18.6706C4.69474 19.1557 4.82887 19.7464 4.82887 20.4425V23.6382C4.82887 23.8702 4.87213 24.0389 4.95867 24.1445C5.04521 24.2499 5.18367 24.3026 5.37406 24.3026H5.40003C5.62502 24.3167 5.78944 24.3835 5.8933 24.503C5.99714 24.6226 6.04907 24.8089 6.04907 25.0621V25.3152C6.04907 25.5823 5.99281 25.7757 5.88031 25.8952C5.77647 26.0148 5.60338 26.0745 5.36107 26.0745H4.45243Z" fill="#362999"/>
<path d="M92.3012 27.0745C92.0589 27.0745 91.8815 27.0148 91.7689 26.8952C91.6651 26.7757 91.6132 26.5823 91.6132 26.3152V26.0621C91.6132 25.7948 91.6608 25.6014 91.756 25.4819C91.8599 25.3624 92.0286 25.3026 92.2624 25.3026H92.2753C92.4743 25.3026 92.617 25.2464 92.7037 25.1338C92.7902 25.0284 92.8334 24.8633 92.8334 24.6382V21.4425C92.8334 20.7464 92.9676 20.1557 93.2359 19.6706C93.504 19.1784 93.8936 18.8128 94.404 18.5738C93.9021 18.3416 93.5127 17.9796 93.2359 17.4874C92.9676 16.9882 92.8334 16.394 92.8334 15.705V12.5093C92.8334 12.2632 92.7902 12.0909 92.7037 11.9925C92.617 11.894 92.4527 11.8448 92.2104 11.8448H92.1844C91.9853 11.8448 91.8382 11.7815 91.7431 11.655C91.6566 11.5284 91.6132 11.3386 91.6132 11.0854V10.8218C91.6132 10.5616 91.6651 10.3753 91.7689 10.2628C91.8815 10.1433 92.0589 10.0835 92.3012 10.0835H93.2098C93.6426 10.0835 94.032 10.1784 94.3781 10.3683C94.733 10.5511 95.0055 10.8077 95.1959 11.1382C95.3949 11.4616 95.4945 11.8343 95.4945 12.2562V15.4097C95.4945 16.0284 95.5723 16.503 95.7281 16.8335C95.8926 17.1569 96.1738 17.3855 96.5719 17.5191C96.8055 17.6316 96.9742 17.7581 97.0781 17.8987C97.1906 18.0394 97.247 18.2257 97.247 18.4577V18.6897C97.247 18.9218 97.1906 19.1081 97.0781 19.2487C96.9742 19.3823 96.8055 19.5053 96.5719 19.6179C96.1738 19.7585 95.8926 19.994 95.7281 20.3245C95.5723 20.6479 95.4945 21.1226 95.4945 21.7484V24.8913C95.4945 25.3133 95.3949 25.6894 95.1959 26.0199C95.0055 26.3503 94.733 26.6069 94.3781 26.7897C94.032 26.9796 93.6426 27.0745 93.2098 27.0745H92.3012Z" fill="#362999"/>
<g filter="url(#filter0_d_715_4148)">
<path d="M88.4372 5.29473C88.1343 4.66334 87.609 4.11846 86.9274 3.7281C86.2456 3.33776 85.4372 3.11925 84.6035 3.09989C84.5851 3.09924 84.5681 3.10362 84.5498 3.10416C84.5257 3.10004 84.5011 3.09738 84.4765 3.09619C80.5868 2.99994 76.363 4.94607 75.1667 8.19089C74.2596 7.36237 72.9231 6.89118 71.5812 7.06396C69.8693 7.2844 68.4887 8.48547 68.2056 9.93433C68.1907 10.0212 68.2093 10.1097 68.2586 10.1878C68.3079 10.2658 68.3855 10.3297 68.4808 10.3707C68.8054 10.5291 69.0274 10.6407 69.4062 10.6761C70.119 10.7428 70.8327 10.7986 71.5478 10.8437C72.9428 10.9316 74.3401 10.9797 75.7393 10.9879C78.5788 11.0054 81.4159 10.8555 84.2285 10.5392C85.1652 10.4339 86.068 10.3298 86.8833 9.90163C87.4818 9.57796 87.9654 9.13275 88.2866 8.61022C88.9177 7.61329 88.9542 6.34278 88.4372 5.29473Z" fill="#3F3D56"/>
<path d="M88.0357 5.49549C87.7537 4.93659 87.2732 4.45863 86.6554 4.12259C86.0144 3.78155 85.2686 3.59294 84.5024 3.57807L84.4567 3.58197L84.4134 3.57941C84.3994 3.5771 84.3853 3.57562 84.3709 3.57497C83.0906 3.56087 81.8186 3.74481 80.6228 4.11697C78.3234 4.82429 76.2385 6.21212 75.4425 8.2317L75.3291 8.52146L75.0746 8.29892C74.237 7.57136 73.0751 7.20439 71.9367 7.30161C71.8802 7.30643 71.8237 7.31216 71.7662 7.31974C70.1928 7.51853 68.9027 8.56289 68.6278 9.85971C68.6227 9.90523 68.6351 9.95093 68.6635 9.99039C68.692 10.0299 68.7349 10.0611 68.7863 10.0797L68.8051 10.0889C69.106 10.2269 69.2875 10.3107 69.6049 10.3382C70.2965 10.3973 70.9988 10.4465 71.6922 10.4848C73.0366 10.5597 74.4118 10.5988 75.7777 10.6012C78.1935 10.6056 80.6076 10.4912 83.0066 10.2586C83.3579 10.225 83.7082 10.1888 84.0574 10.1501C84.9565 10.0509 85.8065 9.95594 86.5739 9.57096C87.1229 9.28836 87.5722 8.89479 87.8778 8.42878C88.1658 7.97881 88.3292 7.48307 88.3565 6.97635C88.3838 6.46963 88.2742 5.96419 88.0357 5.49549Z" fill="white"/>
<path d="M83.0065 10.2586C80.6076 10.4911 78.1936 10.6055 75.7777 10.6012C74.4118 10.5988 73.0367 10.5596 71.6922 10.4848C70.9989 10.4464 70.2965 10.3972 69.605 10.3382C69.2876 10.3107 69.1059 10.2269 68.805 10.0888L68.7862 10.0797C68.7348 10.0611 68.6919 10.0298 68.6635 9.99037C68.6352 9.9509 68.6226 9.9052 68.6279 9.85968C68.9028 8.56287 70.1929 7.51851 71.7661 7.31972C71.8236 7.31213 71.8801 7.30641 71.9368 7.30158C73.0752 7.20436 74.2371 7.57133 75.0747 8.29889L75.3292 8.52144L75.4426 8.23167C76.2385 6.21209 78.3233 4.82426 80.6229 4.11694C81.1452 4.42667 81.522 4.93767 81.4121 5.45083C81.2801 6.07327 80.4967 6.52137 80.4371 7.15104C80.3826 7.7257 80.947 8.20722 81.509 8.55832C82.0709 8.90854 82.7135 9.25365 82.934 9.80035C82.9932 9.94807 83.0178 10.1035 83.0065 10.2586Z" fill="#362999"/>
<path d="M86.119 7.69731L86.9192 6.89699L85.9316 6.24932L86.1757 6.00537L87.4642 6.85045L86.4201 7.89471L86.119 7.69731Z" fill="#E6E6E6"/>
<path d="M83.0735 7.94999L82.0851 7.30241L82.8852 6.50208L82.5841 6.30469L81.541 7.34886L82.8294 8.19394L83.0735 7.94999Z" fill="#E6E6E6"/>
<path d="M86.101 7.55693L86.9012 6.75661L85.9136 6.10893L86.1575 5.86499L87.4462 6.71007L86.4019 7.75433L86.101 7.55693Z" fill="#362999"/>
<path d="M83.4616 7.10282L83.8249 7.0718L83.7867 6.77659L83.4233 6.80762L83.4616 7.10282ZM85.2472 6.65186L84.8839 6.68289L84.9222 6.9781L85.2855 6.94707L85.2472 6.65186ZM84.1918 7.04047L84.5551 7.00944L84.517 6.71422L84.1537 6.74525L84.1918 7.04047Z" fill="#0A0A19"/>
<path d="M83.0552 7.80974L82.0669 7.16216L82.8669 6.36182L82.566 6.16443L81.5228 7.20862L82.8113 8.05368L83.0552 7.80974Z" fill="#362999"/>
</g>
<g filter="url(#filter1_d_715_4148)">
<path d="M19.2121 33.2646C20.5102 33.2646 21.5626 32.3905 21.5626 31.3122C21.5626 30.2339 20.5102 29.3599 19.2121 29.3599C17.9139 29.3599 16.8616 30.2339 16.8616 31.3122C16.8616 32.3905 17.9139 33.2646 19.2121 33.2646Z" fill="#362999"/>
<path d="M27.3319 33.2646C28.6301 33.2646 29.6825 32.3905 29.6825 31.3122C29.6825 30.2339 28.6301 29.3599 27.3319 29.3599C26.0338 29.3599 24.9814 30.2339 24.9814 31.3122C24.9814 32.3905 26.0338 33.2646 27.3319 33.2646Z" fill="#362999"/>
<path d="M35.4519 33.2646C36.7501 33.2646 37.8023 32.3905 37.8023 31.3122C37.8023 30.2339 36.7501 29.3599 35.4519 29.3599C34.1537 29.3599 33.1014 30.2339 33.1014 31.3122C33.1014 32.3905 34.1537 33.2646 35.4519 33.2646Z" fill="#362999"/>
<path d="M44.7107 32.8554C44.6736 32.8554 44.6369 32.8495 44.6029 32.8378C44.5687 32.8261 44.5379 32.809 44.512 32.7874L42.926 31.4702C42.8751 31.4281 42.8467 31.3713 42.8467 31.3123C42.8467 31.2532 42.8751 31.1965 42.926 31.1543L44.512 29.8371C44.5638 29.7951 44.6338 29.7712 44.7071 29.7708C44.7803 29.7705 44.8509 29.7935 44.9031 29.8351C44.9556 29.8767 44.9856 29.9335 44.9868 29.9931C44.9879 30.0526 44.96 30.11 44.9094 30.1531L43.5135 31.3123L44.9094 32.4716C44.9476 32.5034 44.9735 32.5436 44.9836 32.5874C44.9939 32.631 44.988 32.6761 44.9668 32.7171C44.9457 32.758 44.9101 32.793 44.8645 32.8177C44.8188 32.8423 44.7654 32.8554 44.7107 32.8554Z" fill="#362999"/>
<path d="M47.3758 32.8554C47.321 32.8554 47.2677 32.8423 47.2221 32.8177C47.1764 32.793 47.1408 32.758 47.1197 32.7171C47.0984 32.6761 47.0926 32.631 47.1028 32.5874C47.1129 32.5436 47.1388 32.5034 47.1771 32.4716L48.5728 31.3123L47.1771 30.1531C47.1264 30.11 47.0986 30.0526 47.0996 29.9931C47.1009 29.9335 47.1308 29.8767 47.1833 29.8351C47.2356 29.7935 47.3061 29.7705 47.3793 29.7708C47.4527 29.7712 47.5227 29.7951 47.5744 29.8371L49.1603 31.1543C49.2112 31.1965 49.2397 31.2532 49.2397 31.3123C49.2397 31.3713 49.2112 31.4281 49.1603 31.4702L47.5744 32.7874C47.5486 32.809 47.5177 32.8261 47.4835 32.8378C47.4495 32.8495 47.4128 32.8554 47.3758 32.8554Z" fill="#969696"/>
</g>
<path d="M10.23 23C10.12 23 10.025 22.96 9.94501 22.88C9.86501 22.8 9.82501 22.705 9.82501 22.595V12.905C9.82501 12.795 9.86501 12.7 9.94501 12.62C10.025 12.54 10.12 12.5 10.23 12.5H17.79C17.9 12.5 17.995 12.54 18.075 12.62C18.155 12.7 18.195 12.795 18.195 12.905V15.185C18.195 15.295 18.155 15.39 18.075 15.47C17.995 15.55 17.9 15.59 17.79 15.59H13.5V16.7H17.49C17.6 16.7 17.695 16.74 17.775 16.82C17.855 16.9 17.895 16.995 17.895 17.105V19.37C17.895 19.48 17.855 19.575 17.775 19.655C17.695 19.735 17.6 19.775 17.49 19.775H13.5V22.595C13.5 22.705 13.46 22.8 13.38 22.88C13.3 22.96 13.205 23 13.095 23H10.23ZM14.25 13.205C14.07 13.185 13.935 13.19 13.845 13.22C13.755 13.25 13.67 13.345 13.59 13.505C13.51 13.665 13.49 13.79 13.53 13.88C13.57 13.97 13.655 14.075 13.785 14.195C13.925 14.325 14.04 14.415 14.13 14.465C14.22 14.515 14.35 14.495 14.52 14.405C14.7 14.305 14.8 14.205 14.82 14.105C14.84 14.005 14.83 13.855 14.79 13.655C14.76 13.485 14.705 13.375 14.625 13.325C14.545 13.265 14.42 13.225 14.25 13.205ZM10.725 13.625C10.725 13.555 10.725 13.5 10.725 13.46C10.725 13.42 10.69 13.39 10.62 13.37C10.49 13.33 10.39 13.365 10.32 13.475C10.27 13.545 10.24 13.605 10.23 13.655C10.22 13.695 10.24 13.75 10.29 13.82C10.39 13.94 10.51 13.975 10.65 13.925C10.72 13.895 10.75 13.855 10.74 13.805C10.73 13.755 10.725 13.695 10.725 13.625ZM17.19 13.55C17.14 13.55 17.11 13.565 17.1 13.595C17.09 13.625 17.075 13.66 17.055 13.7C17.035 13.75 17.015 13.79 16.995 13.82C16.975 13.85 16.985 13.885 17.025 13.925C17.065 13.965 17.1 13.98 17.13 13.97C17.16 13.95 17.205 13.93 17.265 13.91C17.345 13.85 17.38 13.785 17.37 13.715C17.35 13.615 17.29 13.56 17.19 13.55ZM16.02 13.745C16 13.655 15.96 13.605 15.9 13.595C15.85 13.585 15.775 13.575 15.675 13.565C15.595 13.555 15.535 13.56 15.495 13.58C15.455 13.6 15.415 13.65 15.375 13.73C15.345 13.8 15.34 13.855 15.36 13.895C15.38 13.935 15.42 13.985 15.48 14.045C15.56 14.105 15.62 14.155 15.66 14.195C15.71 14.225 15.78 14.215 15.87 14.165C15.96 14.105 16.015 14.05 16.035 14C16.055 13.94 16.05 13.855 16.02 13.745ZM11.595 13.82C11.535 13.78 11.485 13.75 11.445 13.73C11.415 13.71 11.375 13.725 11.325 13.775C11.265 13.825 11.225 13.87 11.205 13.91C11.185 13.95 11.195 14.01 11.235 14.09C11.265 14.16 11.3 14.195 11.34 14.195C11.39 14.195 11.45 14.19 11.52 14.18C11.59 14.17 11.64 14.16 11.67 14.15C11.7 14.13 11.725 14.085 11.745 14.015C11.755 13.955 11.745 13.915 11.715 13.895C11.685 13.875 11.645 13.85 11.595 13.82ZM17.085 14.48L17.01 14.39L16.905 14.435L16.845 14.585L17.025 14.615L17.085 14.48ZM12.99 14.435C12.89 14.405 12.815 14.405 12.765 14.435C12.715 14.465 12.665 14.52 12.615 14.6C12.555 14.7 12.52 14.78 12.51 14.84C12.5 14.89 12.53 14.955 12.6 15.035C12.66 15.115 12.72 15.155 12.78 15.155C12.84 15.145 12.92 15.125 13.02 15.095C13.11 15.055 13.175 15.02 13.215 14.99C13.265 14.95 13.285 14.88 13.275 14.78C13.265 14.67 13.24 14.595 13.2 14.555C13.17 14.505 13.1 14.465 12.99 14.435ZM10.5 15.245L10.41 15.29L10.35 15.41L10.56 15.35L10.5 15.245ZM12 15.365L11.82 15.29L11.715 15.41L11.79 15.53H11.91L12 15.365ZM11.595 16.655C11.595 16.495 11.575 16.38 11.535 16.31C11.495 16.23 11.4 16.17 11.25 16.13C11.09 16.08 10.97 16.07 10.89 16.1C10.81 16.13 10.725 16.215 10.635 16.355C10.535 16.485 10.485 16.595 10.485 16.685C10.495 16.765 10.545 16.87 10.635 17C10.735 17.12 10.825 17.18 10.905 17.18C10.985 17.18 11.095 17.155 11.235 17.105C11.375 17.065 11.47 17.02 11.52 16.97C11.57 16.91 11.595 16.805 11.595 16.655ZM12.66 16.955L12.54 17L12.48 17.15L12.645 17.195L12.78 17.075L12.66 16.955ZM14.145 17.345C14.055 17.265 13.955 17.255 13.845 17.315C13.755 17.365 13.685 17.405 13.635 17.435C13.585 17.455 13.565 17.515 13.575 17.615C13.595 17.715 13.635 17.77 13.695 17.78C13.755 17.78 13.835 17.785 13.935 17.795C14.025 17.805 14.09 17.81 14.13 17.81C14.18 17.8 14.225 17.755 14.265 17.675C14.305 17.595 14.31 17.535 14.28 17.495C14.26 17.455 14.215 17.405 14.145 17.345ZM13.995 18.5C13.995 18.41 14 18.335 14.01 18.275C14.02 18.215 13.98 18.17 13.89 18.14C13.79 18.11 13.71 18.105 13.65 18.125C13.59 18.135 13.53 18.185 13.47 18.275C13.41 18.355 13.4 18.42 13.44 18.47C13.48 18.51 13.53 18.57 13.59 18.65C13.64 18.71 13.68 18.75 13.71 18.77C13.75 18.78 13.805 18.775 13.875 18.755C13.945 18.735 13.98 18.705 13.98 18.665C13.99 18.625 13.995 18.57 13.995 18.5ZM12.51 18.395C12.42 18.335 12.345 18.31 12.285 18.32C12.225 18.33 12.15 18.375 12.06 18.455C11.96 18.535 11.885 18.605 11.835 18.665C11.795 18.715 11.795 18.8 11.835 18.92C11.885 19.05 11.945 19.125 12.015 19.145C12.095 19.155 12.2 19.155 12.33 19.145C12.44 19.135 12.515 19.11 12.555 19.07C12.595 19.02 12.63 18.94 12.66 18.83C12.69 18.72 12.695 18.635 12.675 18.575C12.665 18.515 12.61 18.455 12.51 18.395ZM10.83 18.8L10.755 18.665L10.62 18.77L10.65 18.935H10.815L10.83 18.8ZM15.09 18.68C15.03 18.66 14.985 18.665 14.955 18.695C14.935 18.725 14.905 18.765 14.865 18.815C14.805 18.885 14.8 18.96 14.85 19.04C14.89 19.1 14.92 19.15 14.94 19.19C14.96 19.23 15.005 19.24 15.075 19.22C15.155 19.2 15.2 19.17 15.21 19.13C15.22 19.09 15.225 19.03 15.225 18.95C15.225 18.87 15.22 18.815 15.21 18.785C15.2 18.745 15.16 18.71 15.09 18.68ZM16.41 18.935C16.37 18.885 16.335 18.85 16.305 18.83C16.275 18.81 16.23 18.81 16.17 18.83C16.09 18.86 16.025 18.885 15.975 18.905C15.935 18.925 15.915 18.98 15.915 19.07C15.925 19.17 15.945 19.24 15.975 19.28C16.015 19.31 16.085 19.335 16.185 19.355C16.275 19.385 16.345 19.395 16.395 19.385C16.455 19.375 16.51 19.33 16.56 19.25C16.61 19.18 16.61 19.13 16.56 19.1C16.52 19.06 16.47 19.005 16.41 18.935ZM11.625 19.85C11.605 19.77 11.57 19.72 11.52 19.7C11.48 19.68 11.42 19.67 11.34 19.67C11.22 19.67 11.135 19.73 11.085 19.85C11.055 19.93 11.035 19.995 11.025 20.045C11.025 20.085 11.06 20.135 11.13 20.195C11.2 20.245 11.255 20.27 11.295 20.27C11.345 20.26 11.41 20.23 11.49 20.18C11.56 20.13 11.605 20.085 11.625 20.045C11.655 20.005 11.655 19.94 11.625 19.85ZM12.075 21.335C12.055 21.145 12.03 21 12 20.9C11.97 20.8 11.865 20.73 11.685 20.69C11.465 20.64 11.295 20.63 11.175 20.66C11.065 20.69 10.955 20.8 10.845 20.99C10.735 21.2 10.685 21.365 10.695 21.485C10.715 21.605 10.8 21.75 10.95 21.92C11.09 22.07 11.215 22.135 11.325 22.115C11.435 22.085 11.585 22.03 11.775 21.95C11.935 21.88 12.03 21.805 12.06 21.725C12.09 21.635 12.095 21.505 12.075 21.335Z" fill="#4262C5"/>
<path d="M23.0323 15.605V16.13C23.7323 15.51 24.5123 15.2 25.3723 15.2H26.0923C26.2023 15.2 26.2973 15.24 26.3773 15.32C26.4573 15.4 26.4973 15.495 26.4973 15.605V17.945C26.4973 18.055 26.4573 18.15 26.3773 18.23C26.2973 18.31 26.2023 18.35 26.0923 18.35H24.1573C23.8873 18.35 23.6723 18.415 23.5123 18.545C23.3623 18.665 23.2773 18.83 23.2573 19.04V22.595C23.2573 22.705 23.2173 22.8 23.1373 22.88C23.0573 22.96 22.9623 23 22.8523 23H20.0023C19.8923 23 19.7973 22.96 19.7173 22.88C19.6373 22.8 19.5973 22.705 19.5973 22.595V15.605C19.5973 15.495 19.6373 15.4 19.7173 15.32C19.7973 15.24 19.8923 15.2 20.0023 15.2H22.6273C22.7373 15.2 22.8323 15.24 22.9123 15.32C22.9923 15.4 23.0323 15.495 23.0323 15.605Z" fill="#4262C5"/>
<path d="M35.9214 19.985H31.4514V20.06C31.4514 20.67 31.6464 20.975 32.0364 20.975C32.1464 20.975 32.2814 20.895 32.4414 20.735C32.6014 20.575 32.7764 20.495 32.9664 20.495H35.8014C36.0214 20.495 36.1314 20.605 36.1314 20.825C36.1314 21.315 35.7614 21.825 35.0214 22.355C34.2914 22.885 33.2964 23.15 32.0364 23.15C30.7864 23.15 29.7614 22.825 28.9614 22.175C28.1714 21.515 27.7764 20.61 27.7764 19.46V18.74C27.7764 17.65 28.1814 16.765 28.9914 16.085C29.8014 15.395 30.8614 15.05 32.1714 15.05C33.4914 15.05 34.5114 15.435 35.2314 16.205C35.9614 16.975 36.3264 17.95 36.3264 19.13V19.58C36.3264 19.69 36.2864 19.785 36.2064 19.865C36.1264 19.945 36.0314 19.985 35.9214 19.985ZM32.6514 18.05C32.6514 17.45 32.4514 17.15 32.0514 17.15C31.6514 17.15 31.4514 17.45 31.4514 18.05V18.11H32.6514V18.05Z" fill="#4262C5"/>
<path d="M37.6711 19.685V18.5C37.6711 17.38 37.9711 16.525 38.5711 15.935C39.1711 15.345 39.9011 15.05 40.7611 15.05C41.6311 15.05 42.3261 15.285 42.8461 15.755V12.755C42.8461 12.645 42.8861 12.55 42.9661 12.47C43.0461 12.39 43.1411 12.35 43.2511 12.35H46.0261C46.1361 12.35 46.2311 12.39 46.3111 12.47C46.3911 12.55 46.4311 12.645 46.4311 12.755V22.595C46.4311 22.705 46.3911 22.8 46.3111 22.88C46.2311 22.96 46.1361 23 46.0261 23H43.4761C43.3661 23 43.2711 22.96 43.1911 22.88C43.1111 22.8 43.0711 22.705 43.0711 22.595V22.145C42.5511 22.815 41.8161 23.15 40.8661 23.15C39.9161 23.15 39.1461 22.87 38.5561 22.31C37.9661 21.74 37.6711 20.865 37.6711 19.685ZM42.8461 19.595V18.485C42.8161 17.985 42.5661 17.735 42.0961 17.735C41.5961 17.735 41.3461 18.025 41.3461 18.605V19.595C41.3461 20.175 41.5961 20.465 42.0961 20.465C42.5961 20.465 42.8461 20.175 42.8461 19.595Z" fill="#4262C5"/>
<path d="M48.0053 19.685V18.5C48.0053 17.38 48.3053 16.525 48.9053 15.935C49.5053 15.345 50.2353 15.05 51.0953 15.05C51.9653 15.05 52.6603 15.285 53.1803 15.755V12.755C53.1803 12.645 53.2203 12.55 53.3003 12.47C53.3803 12.39 53.4753 12.35 53.5853 12.35H56.3603C56.4703 12.35 56.5653 12.39 56.6453 12.47C56.7253 12.55 56.7653 12.645 56.7653 12.755V22.595C56.7653 22.705 56.7253 22.8 56.6453 22.88C56.5653 22.96 56.4703 23 56.3603 23H53.8103C53.7003 23 53.6053 22.96 53.5253 22.88C53.4453 22.8 53.4053 22.705 53.4053 22.595V22.145C52.8853 22.815 52.1503 23.15 51.2003 23.15C50.2503 23.15 49.4803 22.87 48.8903 22.31C48.3003 21.74 48.0053 20.865 48.0053 19.685ZM53.1803 19.595V18.485C53.1503 17.985 52.9003 17.735 52.4303 17.735C51.9303 17.735 51.6803 18.025 51.6803 18.605V19.595C51.6803 20.175 51.9303 20.465 52.4303 20.465C52.9303 20.465 53.1803 20.175 53.1803 19.595Z" fill="#4262C5"/>
<path d="M58.4145 15.2H60.9495C61.1795 15.2 61.3395 15.32 61.4295 15.56L62.6595 18.98L63.9345 15.56C64.0345 15.32 64.2045 15.2 64.4445 15.2H66.9495C67.0395 15.2 67.1195 15.235 67.1895 15.305C67.2595 15.365 67.2945 15.43 67.2945 15.5C67.2945 15.57 67.2895 15.625 67.2795 15.665L63.0495 25.49C62.9495 25.73 62.7745 25.85 62.5245 25.85H60.0645C59.9745 25.85 59.8945 25.82 59.8245 25.76C59.7645 25.7 59.7345 25.625 59.7345 25.535C59.7345 25.455 59.7395 25.405 59.7495 25.385L60.9495 22.505L58.0545 15.665C58.0445 15.635 58.0395 15.6 58.0395 15.56C58.0795 15.32 58.2045 15.2 58.4145 15.2Z" fill="#4262C5"/>
<path d="M72.6435 23.15C72.0235 23.15 71.4285 23.07 70.8585 22.91C70.2985 22.75 69.7935 22.515 69.3435 22.205C68.9035 21.885 68.5535 21.5 68.2935 21.05C68.0335 20.59 67.8985 20.065 67.8885 19.475C67.8885 19.385 67.9185 19.31 67.9785 19.25C68.0485 19.18 68.1285 19.145 68.2185 19.145H71.2785C71.4485 19.145 71.5735 19.185 71.6535 19.265C71.7435 19.335 71.8235 19.455 71.8935 19.625C71.9935 19.825 72.0985 19.975 72.2085 20.075C72.3285 20.175 72.5135 20.225 72.7635 20.225C73.0335 20.225 73.2485 20.14 73.4085 19.97C73.5685 19.79 73.6485 19.47 73.6485 19.01V15.545H69.1935C69.0835 15.545 68.9885 15.505 68.9085 15.425C68.8285 15.345 68.7885 15.25 68.7885 15.14V12.905C68.7885 12.795 68.8285 12.7 68.9085 12.62C68.9885 12.54 69.0835 12.5 69.1935 12.5H77.1285C77.2385 12.5 77.3335 12.54 77.4135 12.62C77.4935 12.7 77.5335 12.795 77.5335 12.905V19.13C77.5335 20.05 77.3135 20.81 76.8735 21.41C76.4435 22 75.8585 22.44 75.1185 22.73C74.3785 23.01 73.5535 23.15 72.6435 23.15ZM76.9335 12.95L76.7535 13.025L76.6635 13.16L76.8135 13.265L76.9335 13.145V12.95ZM72.5835 13.25C72.5435 13.21 72.5135 13.175 72.4935 13.145C72.4735 13.115 72.4385 13.11 72.3885 13.13C72.3385 13.16 72.3185 13.19 72.3285 13.22C72.3385 13.25 72.3485 13.295 72.3585 13.355C72.3685 13.405 72.3735 13.445 72.3735 13.475C72.3735 13.505 72.3935 13.525 72.4335 13.535C72.5035 13.545 72.5685 13.505 72.6285 13.415C72.6485 13.365 72.6335 13.31 72.5835 13.25ZM71.6685 13.64C71.6485 13.5 71.6185 13.4 71.5785 13.34C71.5385 13.28 71.4535 13.235 71.3235 13.205C71.1935 13.175 71.0985 13.185 71.0385 13.235C70.9885 13.285 70.9335 13.365 70.8735 13.475C70.8035 13.605 70.7535 13.705 70.7235 13.775C70.7035 13.845 70.7385 13.93 70.8285 14.03C70.9385 14.16 71.0335 14.25 71.1135 14.3C71.1935 14.34 71.3135 14.325 71.4735 14.255C71.6235 14.195 71.6985 14.12 71.6985 14.03C71.6985 13.93 71.6885 13.8 71.6685 13.64ZM74.2935 13.385C74.2435 13.365 74.2085 13.365 74.1885 13.385C74.1685 13.405 74.1385 13.435 74.0985 13.475C74.0585 13.515 74.0235 13.55 73.9935 13.58C73.9635 13.61 73.9685 13.65 74.0085 13.7C74.0385 13.76 74.0735 13.79 74.1135 13.79C74.1535 13.79 74.2035 13.785 74.2635 13.775C74.3535 13.745 74.4035 13.68 74.4135 13.58C74.4235 13.48 74.3835 13.415 74.2935 13.385ZM76.9185 13.565L76.7835 13.52L76.6935 13.55L76.7235 13.67L76.8585 13.715L76.9185 13.565ZM75.3135 13.655L75.1935 13.58L75.1335 13.685L75.1485 13.805L75.2535 13.76L75.3135 13.655ZM73.0935 14.165C73.0535 14.055 72.9935 14.005 72.9135 14.015C72.8435 14.025 72.7435 14.035 72.6135 14.045C72.4735 14.055 72.3535 14.055 72.2535 14.045C72.1535 14.025 72.0885 14.085 72.0585 14.225C72.0285 14.375 72.0485 14.475 72.1185 14.525C72.1885 14.575 72.2935 14.64 72.4335 14.72C72.5335 14.78 72.6135 14.805 72.6735 14.795C72.7335 14.775 72.8035 14.725 72.8835 14.645C72.9835 14.555 73.0535 14.485 73.0935 14.435C73.1435 14.375 73.1435 14.285 73.0935 14.165ZM76.3185 14.3C76.2485 14.21 76.1835 14.16 76.1235 14.15C76.0635 14.13 75.9835 14.14 75.8835 14.18C75.7935 14.21 75.7535 14.255 75.7635 14.315C75.7735 14.375 75.7785 14.455 75.7785 14.555C75.7785 14.645 75.7785 14.715 75.7785 14.765C75.7885 14.815 75.8385 14.85 75.9285 14.87C76.0185 14.9 76.0835 14.9 76.1235 14.87C76.1735 14.84 76.2235 14.785 76.2735 14.705C76.3235 14.615 76.3585 14.545 76.3785 14.495C76.4085 14.445 76.3885 14.38 76.3185 14.3ZM74.8485 14.345C74.7985 14.305 74.7585 14.275 74.7285 14.255C74.6985 14.235 74.6585 14.24 74.6085 14.27C74.5585 14.31 74.5335 14.35 74.5335 14.39C74.5435 14.42 74.5585 14.465 74.5785 14.525C74.5885 14.575 74.6085 14.6 74.6385 14.6C74.6685 14.59 74.7085 14.585 74.7585 14.585C74.8185 14.585 74.8585 14.555 74.8785 14.495C74.8985 14.425 74.8885 14.375 74.8485 14.345ZM70.3485 14.48C70.2885 14.39 70.2335 14.335 70.1835 14.315C70.1335 14.285 70.0585 14.285 69.9585 14.315C69.8185 14.335 69.7085 14.355 69.6285 14.375C69.5485 14.385 69.4985 14.46 69.4785 14.6C69.4685 14.76 69.4885 14.875 69.5385 14.945C69.5885 15.005 69.6835 15.065 69.8235 15.125C69.9435 15.175 70.0285 15.175 70.0785 15.125C70.1385 15.075 70.2135 15 70.3035 14.9C70.3735 14.82 70.4085 14.755 70.4085 14.705C70.4185 14.645 70.3985 14.57 70.3485 14.48ZM75.2085 14.99C75.1385 14.99 75.0985 15.01 75.0885 15.05C75.0785 15.09 75.0635 15.145 75.0435 15.215C75.0135 15.285 74.9935 15.34 74.9835 15.38C74.9735 15.41 74.9935 15.445 75.0435 15.485C75.1035 15.535 75.1485 15.55 75.1785 15.53C75.2185 15.51 75.2635 15.48 75.3135 15.44C75.3735 15.4 75.4085 15.37 75.4185 15.35C75.4385 15.32 75.4385 15.275 75.4185 15.215C75.3985 15.135 75.3785 15.08 75.3585 15.05C75.3385 15.01 75.2885 14.99 75.2085 14.99ZM77.1135 15.095C77.0635 15.065 77.0235 15.06 76.9935 15.08C76.9735 15.09 76.9385 15.11 76.8885 15.14C76.8485 15.18 76.8185 15.215 76.7985 15.245C76.7785 15.265 76.7785 15.3 76.7985 15.35C76.8185 15.4 76.8435 15.42 76.8735 15.41C76.9035 15.4 76.9435 15.395 76.9935 15.395C77.0435 15.395 77.0835 15.4 77.1135 15.41C77.1535 15.41 77.1785 15.385 77.1885 15.335C77.2185 15.235 77.1935 15.155 77.1135 15.095ZM74.6385 15.695L74.4885 15.635L74.3985 15.725L74.4435 15.845L74.6085 15.875L74.6385 15.695ZM76.5285 16.97C76.5285 16.75 76.4735 16.61 76.3635 16.55C76.2535 16.49 76.0885 16.425 75.8685 16.355C75.6785 16.295 75.5285 16.27 75.4185 16.28C75.3085 16.28 75.1935 16.365 75.0735 16.535C74.9335 16.715 74.8585 16.865 74.8485 16.985C74.8385 17.105 74.8985 17.255 75.0285 17.435C75.1785 17.635 75.3085 17.77 75.4185 17.84C75.5385 17.91 75.7185 17.905 75.9585 17.825C76.1985 17.745 76.3535 17.65 76.4235 17.54C76.4935 17.42 76.5285 17.23 76.5285 16.97ZM76.7085 18.185C76.6585 18.165 76.6185 18.165 76.5885 18.185C76.5685 18.205 76.5435 18.24 76.5135 18.29C76.4735 18.34 76.4435 18.38 76.4235 18.41C76.4035 18.43 76.4135 18.465 76.4535 18.515C76.4935 18.565 76.5285 18.585 76.5585 18.575C76.5985 18.565 76.6435 18.55 76.6935 18.53C76.7535 18.52 76.7835 18.47 76.7835 18.38C76.7835 18.33 76.7835 18.29 76.7835 18.26C76.7835 18.22 76.7585 18.195 76.7085 18.185ZM74.7285 19.43L74.6235 19.25L74.4735 19.37V19.505L74.5935 19.535L74.7285 19.43ZM76.2735 19.505C76.0835 19.485 75.9335 19.485 75.8235 19.505C75.7235 19.525 75.6335 19.62 75.5535 19.79C75.4635 19.99 75.4235 20.15 75.4335 20.27C75.4535 20.38 75.5435 20.51 75.7035 20.66C75.8435 20.79 75.9585 20.815 76.0485 20.735C76.1485 20.655 76.2785 20.57 76.4385 20.48C76.5785 20.4 76.6785 20.335 76.7385 20.285C76.8085 20.225 76.8285 20.12 76.7985 19.97C76.7685 19.8 76.7135 19.685 76.6335 19.625C76.5635 19.565 76.4435 19.525 76.2735 19.505ZM70.9935 19.805L70.8435 19.67L70.6785 19.745L70.6635 19.94H70.8435L70.9935 19.805ZM69.3735 20.27C69.2735 20.22 69.1885 20.175 69.1185 20.135C69.0585 20.095 68.9885 20.115 68.9085 20.195C68.8185 20.285 68.7835 20.365 68.8035 20.435C68.8235 20.495 68.8585 20.585 68.9085 20.705C68.9585 20.795 69.0085 20.855 69.0585 20.885C69.1085 20.915 69.1835 20.925 69.2835 20.915C69.4135 20.895 69.5035 20.87 69.5535 20.84C69.6135 20.81 69.6585 20.735 69.6885 20.615C69.7085 20.505 69.6835 20.435 69.6135 20.405C69.5535 20.375 69.4735 20.33 69.3735 20.27ZM72.0285 20.66C71.8485 20.48 71.6935 20.375 71.5635 20.345C71.4335 20.305 71.2535 20.34 71.0235 20.45C70.7835 20.56 70.6335 20.68 70.5735 20.81C70.5235 20.93 70.5185 21.12 70.5585 21.38C70.5885 21.6 70.6685 21.72 70.7985 21.74C70.9285 21.76 71.0985 21.785 71.3085 21.815C71.4885 21.855 71.6235 21.865 71.7135 21.845C71.8135 21.825 71.9085 21.735 71.9985 21.575C72.0985 21.375 72.1685 21.215 72.2085 21.095C72.2485 20.975 72.1885 20.83 72.0285 20.66ZM74.5185 20.435C74.3485 20.425 74.2135 20.43 74.1135 20.45C74.0235 20.46 73.9485 20.545 73.8885 20.705C73.8285 20.855 73.8285 20.97 73.8885 21.05C73.9485 21.12 74.0435 21.21 74.1735 21.32C74.2935 21.41 74.3885 21.46 74.4585 21.47C74.5385 21.48 74.6435 21.445 74.7735 21.365C74.9235 21.265 75.0385 21.18 75.1185 21.11C75.1985 21.04 75.2135 20.92 75.1635 20.75C75.1235 20.57 75.0485 20.475 74.9385 20.465C74.8385 20.455 74.6985 20.445 74.5185 20.435ZM73.3935 20.735C73.3535 20.705 73.3185 20.695 73.2885 20.705C73.2685 20.705 73.2335 20.715 73.1835 20.735C73.1335 20.755 73.0885 20.77 73.0485 20.78C73.0185 20.79 73.0035 20.825 73.0035 20.885C73.0135 20.995 73.0785 21.065 73.1985 21.095C73.2485 21.105 73.2835 21.1 73.3035 21.08C73.3235 21.05 73.3485 21.01 73.3785 20.96C73.4385 20.87 73.4435 20.795 73.3935 20.735ZM73.0935 21.5C73.0435 21.43 72.9985 21.385 72.9585 21.365C72.9185 21.335 72.8585 21.335 72.7785 21.365C72.6485 21.415 72.5835 21.51 72.5835 21.65C72.5835 21.76 72.5885 21.845 72.5985 21.905C72.6185 21.955 72.6735 21.995 72.7635 22.025C72.8835 22.055 72.9735 22.07 73.0335 22.07C73.1035 22.06 73.1735 22.005 73.2435 21.905C73.3035 21.815 73.3085 21.745 73.2585 21.695C73.2085 21.645 73.1535 21.58 73.0935 21.5ZM76.1685 21.455L76.0635 21.5L76.0485 21.635L76.1835 21.71L76.3035 21.56L76.1685 21.455ZM75.7935 21.725L75.6735 21.62L75.5685 21.74L75.6135 21.875L75.7335 21.86L75.7935 21.725ZM74.0835 21.77L73.9335 21.8V21.95L74.0685 22.025L74.1885 21.905L74.0835 21.77Z" fill="#4262C5"/>
<path d="M83.7757 23.15C82.6657 23.15 81.7507 23 81.0307 22.7C80.3107 22.4 79.7707 22.005 79.4107 21.515C79.0507 21.025 78.8607 20.505 78.8407 19.955C78.8407 19.865 78.8707 19.79 78.9307 19.73C79.0007 19.66 79.0807 19.625 79.1707 19.625H82.0207C82.1807 19.625 82.3007 19.65 82.3807 19.7C82.4707 19.74 82.5657 19.8 82.6657 19.88C82.8057 19.99 82.9607 20.075 83.1307 20.135C83.3107 20.195 83.5257 20.225 83.7757 20.225C84.1157 20.225 84.3857 20.19 84.5857 20.12C84.7957 20.04 84.9007 19.935 84.9007 19.805C84.9007 19.625 84.7607 19.49 84.4807 19.4C84.2107 19.3 83.7057 19.2 82.9657 19.1C81.7857 18.94 80.8457 18.6 80.1457 18.08C79.4457 17.56 79.0957 16.8 79.0957 15.8C79.0957 15.12 79.2857 14.52 79.6657 14C80.0557 13.48 80.5907 13.075 81.2707 12.785C81.9607 12.495 82.7607 12.35 83.6707 12.35C84.4207 12.35 85.0857 12.45 85.6657 12.65C86.2457 12.84 86.7357 13.095 87.1357 13.415C87.5357 13.725 87.8407 14.06 88.0507 14.42C88.2607 14.78 88.3707 15.125 88.3807 15.455C88.3807 15.545 88.3457 15.625 88.2757 15.695C88.2157 15.755 88.1457 15.785 88.0657 15.785H85.0657C84.9257 15.785 84.8107 15.765 84.7207 15.725C84.6407 15.685 84.5557 15.625 84.4657 15.545C84.4157 15.495 84.3207 15.44 84.1807 15.38C84.0507 15.31 83.8807 15.275 83.6707 15.275C83.1907 15.275 82.9507 15.415 82.9507 15.695C82.9507 15.835 83.0607 15.96 83.2807 16.07C83.5007 16.17 83.9457 16.26 84.6157 16.34C85.6157 16.46 86.4157 16.655 87.0157 16.925C87.6257 17.185 88.0657 17.535 88.3357 17.975C88.6157 18.415 88.7557 18.96 88.7557 19.61C88.7557 20.34 88.5357 20.97 88.0957 21.5C87.6657 22.03 87.0757 22.44 86.3257 22.73C85.5757 23.01 84.7257 23.15 83.7757 23.15ZM83.8507 12.905C83.7707 12.835 83.7007 12.795 83.6407 12.785C83.5807 12.775 83.5057 12.805 83.4157 12.875C83.3357 12.925 83.3057 12.98 83.3257 13.04C83.3557 13.09 83.3857 13.165 83.4157 13.265C83.4357 13.345 83.4557 13.41 83.4757 13.46C83.4957 13.51 83.5507 13.535 83.6407 13.535C83.7407 13.535 83.8157 13.525 83.8657 13.505C83.9157 13.475 83.9607 13.41 84.0007 13.31C84.0307 13.21 84.0357 13.135 84.0157 13.085C83.9957 13.025 83.9407 12.965 83.8507 12.905ZM82.5007 13.19C82.4307 13.1 82.3657 13.055 82.3057 13.055C82.2457 13.045 82.1607 13.055 82.0507 13.085C81.9307 13.125 81.8407 13.165 81.7807 13.205C81.7207 13.235 81.6907 13.315 81.6907 13.445C81.6907 13.555 81.7257 13.62 81.7957 13.64C81.8757 13.65 81.9707 13.67 82.0807 13.7C82.1807 13.73 82.2607 13.755 82.3207 13.775C82.3807 13.785 82.4407 13.745 82.5007 13.655C82.5707 13.565 82.6057 13.49 82.6057 13.43C82.6057 13.36 82.5707 13.28 82.5007 13.19ZM84.6607 14.075H84.4807L84.5407 14.225L84.6457 14.285L84.7507 14.18L84.6607 14.075ZM83.7307 14.21L83.5957 14.12L83.4457 14.15L83.4757 14.315L83.6407 14.375L83.7307 14.21ZM82.4107 14.555L82.3207 14.54L82.2307 14.645L82.3507 14.705L82.4707 14.66L82.4107 14.555ZM81.1957 14.615C81.0657 14.595 80.9607 14.595 80.8807 14.615C80.8107 14.635 80.7457 14.71 80.6857 14.84C80.5857 15.02 80.4907 15.165 80.4007 15.275C80.3207 15.375 80.3557 15.505 80.5057 15.665C80.6857 15.845 80.8407 15.955 80.9707 15.995C81.1007 16.025 81.2807 15.985 81.5107 15.875C81.7407 15.765 81.8757 15.645 81.9157 15.515C81.9657 15.385 81.9707 15.195 81.9307 14.945C81.9107 14.745 81.8307 14.65 81.6907 14.66C81.5607 14.67 81.3957 14.655 81.1957 14.615ZM87.8857 15.035C87.8857 14.945 87.8757 14.88 87.8557 14.84C87.8357 14.79 87.7857 14.75 87.7057 14.72C87.6257 14.7 87.5757 14.715 87.5557 14.765C87.5357 14.805 87.5007 14.86 87.4507 14.93C87.3907 15.02 87.3857 15.095 87.4357 15.155C87.4857 15.225 87.5207 15.285 87.5407 15.335C87.5707 15.385 87.6257 15.395 87.7057 15.365C87.7957 15.335 87.8457 15.295 87.8557 15.245C87.8757 15.195 87.8857 15.125 87.8857 15.035ZM83.1457 14.855L83.0407 14.78L82.9507 14.87V15.035H83.1457V14.855ZM86.6557 14.855C86.5657 14.805 86.4807 14.82 86.4007 14.9C86.3307 14.97 86.3207 15.05 86.3707 15.14C86.4007 15.22 86.4707 15.25 86.5807 15.23C86.6607 15.21 86.7107 15.16 86.7307 15.08C86.7407 15.02 86.7407 14.975 86.7307 14.945C86.7307 14.905 86.7057 14.875 86.6557 14.855ZM82.2757 16.91C82.2057 16.66 82.1007 16.515 81.9607 16.475C81.8307 16.425 81.6357 16.395 81.3757 16.385C81.1257 16.375 80.9407 16.395 80.8207 16.445C80.7007 16.485 80.5957 16.62 80.5057 16.85C80.4157 17.07 80.4107 17.235 80.4907 17.345C80.5707 17.445 80.7007 17.57 80.8807 17.72C81.0907 17.88 81.2557 18.005 81.3757 18.095C81.4957 18.185 81.6657 18.16 81.8857 18.02C82.1357 17.86 82.2807 17.71 82.3207 17.57C82.3607 17.42 82.3457 17.2 82.2757 16.91ZM83.6407 16.805C83.5707 16.755 83.5157 16.725 83.4757 16.715C83.4357 16.695 83.3757 16.705 83.2957 16.745C83.2057 16.805 83.1307 16.855 83.0707 16.895C83.0207 16.935 83.0107 17.01 83.0407 17.12C83.0707 17.24 83.1057 17.325 83.1457 17.375C83.1957 17.425 83.2857 17.455 83.4157 17.465C83.5557 17.475 83.6557 17.465 83.7157 17.435C83.7757 17.395 83.8357 17.315 83.8957 17.195C83.9357 17.095 83.9207 17.025 83.8507 16.985C83.7907 16.945 83.7207 16.885 83.6407 16.805ZM84.9007 17.24C84.8807 17.15 84.8507 17.09 84.8107 17.06C84.7807 17.03 84.7257 17.015 84.6457 17.015C84.5157 17.015 84.4107 17.005 84.3307 16.985C84.2507 16.965 84.1857 17.015 84.1357 17.135C84.0857 17.275 84.0757 17.38 84.1057 17.45C84.1457 17.52 84.2207 17.6 84.3307 17.69C84.4507 17.78 84.5457 17.835 84.6157 17.855C84.6957 17.865 84.8007 17.83 84.9307 17.75C85.0307 17.68 85.0607 17.61 85.0207 17.54C84.9807 17.46 84.9407 17.36 84.9007 17.24ZM83.9857 18.065C83.9357 18.005 83.8907 17.975 83.8507 17.975C83.8107 17.975 83.7507 17.99 83.6707 18.02C83.5607 18.06 83.5107 18.14 83.5207 18.26C83.5207 18.34 83.5257 18.405 83.5357 18.455C83.5557 18.495 83.6057 18.525 83.6857 18.545C83.7757 18.575 83.8457 18.59 83.8957 18.59C83.9557 18.58 84.0157 18.535 84.0757 18.455C84.1257 18.365 84.1357 18.3 84.1057 18.26C84.0857 18.21 84.0457 18.145 83.9857 18.065ZM87.0007 18.605C86.9607 18.345 86.8657 18.195 86.7157 18.155C86.5757 18.115 86.3807 18.075 86.1307 18.035C85.9007 17.995 85.7257 17.995 85.6057 18.035C85.4957 18.065 85.3907 18.18 85.2907 18.38C85.1907 18.57 85.1807 18.715 85.2607 18.815C85.3407 18.905 85.4507 19.025 85.5907 19.175C85.7507 19.325 85.8757 19.445 85.9657 19.535C86.0557 19.615 86.1957 19.605 86.3857 19.505C86.6357 19.375 86.8107 19.26 86.9107 19.16C87.0107 19.05 87.0407 18.865 87.0007 18.605ZM87.0157 19.805L86.8357 19.79L86.8057 19.94L86.8957 20.09L87.0157 19.97V19.805ZM87.7957 20.015L87.7207 19.88L87.5557 19.955L87.6157 20.105L87.7657 20.195L87.7957 20.015ZM80.8957 20.495C80.7657 20.325 80.6557 20.2 80.5657 20.12C80.4857 20.04 80.3407 20.035 80.1307 20.105C79.9007 20.185 79.7457 20.275 79.6657 20.375C79.5857 20.475 79.5457 20.645 79.5457 20.885C79.5457 21.135 79.5857 21.315 79.6657 21.425C79.7457 21.525 79.9057 21.615 80.1457 21.695C80.3857 21.765 80.5657 21.78 80.6857 21.74C80.8157 21.69 80.9507 21.56 81.0907 21.35C81.2107 21.17 81.2407 21.03 81.1807 20.93C81.1207 20.82 81.0257 20.675 80.8957 20.495ZM82.3357 20.735C82.3057 20.595 82.2857 20.48 82.2757 20.39C82.2757 20.29 82.2057 20.235 82.0657 20.225C81.9257 20.215 81.8507 20.26 81.8407 20.36C81.8307 20.45 81.7957 20.56 81.7357 20.69C81.7057 20.79 81.6857 20.87 81.6757 20.93C81.6757 20.99 81.7157 21.05 81.7957 21.11C81.9057 21.2 81.9907 21.275 82.0507 21.335C82.1207 21.385 82.2207 21.37 82.3507 21.29C82.4607 21.21 82.4957 21.13 82.4557 21.05C82.4157 20.97 82.3757 20.865 82.3357 20.735ZM87.5857 20.585C87.5257 20.565 87.4807 20.555 87.4507 20.555C87.4207 20.545 87.3857 20.56 87.3457 20.6C87.3057 20.65 87.2907 20.69 87.3007 20.72C87.3107 20.75 87.3307 20.79 87.3607 20.84C87.4007 20.91 87.4257 20.97 87.4357 21.02C87.4557 21.07 87.5057 21.085 87.5857 21.065C87.6657 21.055 87.6957 21.025 87.6757 20.975C87.6657 20.915 87.6657 20.845 87.6757 20.765C87.6857 20.675 87.6557 20.615 87.5857 20.585ZM85.3657 20.81C85.3057 20.74 85.2507 20.7 85.2007 20.69C85.1507 20.68 85.0807 20.69 84.9907 20.72C84.9007 20.75 84.8457 20.785 84.8257 20.825C84.8057 20.865 84.7957 20.93 84.7957 21.02C84.7957 21.1 84.8107 21.15 84.8407 21.17C84.8807 21.19 84.9357 21.21 85.0057 21.23C85.0757 21.25 85.1307 21.26 85.1707 21.26C85.2107 21.26 85.2507 21.23 85.2907 21.17C85.3407 21.1 85.3757 21.045 85.3957 21.005C85.4257 20.955 85.4157 20.89 85.3657 20.81ZM86.1457 20.855C86.1057 20.835 86.0707 20.82 86.0407 20.81C86.0207 20.79 85.9907 20.795 85.9507 20.825C85.9107 20.875 85.8857 20.915 85.8757 20.945C85.8657 20.975 85.8757 21.015 85.9057 21.065C85.9357 21.115 85.9657 21.135 85.9957 21.125C86.0257 21.115 86.0707 21.105 86.1307 21.095C86.2007 21.075 86.2407 21.035 86.2507 20.975C86.2607 20.925 86.2257 20.885 86.1457 20.855ZM84.1807 21.185L84.0607 21.2V21.32L84.1657 21.395L84.2257 21.29L84.1807 21.185ZM82.8757 21.44C82.8157 21.4 82.7707 21.39 82.7407 21.41C82.7107 21.43 82.6707 21.46 82.6207 21.5C82.5607 21.55 82.5107 21.585 82.4707 21.605C82.4307 21.625 82.4207 21.675 82.4407 21.755C82.4707 21.825 82.5057 21.865 82.5457 21.875C82.5857 21.885 82.6457 21.89 82.7257 21.89C82.8057 21.89 82.8657 21.885 82.9057 21.875C82.9457 21.855 82.9757 21.81 82.9957 21.74C83.0157 21.66 83.0157 21.605 82.9957 21.575C82.9757 21.535 82.9357 21.49 82.8757 21.44ZM85.8457 22.01C85.8357 21.96 85.8207 21.925 85.8007 21.905C85.7907 21.875 85.7607 21.86 85.7107 21.86C85.6207 21.86 85.5607 21.91 85.5307 22.01C85.5107 22.09 85.5357 22.155 85.6057 22.205C85.6857 22.255 85.7607 22.255 85.8307 22.205C85.8707 22.175 85.8857 22.145 85.8757 22.115C85.8757 22.085 85.8657 22.05 85.8457 22.01Z" fill="#4262C5"/>
<defs>
<filter id="filter0_d_715_4148" x="68.2006" y="2.19277" width="26.8947" height="11.4965" filterUnits="userSpaceOnUse" color-interpolation-filters="sRGB">
<feFlood flood-opacity="0" result="BackgroundImageFix"/>
<feColorMatrix in="SourceAlpha" type="matrix" values="0 0 0 0 0 0 0 0 0 0 0 0 0 0 0 0 0 0 127 0" result="hardAlpha"/>
<feOffset dx="4.5" dy="0.9"/>
<feGaussianBlur stdDeviation="0.9"/>
<feComposite in2="hardAlpha" operator="out"/>
<feColorMatrix type="matrix" values="0 0 0 0 0 0 0 0 0 0 0 0 0 0 0 0 0 0 0.15 0"/>
<feBlend mode="normal" in2="BackgroundImageFix" result="effect1_dropShadow_715_4148"/>
<feBlend mode="normal" in="SourceGraphic" in2="effect1_dropShadow_715_4148" result="shape"/>
</filter>
<filter id="filter1_d_715_4148" x="15.0616" y="27.5599" width="34.1781" height="5.70466" filterUnits="userSpaceOnUse" color-interpolation-filters="sRGB">
<feFlood flood-opacity="0" result="BackgroundImageFix"/>
<feColorMatrix in="SourceAlpha" type="matrix" values="0 0 0 0 0 0 0 0 0 0 0 0 0 0 0 0 0 0 127 0" result="hardAlpha"/>
<feOffset dx="-0.9" dy="-0.9"/>
<feGaussianBlur stdDeviation="0.45"/>
<feComposite in2="hardAlpha" operator="out"/>
<feColorMatrix type="matrix" values="0 0 0 0 0 0 0 0 0 0 0 0 0 0 0 0 0 0 0.15 0"/>
<feBlend mode="normal" in2="BackgroundImageFix" result="effect1_dropShadow_715_4148"/>
<feBlend mode="normal" in="SourceGraphic" in2="effect1_dropShadow_715_4148" result="shape"/>
</filter>
</defs>
</svg>
