<svg width="25" height="25" viewBox="0 0 25 25" fill="none" xmlns="http://www.w3.org/2000/svg">
<g clip-path="url(#clip0_747_1167)">
<path fill-rule="evenodd" clip-rule="evenodd" d="M25 12.5034C25 10.6438 22.9268 8.88239 19.7469 7.78808C20.4814 4.14877 20.1538 1.25423 18.7174 0.326693C18.3858 0.109659 17.9993 0.0068537 17.5761 0.0068537V1.28393C17.8101 1.28393 17.9993 1.33647 18.158 1.43242C18.8517 1.87791 19.1508 3.57763 18.9168 5.76396C18.8599 6.30083 18.7683 6.8674 18.6564 7.4454C17.6575 7.17125 16.567 6.95879 15.4216 6.82171C14.7339 5.76396 14.0198 4.80216 13.3016 3.96144C14.9618 2.22517 16.5202 1.27707 17.5802 1.27707V0C16.1784 0 14.3453 1.12172 12.4898 3.06817C10.6344 1.13314 8.80127 0.0228457 7.3995 0.0228457V1.29992C8.45337 1.29992 10.0179 2.24344 11.6801 3.96601C10.966 4.80673 10.2539 5.76167 9.57642 6.82171C8.42489 6.95879 7.33439 7.17125 6.33545 7.44997C6.21745 6.87883 6.132 6.32368 6.07096 5.79137C5.83089 3.60504 6.12793 1.90533 6.81559 1.45298C6.96818 1.35018 7.16756 1.30449 7.40153 1.30449V0.0296993C6.97428 0.0296993 6.58569 0.132505 6.25 0.349539C4.81771 1.27707 4.49626 4.16705 5.23682 7.79494C2.06299 8.89153 0 10.6484 0 12.5034C0 14.3631 2.07316 16.1245 5.25309 17.2188C4.51864 20.8581 4.84619 23.7526 6.28255 24.6802C6.61418 24.8972 7.00073 25 7.43001 25C8.83179 25 10.6649 23.8783 12.5203 21.9318C14.3758 23.8669 16.2089 24.9772 17.6107 24.9772C18.0379 24.9772 18.4265 24.8743 18.7622 24.6573C20.1945 23.7298 20.516 20.8398 19.7754 17.2119C22.937 16.1199 25 14.3562 25 12.5034ZM14.8234 12.5034C14.8234 11.0596 13.7817 9.8876 12.4939 9.8876C11.2081 9.8876 10.1644 11.0573 10.1644 12.5034C10.1644 13.9496 11.2061 15.1193 12.4939 15.1193C13.7817 15.117 14.8234 13.9473 14.8234 12.5034ZM18.3655 8.68592C18.1763 9.42383 17.9423 10.1846 17.6778 10.9454C17.4683 10.4884 17.2506 10.0292 17.0105 9.57233C16.7765 9.11542 16.5263 8.66764 16.276 8.23357C17.0003 8.35466 17.6982 8.50315 18.3655 8.68592ZM16.0319 14.7811C15.6352 15.5533 15.2262 16.2867 14.8031 16.9675C14.0442 17.0429 13.2751 17.0817 12.5 17.0817C11.731 17.0817 10.9619 17.0406 10.2071 16.972C9.78394 16.2912 9.37093 15.5647 8.9742 14.7971C8.58765 14.0478 8.23568 13.287 7.91423 12.5194C8.22957 11.7518 8.58765 10.9865 8.9681 10.2371C9.36483 9.46495 9.77376 8.73161 10.1969 8.05081C10.9558 7.97542 11.7249 7.93658 12.5 7.93658C13.269 7.93658 14.0381 7.9777 14.7929 8.04624C15.2161 8.72704 15.6291 9.45353 16.0258 10.2211C16.4124 10.9705 16.7643 11.7312 17.0858 12.4989C16.7643 13.2642 16.4144 14.0295 16.0319 14.7811ZM17.6778 14.0364C17.9525 14.804 18.1864 15.5693 18.3818 16.3141C17.7144 16.4968 17.0105 16.6522 16.2821 16.771C16.5324 16.3301 16.7806 15.8777 17.0166 15.414C17.2485 14.9571 17.4683 14.4933 17.6778 14.0364ZM12.5102 20.1407C12.0361 19.5924 11.5621 18.9802 11.0942 18.3108C11.5519 18.3336 12.0219 18.3519 12.4959 18.3519C12.974 18.3519 13.4481 18.3405 13.9119 18.3108C13.4521 18.9802 12.9781 19.5924 12.5102 20.1407ZM8.71989 16.771C7.99561 16.6499 7.29777 16.5014 6.63045 16.3187C6.81966 15.5807 7.05363 14.82 7.31812 14.0592C7.52767 14.5161 7.74536 14.9753 7.98543 15.4322C8.2255 15.8914 8.46965 16.3369 8.71989 16.771ZM12.4837 4.86384C12.9578 5.41214 13.4318 6.0244 13.8997 6.69378C13.442 6.67093 12.972 6.65265 12.498 6.65265C12.0199 6.65265 11.5458 6.66408 11.082 6.69378C11.5417 6.0244 12.0158 5.41214 12.4837 4.86384ZM8.71379 8.23357C8.46354 8.67449 8.21533 9.12684 7.97933 9.59061C7.74536 10.0475 7.52563 10.5067 7.31608 10.9636C7.04142 10.196 6.80745 9.43069 6.61214 8.68592C7.28149 8.50772 7.98543 8.35466 8.71379 8.23357ZM4.10156 15.398C2.29696 14.5344 1.13118 13.4013 1.13118 12.5034C1.13118 11.6056 2.29899 10.4656 4.10156 9.60888C4.53898 9.39642 5.01912 9.20908 5.51351 9.03089C5.80444 10.1526 6.18693 11.32 6.66097 12.5148C6.19303 13.7051 5.81462 14.8657 5.52979 15.9828C5.02523 15.8046 4.54508 15.6104 4.10156 15.398ZM6.84408 23.5744C6.15031 23.1289 5.85124 21.4292 6.08521 19.2429C6.14217 18.706 6.23372 18.1395 6.34562 17.5615C7.34456 17.8356 8.43506 18.0481 9.58049 18.1851C10.2681 19.2429 10.9823 20.2047 11.7004 21.0454C10.0382 22.7794 8.47982 23.7298 7.41984 23.7298C7.18994 23.7229 6.99666 23.6727 6.84408 23.5744ZM18.9311 19.2155C19.1711 21.4018 18.8741 23.1015 18.1864 23.5539C18.0339 23.6567 17.8345 23.7024 17.6005 23.7024C16.5466 23.7024 14.9821 22.7588 13.3199 21.0363C14.034 20.1956 14.7461 19.2406 15.4236 18.1806C16.5751 18.0435 17.6656 17.831 18.6646 17.55C18.7826 18.128 18.8741 18.6832 18.9311 19.2155ZM20.8923 15.398C20.4549 15.6104 19.9748 15.7978 19.4804 15.976C19.1895 14.8542 18.807 13.6868 18.3329 12.492C18.8009 11.3017 19.1793 10.1412 19.4641 9.02403C19.9687 9.20223 20.4468 9.39642 20.8964 9.6066C22.701 10.4702 23.8668 11.6033 23.8668 12.5011C23.8627 13.4013 22.6969 14.539 20.8923 15.398Z" fill="#00D8FF"/>
</g>
<defs>
<clipPath id="clip0_747_1167">
<rect width="25" height="25" fill="white"/>
</clipPath>
</defs>
</svg>
