<?xml version="1.0" standalone="no"?>
<!DOCTYPE svg PUBLIC "-//W3C//DTD SVG 20010904//EN"
 "http://www.w3.org/TR/2001/REC-SVG-20010904/DTD/svg10.dtd">
<svg version="1.0" xmlns="http://www.w3.org/2000/svg"
 width="1952.000000pt" height="1952.000000pt" viewBox="0 0 1952.000000 1952.000000"
 preserveAspectRatio="xMidYMid meet">
<metadata>
Created by potrace 1.14, written by Peter Selinger 2001-2017
</metadata>
<g transform="translate(0.000000,1952.000000) scale(0.100000,-0.100000)"
fill="#000000" stroke="none">
<path d="M1235 13587 c-11 -8 -54 -31 -95 -53 -41 -21 -78 -42 -81 -47 -3 -5
-8 -8 -10 -6 -11 6 -91 -46 -140 -93 -102 -96 -165 -206 -200 -353 -9 -35 -13
-236 -16 -680 -4 -691 -4 -705 -16 -705 -5 0 -6 -4 -3 -9 4 -5 -1 -38 -9 -73
-9 -35 -18 -70 -20 -80 -10 -43 -63 -133 -104 -176 -44 -47 -67 -61 -211 -131
-84 -41 -144 -96 -172 -157 -18 -41 -22 -67 -22 -159 0 -147 13 -188 78 -250
45 -43 94 -73 196 -119 48 -21 109 -67 144 -107 30 -35 84 -133 90 -164 2 -5
8 -28 14 -50 6 -22 14 -58 17 -80 3 -22 8 -56 11 -75 3 -19 7 -316 9 -660 1
-344 5 -640 9 -659 5 -29 17 -72 42 -151 3 -8 5 -17 4 -19 -1 -2 2 -7 7 -10 4
-3 17 -22 27 -41 11 -19 29 -53 41 -76 13 -22 35 -59 49 -82 14 -23 26 -44 26
-46 0 -3 28 -53 63 -113 34 -59 68 -120 76 -135 8 -16 16 -26 18 -24 2 2 5 47
7 100 2 54 6 100 10 103 3 3 22 -2 43 -12 21 -10 54 -22 73 -27 19 -5 44 -11
55 -13 54 -14 116 -18 295 -19 266 -3 330 13 363 92 25 58 33 102 32 177 0 67
1 72 34 104 l34 34 -34 29 c-19 16 -47 42 -64 56 -53 47 -112 70 -203 77 -71
6 -107 29 -134 85 -21 45 -22 50 -24 655 -2 589 -5 670 -20 745 -3 19 -8 42
-9 50 -1 8 -5 22 -8 30 -3 8 -13 41 -22 73 -31 104 -103 235 -169 305 l-31 33
-1 172 -1 172 46 55 c80 96 170 293 186 410 4 24 8 47 10 51 14 21 18 186 20
724 2 667 1 657 61 704 37 29 84 40 194 43 94 3 95 3 96 28 1 14 9 50 19 80
22 67 26 252 6 320 -19 68 -60 108 -131 127 -24 7 -380 9 -439 2 -46 -5 -54
-3 -59 13 -5 21 -30 23 -57 5z m599 -4959 c-12 -13 -32 -35 -44 -50 -13 -16
-28 -28 -33 -28 -8 0 -97 86 -97 93 0 2 44 4 97 6 l97 2 -20 -23z"/>
<path d="M17649 13568 c-135 -17 -178 -90 -173 -298 3 -101 8 -131 34 -187 16
-35 27 -44 67 -57 26 -8 73 -16 103 -17 98 -4 141 -27 168 -89 14 -30 16 -116
18 -640 2 -566 5 -658 19 -735 35 -187 67 -269 168 -430 22 -34 152 -165 165
-165 6 0 12 -4 12 -8 0 -4 29 -25 65 -46 36 -21 65 -40 65 -42 0 -2 -21 -15
-47 -28 -27 -13 -59 -33 -72 -45 -13 -12 -27 -21 -31 -21 -11 0 -127 -122
-160 -168 -75 -105 -147 -288 -164 -417 -4 -27 -10 -66 -13 -85 -3 -19 -6
-309 -8 -645 -1 -559 -3 -613 -19 -650 -29 -63 -68 -86 -155 -90 -70 -4 -134
-22 -160 -46 -63 -59 -76 -331 -20 -440 10 -21 29 -41 41 -45 13 -4 25 -10 28
-15 20 -30 441 -33 591 -4 45 9 136 40 150 52 8 7 19 13 22 13 8 0 105 59 131
80 68 55 173 190 159 204 -4 3 -1 6 6 6 7 0 9 5 6 10 -3 6 -2 10 2 10 10 0 41
80 49 126 3 16 8 43 13 59 4 17 8 296 9 620 1 537 4 697 17 766 35 188 98 291
227 373 32 20 59 35 61 34 9 -7 123 60 162 95 67 58 89 113 92 232 1 55 -3
118 -8 140 -6 22 -11 42 -11 45 0 13 -59 83 -94 111 -21 17 -80 51 -130 74
-91 43 -111 56 -168 110 -56 53 -106 157 -121 250 -4 22 -9 54 -12 70 -3 17
-6 58 -7 92 -1 35 -3 63 -6 63 -3 0 -5 262 -5 583 -1 543 -3 649 -18 687 -3 8
-11 33 -18 55 -17 57 -72 158 -106 192 -6 7 -20 23 -30 35 -34 43 -118 105
-193 144 -41 21 -75 37 -75 35 0 -3 -10 1 -22 8 -12 6 -46 16 -75 22 -29 6
-64 13 -78 15 -39 9 -390 10 -451 2z"/>
<path d="M13579 13246 c-2 -2 -40 -6 -83 -10 -44 -4 -82 -8 -85 -10 -3 -2 -28
-7 -55 -10 -27 -4 -52 -9 -55 -11 -3 -1 -22 -6 -41 -9 -19 -3 -69 -15 -110
-26 -41 -11 -79 -22 -85 -23 -5 -2 -35 -12 -65 -22 -30 -11 -57 -20 -60 -20
-7 -2 -35 -14 -98 -41 -29 -13 -54 -23 -57 -24 -21 -3 -229 -121 -233 -132 -2
-4 -8 -8 -13 -8 -25 0 -227 -165 -299 -244 -67 -74 -81 -91 -98 -118 -9 -16
-20 -28 -24 -28 -4 0 -8 -5 -8 -12 0 -6 -6 -19 -14 -27 -8 -9 -28 -42 -44 -73
l-29 -58 -20 52 c-22 57 -32 66 -153 124 -86 42 -136 61 -200 75 -25 6 -54 13
-65 15 -176 41 -452 8 -602 -72 -24 -12 -43 -20 -43 -18 0 3 -13 -4 -29 -15
-16 -12 -34 -21 -39 -21 -6 0 -12 -3 -14 -7 -1 -5 -23 -21 -47 -38 -46 -31
-153 -135 -178 -171 -20 -31 -20 -551 0 -571 20 -20 144 -61 202 -67 71 -8
181 -17 245 -21 60 -4 184 -12 295 -20 118 -8 412 -18 558 -19 75 0 137 -4
137 -9 0 -4 6 -5 13 0 16 10 97 10 104 0 2 -4 9 -4 15 -1 15 10 78 11 78 2 0
-4 6 -5 14 -2 11 4 10 17 -10 67 -26 66 -29 87 -14 87 6 0 10 -6 10 -12 0 -10
2 -10 9 0 9 15 82 13 93 -2 5 -7 8 -7 8 1 0 9 29 13 111 12 61 0 114 2 117 5
3 3 11 1 19 -5 7 -6 13 -7 13 -2 0 5 41 9 90 9 50 -1 90 1 90 4 0 3 27 5 59 6
39 0 58 -4 53 -10 -3 -6 1 -6 9 1 8 6 61 14 119 17 176 11 243 15 280 20 19 2
41 -1 49 -7 12 -9 13 -9 7 1 -5 8 0 12 16 12 13 0 47 3 76 6 35 4 57 2 67 -6
13 -11 14 -10 10 3 -5 11 0 15 17 15 66 0 172 13 184 23 11 9 14 8 14 0 0 -7
3 -10 8 -8 4 3 32 8 62 12 71 9 87 12 135 20 22 4 45 8 50 9 6 1 16 5 23 9 6
5 16 6 21 2 5 -3 12 -1 15 4 5 7 42 19 78 25 3 1 10 4 14 9 4 4 18 7 31 7 13
0 23 4 23 8 0 4 25 21 55 37 30 17 55 33 55 37 0 5 3 7 8 5 7 -2 79 59 115
100 11 12 25 20 30 16 6 -4 7 -1 2 7 -5 8 -2 17 7 24 8 6 15 15 16 21 0 5 6
11 13 14 7 2 9 -1 4 -9 -5 -9 -4 -11 4 -6 8 5 9 12 2 20 -6 8 -3 19 9 36 11
14 20 31 20 38 0 7 5 10 12 6 6 -4 8 -3 4 4 -3 6 -1 23 6 39 14 34 15 39 17
59 0 8 4 13 9 11 4 -3 8 29 10 71 1 47 7 79 15 84 8 5 9 8 0 8 -6 0 -10 11 -8
25 1 14 -2 25 -8 25 -5 0 -4 7 3 15 7 8 8 15 3 15 -5 0 -9 10 -9 23 0 28 -12
77 -25 100 -6 12 -6 17 3 17 10 0 10 2 1 8 -6 4 -13 14 -15 22 -2 8 -9 21 -16
28 -7 8 -10 18 -7 23 4 5 1 9 -4 9 -6 0 -11 5 -11 11 0 6 -9 24 -21 40 -11 16
-17 34 -14 39 4 6 3 9 -2 8 -5 -2 -38 26 -73 62 -36 36 -74 72 -85 80 -59 44
-161 100 -182 100 -7 0 -13 5 -13 12 0 6 -3 9 -6 5 -4 -3 -23 1 -43 9 -32 14
-83 27 -151 41 -31 6 -395 15 -401 9z"/>
<path d="M15180 12926 c0 -2 8 -10 18 -17 15 -13 16 -12 3 4 -13 16 -21 21
-21 13z"/>
<path d="M15555 12760 c-3 -5 -1 -10 4 -10 6 0 11 5 11 10 0 6 -2 10 -4 10 -3
0 -8 -4 -11 -10z"/>
<path d="M14955 12731 c-3 -5 -2 -12 3 -15 5 -3 9 1 9 9 0 17 -3 19 -12 6z"/>
<path d="M15116 12638 c3 -5 10 -6 15 -3 13 9 11 12 -6 12 -8 0 -12 -4 -9 -9z"/>
<path d="M15800 12600 c-9 -6 -10 -10 -3 -10 6 0 15 5 18 10 8 12 4 12 -15 0z"/>
<path d="M14996 12522 c-3 -5 1 -9 9 -9 8 0 12 4 9 9 -3 4 -7 8 -9 8 -2 0 -6
-4 -9 -8z"/>
<path d="M15236 12522 c-3 -5 1 -9 9 -9 8 0 12 4 9 9 -3 4 -7 8 -9 8 -2 0 -6
-4 -9 -8z"/>
<path d="M15315 12491 c-3 -5 -2 -12 3 -15 5 -3 9 1 9 9 0 17 -3 19 -12 6z"/>
<path d="M15596 12487 c3 -10 9 -15 12 -12 3 3 0 11 -7 18 -10 9 -11 8 -5 -6z"/>
<path d="M14835 12440 c-3 -5 -1 -10 4 -10 6 0 11 5 11 10 0 6 -2 10 -4 10 -3
0 -8 -4 -11 -10z"/>
<path d="M14910 12439 c0 -5 5 -7 10 -4 6 3 10 8 10 11 0 2 -4 4 -10 4 -5 0
-10 -5 -10 -11z"/>
<path d="M14993 12435 c0 -8 4 -12 9 -9 5 3 6 10 3 15 -9 13 -12 11 -12 -6z"/>
<path d="M15195 12381 c-3 -5 -2 -12 3 -15 5 -3 9 1 9 9 0 17 -3 19 -12 6z"/>
<path d="M15516 12358 c3 -5 10 -6 15 -3 13 9 11 12 -6 12 -8 0 -12 -4 -9 -9z"/>
<path d="M14875 12311 c-3 -5 -2 -12 3 -15 5 -3 9 1 9 9 0 17 -3 19 -12 6z"/>
<path d="M15116 12293 c-6 -14 -5 -15 5 -6 7 7 10 15 7 18 -3 3 -9 -2 -12 -12z"/>
<path d="M14955 12291 c-3 -5 -2 -12 3 -15 5 -3 9 1 9 9 0 17 -3 19 -12 6z"/>
<path d="M14766 12278 c3 -5 10 -6 15 -3 13 9 11 12 -6 12 -8 0 -12 -4 -9 -9z"/>
<path d="M15470 12280 c0 -5 5 -10 11 -10 5 0 7 5 4 10 -3 6 -8 10 -11 10 -2
0 -4 -4 -4 -10z"/>
<path d="M15836 12282 c-3 -5 1 -9 9 -9 8 0 12 4 9 9 -3 4 -7 8 -9 8 -2 0 -6
-4 -9 -8z"/>
<path d="M15073 12265 c0 -8 4 -12 9 -9 5 3 6 10 3 15 -9 13 -12 11 -12 -6z"/>
<path d="M15310 12221 c0 -6 4 -13 10 -16 6 -3 7 1 4 9 -7 18 -14 21 -14 7z"/>
<path d="M15470 12199 c0 -5 5 -7 10 -4 6 3 10 8 10 11 0 2 -4 4 -10 4 -5 0
-10 -5 -10 -11z"/>
<path d="M15555 12200 c3 -5 8 -10 11 -10 2 0 4 5 4 10 0 6 -5 10 -11 10 -5 0
-7 -4 -4 -10z"/>
<path d="M15236 12187 c3 -10 9 -15 12 -12 3 3 0 11 -7 18 -10 9 -11 8 -5 -6z"/>
<path d="M14789 12163 c-13 -16 -12 -17 4 -4 9 7 17 15 17 17 0 8 -8 3 -21
-13z"/>
<path d="M15036 12158 c3 -5 10 -6 15 -3 13 9 11 12 -6 12 -8 0 -12 -4 -9 -9z"/>
<path d="M14910 12141 c0 -6 4 -13 10 -16 6 -3 7 1 4 9 -7 18 -14 21 -14 7z"/>
<path d="M14767 12119 c7 -7 15 -10 18 -7 3 3 -2 9 -12 12 -14 6 -15 5 -6 -5z"/>
<path d="M15473 12045 c0 -8 4 -12 9 -9 5 3 6 10 3 15 -9 13 -12 11 -12 -6z"/>
<path d="M7965 11972 c-61 -18 -130 -86 -146 -145 -8 -28 -12 -172 -12 -440 0
-286 -3 -397 -11 -393 -208 90 -290 111 -476 122 -102 7 -88 7 -180 -1 -77 -6
-125 -12 -125 -15 0 -2 -16 -5 -58 -14 -43 -8 -96 -26 -155 -52 -29 -13 -55
-24 -57 -24 -9 0 -110 -64 -117 -74 -5 -7 -8 -7 -8 -1 0 7 -3 7 -8 0 -4 -6
-25 -23 -46 -39 -65 -49 -170 -161 -221 -236 -45 -67 -112 -210 -130 -275 -5
-16 -9 -32 -10 -35 -2 -10 -15 -65 -20 -87 -3 -13 -7 -33 -10 -45 -16 -69 -20
-177 -19 -493 1 -435 9 -519 71 -705 142 -425 515 -674 1028 -684 80 -2 247
17 288 33 15 6 27 9 27 6 0 -5 70 19 110 36 49 22 145 72 150 78 7 9 58 41 65
41 3 0 5 -6 5 -13 0 -21 61 -83 105 -108 40 -22 42 -23 494 -24 504 -1 509 0
577 64 32 31 48 56 62 101 2 8 5 739 6 1625 2 1544 0 1685 -26 1685 -4 0 -8 6
-8 13 0 20 -61 74 -105 93 -36 16 -89 17 -516 18 -371 1 -487 -2 -524 -12z
m-211 -1925 c46 -31 55 -89 52 -327 -1 -118 -6 -228 -11 -245 -16 -61 -56 -86
-137 -87 -80 0 -125 40 -131 120 -1 17 -4 32 -7 32 -8 0 -4 115 4 128 4 7 3
12 -1 12 -5 0 -8 15 -6 33 5 41 3 98 -3 108 -2 4 0 10 6 14 7 4 7 12 0 24 -5
10 -8 20 -6 22 2 2 7 28 10 57 8 74 33 113 81 125 38 9 124 0 149 -16z"/>
<path d="M15226 11958 c3 -5 10 -6 15 -3 13 9 11 12 -6 12 -8 0 -12 -4 -9 -9z"/>
<path d="M3235 11932 c-11 -2 -27 -6 -35 -9 -8 -3 -18 -6 -22 -5 -3 1 -29 -20
-56 -46 -36 -34 -54 -60 -62 -92 -9 -34 -12 -426 -12 -1630 l0 -1585 22 -48
c27 -57 80 -103 138 -120 32 -10 164 -12 530 -11 268 1 500 5 517 8 30 7 89
47 113 76 45 54 45 63 47 515 l1 430 615 0 614 1 45 23 c73 37 115 90 127 160
8 52 7 770 -1 816 -15 76 -89 153 -163 169 -17 4 -302 7 -632 8 -443 0 -601 3
-603 11 -2 7 -3 32 -2 57 1 25 2 56 3 70 l1 25 648 0 c646 -1 686 1 743 35 63
37 110 127 106 198 -2 20 1 45 5 55 5 9 5 17 1 17 -4 0 -7 57 -5 127 1 71 2
142 1 158 -5 114 -3 283 4 298 4 9 4 17 0 17 -4 0 -9 27 -10 59 -1 64 -16 100
-60 146 -24 26 -66 53 -95 61 -5 1 -9 3 -10 4 -4 4 -2490 6 -2513 2z m1326
-417 c19 -3 41 -8 49 -10 19 -6 37 -66 36 -120 -1 -33 -6 -43 -35 -62 -19 -13
-39 -23 -45 -23 -15 0 -140 112 -144 128 -1 7 7 30 18 52 14 28 27 40 47 42
16 2 31 3 34 1 3 -1 21 -5 40 -8z m932 -98 c-7 -12 -33 13 -33 31 0 13 3 12
19 -4 10 -10 16 -23 14 -27z m31 28 c3 -8 1 -15 -4 -15 -6 0 -10 7 -10 15 0 8
2 15 4 15 2 0 6 -7 10 -15z m-1857 -87 c-3 -8 -6 -5 -6 6 -1 11 2 17 5 13 3
-3 4 -12 1 -19z m483 -237 c0 -13 -29 -35 -37 -28 -7 8 15 37 28 37 5 0 9 -4
9 -9z m-544 -544 c7 -8 11 -85 5 -95 -6 -11 -82 -42 -102 -42 -18 0 -49 41
-49 63 0 13 9 33 20 45 11 12 20 25 20 31 0 15 22 18 65 9 22 -5 40 -10 41
-11z m351 -735 c-3 -23 -9 -27 -40 -30 -46 -4 -47 5 -5 40 38 30 50 28 45 -10z
m-252 -712 c28 -1 46 -14 50 -36 2 -10 4 -19 5 -19 1 0 4 -34 7 -76 l5 -76
-54 -23 c-94 -41 -109 -42 -136 -17 -26 24 -62 88 -62 110 0 17 46 106 68 130
12 13 26 16 56 13 23 -3 50 -5 61 -6z"/>
<path d="M14995 11921 c-3 -5 -2 -12 3 -15 5 -3 9 1 9 9 0 17 -3 19 -12 6z"/>
<path d="M15150 11920 c0 -5 5 -10 11 -10 5 0 7 5 4 10 -3 6 -8 10 -11 10 -2
0 -4 -4 -4 -10z"/>
<path d="M14593 11885 c0 -8 4 -12 9 -9 5 3 6 10 3 15 -9 13 -12 11 -12 -6z"/>
<path d="M14675 11891 c-3 -5 -2 -12 3 -15 5 -3 9 1 9 9 0 17 -3 19 -12 6z"/>
<path d="M14233 11845 c0 -8 4 -12 9 -9 5 3 6 10 3 15 -9 13 -12 11 -12 -6z"/>
<path d="M13660 11766 c0 -2 8 -10 18 -17 15 -13 16 -12 3 4 -13 16 -21 21
-21 13z"/>
<path d="M15555 11731 c-3 -5 -2 -12 3 -15 5 -3 9 1 9 9 0 17 -3 19 -12 6z"/>
<path d="M13749 11603 c-13 -16 -12 -17 4 -4 9 7 17 15 17 17 0 8 -8 3 -21
-13z"/>
<path d="M12949 11523 c-13 -16 -12 -17 4 -4 9 7 17 15 17 17 0 8 -8 3 -21
-13z"/>
<path d="M13593 11525 c0 -8 4 -12 9 -9 5 3 6 10 3 15 -9 13 -12 11 -12 -6z"/>
<path d="M14230 11519 c0 -5 5 -7 10 -4 6 3 10 8 10 11 0 2 -4 4 -10 4 -5 0
-10 -5 -10 -11z"/>
<path d="M13396 11442 c-3 -5 1 -9 9 -9 8 0 12 4 9 9 -3 4 -7 8 -9 8 -2 0 -6
-4 -9 -8z"/>
<path d="M14396 11442 c-3 -5 1 -9 9 -9 8 0 12 4 9 9 -3 4 -7 8 -9 8 -2 0 -6
-4 -9 -8z"/>
<path d="M13907 11199 c7 -7 15 -10 18 -7 3 3 -2 9 -12 12 -14 6 -15 5 -6 -5z"/>
<path d="M10950 11123 c0 -4 -37 -8 -83 -9 -82 0 -204 -10 -248 -20 -13 -3
-37 -7 -54 -10 -159 -27 -422 -125 -487 -182 -10 -8 -18 -11 -18 -6 0 5 -4 5
-8 -1 -4 -5 -36 -30 -71 -54 -35 -24 -73 -51 -84 -60 -31 -25 -160 -153 -182
-181 -68 -83 -154 -234 -181 -317 -8 -26 -18 -55 -21 -63 -3 -8 -8 -24 -10
-35 -8 -38 -11 -50 -13 -50 -6 0 -22 -113 -25 -180 -2 -33 -5 -62 -5 -65 -5
-19 -2 -329 4 -338 3 -6 2 -13 -4 -17 -6 -4 -7 -11 -4 -17 4 -5 8 -29 10 -52
6 -87 32 -216 55 -281 6 -16 14 -39 18 -50 27 -74 116 -233 163 -291 38 -47
168 -174 198 -194 19 -13 37 -27 40 -31 21 -27 241 -143 330 -174 3 -1 12 -4
20 -8 62 -25 216 -65 275 -72 17 -1 41 -6 55 -9 93 -23 513 -23 625 -1 11 3
38 7 60 10 22 3 47 7 55 10 8 2 27 7 43 10 67 13 84 17 165 45 48 16 112 40
142 53 30 14 59 25 64 25 5 0 12 4 15 9 3 5 27 21 52 36 128 73 357 274 374
327 4 11 11 20 16 20 5 0 9 6 9 14 0 7 6 19 14 25 15 13 52 107 62 161 18 95
0 170 -51 223 l-36 37 25 10 c37 14 75 50 104 99 24 42 26 53 27 187 1 78 -2
172 -6 210 -5 38 -10 87 -13 109 -5 44 -13 87 -23 125 -3 14 -7 27 -7 30 -3
15 -31 102 -49 150 -58 157 -167 326 -292 454 -78 80 -241 204 -266 202 -3 -1
-13 7 -23 17 -10 9 -21 15 -26 12 -5 -3 -10 -2 -12 3 -4 10 -91 47 -172 74
-74 24 -91 28 -171 43 -11 2 -20 4 -20 5 0 7 -134 20 -243 25 -51 3 -97 7
-102 10 -6 4 -10 3 -10 -2z m13 -872 c13 -2 47 -65 47 -87 0 -21 -5 -22 -89
-23 -97 -1 -94 -4 -72 61 15 45 49 60 114 49z m72 -933 c-25 -16 -53 -41 -64
-54 -10 -13 -21 -21 -23 -18 -3 2 -10 -2 -17 -9 -20 -25 -62 -8 -79 32 -8 20
-16 46 -18 59 -3 22 -2 22 122 21 l125 -1 -46 -30z"/>
<path d="M12918 11075 c-4 -4 -62 -9 -130 -11 -147 -5 -148 -5 -142 -15 2 -4
-5 -10 -16 -14 -11 -3 -20 -11 -20 -17 0 -6 -3 -8 -7 -5 -9 9 -50 -49 -64 -91
-20 -60 -4 -128 66 -292 37 -85 68 -159 69 -165 4 -15 23 -59 51 -121 14 -30
25 -58 25 -62 0 -6 51 -130 92 -222 6 -14 14 -34 18 -45 5 -11 15 -36 23 -55
25 -56 117 -282 129 -315 6 -16 16 -33 22 -37 6 -4 8 -8 4 -8 -4 0 1 -19 11
-42 17 -40 32 -76 36 -88 1 -3 10 -23 20 -45 10 -22 19 -45 21 -51 1 -5 11
-30 23 -54 11 -24 21 -47 21 -51 0 -3 10 -28 22 -55 12 -27 23 -51 23 -54 2
-6 13 -33 85 -205 75 -178 83 -198 85 -210 2 -5 16 -39 32 -75 17 -36 34 -76
38 -89 21 -66 90 -146 153 -174 46 -20 60 -21 477 -21 237 1 439 3 450 5 92
22 156 91 213 230 17 42 37 90 43 105 7 16 13 31 14 34 0 3 11 27 23 54 12 27
22 50 22 53 0 2 9 25 21 51 11 26 24 56 29 67 5 11 50 121 100 245 51 124 98
239 105 255 8 17 41 98 75 180 34 83 71 169 81 192 10 24 19 47 19 51 0 5 6
22 14 38 26 53 56 123 56 129 0 3 9 25 19 48 39 86 123 293 128 315 3 12 9 22
14 22 5 0 8 3 8 8 -1 4 0 10 1 15 1 4 3 10 5 15 2 9 15 40 76 185 27 66 52
138 54 160 9 90 -36 166 -122 208 -44 21 -54 22 -502 21 -451 0 -457 0 -504
-22 -74 -35 -118 -93 -157 -207 -18 -54 -38 -109 -43 -123 -6 -14 -11 -32 -13
-40 -2 -8 -7 -23 -12 -35 -5 -11 -21 -58 -36 -105 -15 -47 -31 -94 -36 -105
-21 -51 -130 -375 -130 -387 -1 -11 -23 18 -25 32 -4 30 -30 110 -36 110 -4 0
-10 16 -14 36 -3 20 -11 48 -17 63 -13 33 -138 391 -143 411 -21 81 -99 273
-107 265 -2 -3 -11 6 -18 20 -8 15 -39 38 -72 54 l-58 28 -340 -1 c-187 -1
-341 3 -343 7 -1 5 -5 5 -9 2z"/>
<path d="M6029 7643 c-13 -16 -12 -17 4 -4 9 7 17 15 17 17 0 8 -8 3 -21 -13z"/>
<path d="M3430 7576 c0 -2 8 -10 18 -17 15 -13 16 -12 3 4 -13 16 -21 21 -21
13z"/>
<path d="M5190 7561 c0 -6 4 -13 10 -16 6 -3 7 1 4 9 -7 18 -14 21 -14 7z"/>
<path d="M5475 7491 c-3 -5 -2 -12 3 -15 5 -3 9 1 9 9 0 17 -3 19 -12 6z"/>
<path d="M5026 7438 c3 -5 10 -6 15 -3 13 9 11 12 -6 12 -8 0 -12 -4 -9 -9z"/>
<path d="M5265 7440 c-3 -6 1 -7 9 -4 18 7 21 14 7 14 -6 0 -13 -4 -16 -10z"/>
<path d="M8500 7440 c-8 -5 -10 -10 -5 -10 6 0 17 5 25 10 8 5 11 10 5 10 -5
0 -17 -5 -25 -10z"/>
<path d="M3322 7415 c4 -7 -22 -10 -75 -9 -45 0 -89 -2 -97 -6 -8 -4 -36 -10
-62 -13 -26 -3 -56 -11 -68 -17 -11 -6 -20 -8 -20 -5 0 3 -8 1 -18 -4 -13 -7
-23 -6 -31 2 -10 9 -11 8 -6 -5 5 -11 2 -18 -5 -18 -14 0 -122 -50 -130 -60
-15 -18 -68 -48 -74 -42 -4 4 -6 2 -4 -3 5 -16 -61 -77 -74 -69 -7 4 -8 2 -4
-5 4 -6 -5 -28 -22 -49 -16 -20 -37 -52 -46 -70 -9 -18 -21 -30 -26 -27 -6 3
-7 0 -4 -8 2 -7 -1 -27 -7 -43 -16 -37 -14 -32 -23 -84 -12 -71 -14 -142 -5
-174 5 -16 10 -44 11 -63 1 -18 6 -33 10 -33 4 0 8 -7 8 -15 0 -13 11 -35 52
-105 15 -26 53 -74 82 -101 10 -9 15 -22 12 -28 -4 -7 -1 -8 8 -5 9 4 18 -1
22 -10 3 -9 10 -16 15 -16 6 0 20 -9 32 -21 34 -32 206 -112 267 -125 19 -4
42 -9 50 -11 110 -24 288 -20 395 9 22 6 47 13 56 14 30 6 153 66 199 97 113
77 209 198 251 317 33 93 33 248 0 338 -27 76 -53 122 -106 189 -41 51 -145
136 -200 163 -16 8 -33 19 -37 25 -4 5 -8 6 -8 1 0 -5 -6 -4 -12 2 -30 24
-171 65 -220 64 -10 -1 -18 3 -18 8 0 4 -9 6 -20 3 -11 -3 -28 1 -37 8 -9 8
-14 9 -11 4z"/>
<path d="M8400 7413 c0 -6 -9 -10 -20 -8 -11 2 -22 0 -25 -5 -3 -4 -21 -7 -40
-6 -19 1 -35 -2 -35 -6 0 -4 -9 -5 -20 -3 -11 2 -20 0 -20 -6 0 -5 -9 -9 -19
-9 -11 0 -40 -9 -65 -20 -25 -10 -46 -17 -46 -13 0 3 -8 0 -17 -8 -10 -8 -35
-24 -57 -34 -37 -19 -66 -42 -145 -112 -29 -26 -38 -30 -51 -20 -13 10 -13 10
-2 -5 11 -13 11 -20 0 -37 -7 -12 -18 -21 -25 -21 -7 0 -12 -6 -11 -12 2 -7
-3 -12 -10 -10 -8 1 -11 -2 -8 -6 3 -5 -4 -29 -16 -53 -12 -24 -23 -46 -23
-49 -1 -3 -5 -18 -9 -35 -4 -16 -10 -37 -14 -45 -4 -8 -7 -31 -7 -50 0 -19 -4
-38 -10 -42 -7 -5 -6 -8 1 -8 6 0 9 -15 8 -35 -2 -20 1 -46 6 -59 6 -16 5 -28
-3 -36 -9 -10 -9 -11 2 -5 11 6 13 3 9 -13 -4 -12 -2 -20 3 -16 5 3 9 -2 9
-10 0 -19 32 -90 43 -94 4 -2 7 -10 7 -18 0 -8 5 -14 12 -14 6 0 9 -3 5 -6
-12 -12 105 -134 178 -184 49 -35 151 -88 183 -96 10 -2 40 -10 67 -18 333
-92 716 33 884 289 14 22 30 43 36 47 5 4 6 8 1 8 -4 0 -1 11 8 24 29 45 53
161 50 238 -4 105 -19 160 -61 238 -28 50 -73 113 -85 118 -5 2 -6 8 -2 13 3
5 1 9 -4 9 -6 0 -25 14 -43 31 -42 39 -144 109 -159 109 -6 0 -8 6 -4 13 4 6
4 9 0 5 -5 -4 -31 2 -60 14 -104 41 -199 60 -311 61 -38 1 -73 6 -77 12 -5 6
-8 6 -8 -2z"/>
<path d="M2990 7400 c0 -5 5 -10 11 -10 5 0 7 5 4 10 -3 6 -8 10 -11 10 -2 0
-4 -4 -4 -10z"/>
<path d="M5727 7398 c3 -7 -11 -9 -52 -8 -3 0 -21 -6 -40 -14 -19 -8 -35 -12
-35 -9 0 3 -7 0 -15 -7 -12 -10 -15 -10 -15 1 0 11 -2 11 -10 -1 -5 -8 -13
-15 -17 -15 -14 -1 -128 -59 -131 -67 -2 -5 -8 -6 -13 -2 -5 3 -9 1 -9 -4 0
-13 -86 -72 -94 -64 -4 3 -4 -2 0 -13 6 -15 4 -17 -10 -12 -9 4 -15 3 -12 -2
3 -5 -10 -26 -29 -47 -19 -22 -35 -45 -35 -51 0 -7 -4 -13 -10 -13 -5 0 -10
-7 -10 -15 0 -8 -5 -15 -11 -15 -5 0 -7 -4 -4 -10 3 -5 1 -10 -4 -10 -6 0 -10
-3 -9 -7 1 -5 -4 -21 -11 -38 -7 -16 -15 -41 -17 -54 -3 -14 -13 -31 -22 -39
-9 -7 -12 -11 -7 -9 6 3 10 -28 10 -86 -1 -105 5 -132 56 -242 13 -27 31 -59
41 -69 10 -11 18 -24 18 -29 0 -14 142 -147 156 -147 6 0 17 -7 24 -15 14 -17
133 -75 154 -75 8 0 18 -4 21 -10 3 -5 17 -10 31 -10 14 0 33 -4 42 -9 40 -21
224 -31 322 -17 30 5 62 8 70 8 8 1 20 4 25 7 6 4 17 7 25 6 8 0 17 2 20 5 3
3 30 13 60 24 172 58 341 216 400 374 31 82 34 97 33 197 0 110 -20 179 -75
271 -46 77 -179 214 -207 214 -5 0 -11 3 -13 8 -8 17 -212 105 -222 95 -3 -4
-6 -2 -6 3 0 5 -8 10 -17 10 -10 1 -38 4 -63 9 -61 10 -289 12 -283 3z"/>
<path d="M12197 7320 c10 -11 7 -18 -12 -36 -50 -47 -54 -114 -9 -160 13 -12
24 -31 25 -41 0 -10 2 -38 4 -63 1 -25 6 -92 9 -149 4 -57 9 -107 12 -112 3
-5 0 -9 -7 -9 -8 0 -8 -4 -2 -12 6 -7 10 -20 10 -28 0 -18 13 -180 18 -233 3
-31 -1 -43 -25 -67 -16 -17 -33 -30 -37 -29 -31 5 -45 -2 -40 -21 3 -13 0 -20
-9 -21 -8 -1 -18 -3 -24 -4 -5 -1 -17 -3 -26 -4 -9 0 14 -17 52 -37 86 -44
142 -65 148 -55 3 4 15 7 28 6 12 -1 27 2 33 6 62 49 135 111 135 114 0 3 -13
3 -30 1 -38 -4 -38 3 2 34 35 27 265 217 284 235 7 5 24 19 40 30 15 11 45 37
65 58 30 30 37 43 33 65 -5 28 -17 40 -116 120 -32 26 -58 50 -58 55 0 4 -5 7
-11 7 -6 0 -16 6 -23 13 -19 18 -97 84 -206 173 -52 43 -96 82 -98 86 -2 4
-10 8 -18 8 -12 0 -12 5 1 36 8 20 15 37 15 38 0 3 -88 -3 -114 -8 -17 -3 -37
0 -45 6 -13 10 -14 10 -4 -2z"/>
<path d="M11418 7298 c-2 -12 -10 -23 -18 -23 -8 0 -24 -9 -35 -20 -12 -11
-36 -31 -54 -45 -18 -14 -42 -35 -53 -47 -12 -12 -25 -20 -30 -17 -4 3 -8 -2
-8 -10 0 -9 -4 -16 -8 -16 -5 0 -20 -9 -33 -21 -58 -50 -92 -74 -103 -71 -6 2
-8 1 -4 -3 8 -8 3 -14 -68 -72 -28 -24 -55 -39 -59 -35 -5 4 -5 1 -1 -6 4 -7
0 -15 -11 -19 -10 -3 -22 -12 -26 -20 -6 -10 -12 -9 -28 6 -20 18 -21 18 -43
-3 -44 -41 -58 -72 -50 -113 7 -38 35 -71 120 -138 21 -16 49 -40 61 -52 13
-13 26 -23 29 -23 3 0 11 -6 18 -13 8 -7 33 -29 56 -48 23 -18 47 -39 54 -44
6 -6 40 -34 76 -63 36 -29 79 -65 95 -80 35 -33 112 -72 129 -67 6 3 23 6 38
9 44 7 87 46 95 85 10 53 5 72 -30 109 -34 35 -52 40 -61 17 -5 -14 -8 -14
-30 0 l-24 16 3 192 c2 106 4 247 5 315 1 67 5 122 8 122 4 0 23 15 42 33 19
17 37 32 40 32 9 0 6 80 -4 87 -6 4 -5 12 2 21 16 19 0 33 -50 42 -33 6 -37 5
-40 -17z"/>
<path d="M4910 7206 c0 -2 7 -7 16 -10 8 -3 12 -2 9 4 -6 10 -25 14 -25 6z"/>
<path d="M7740 7206 c0 -2 8 -10 18 -17 15 -13 16 -12 3 4 -13 16 -21 21 -21
13z"/>
<path d="M2595 7151 c-3 -5 -2 -12 3 -15 5 -3 9 1 9 9 0 17 -3 19 -12 6z"/>
<path d="M7635 7121 c-3 -5 -2 -12 3 -15 5 -3 9 1 9 9 0 17 -3 19 -12 6z"/>
<path d="M2426 7082 c-3 -5 1 -9 9 -9 8 0 12 4 9 9 -3 4 -7 8 -9 8 -2 0 -6 -4
-9 -8z"/>
<path d="M11996 7082 c-3 -5 1 -9 9 -9 8 0 12 4 9 9 -3 4 -7 8 -9 8 -2 0 -6
-4 -9 -8z"/>
<path d="M2355 7051 c-3 -5 -2 -12 3 -15 5 -3 9 1 9 9 0 17 -3 19 -12 6z"/>
<path d="M7673 6985 c0 -8 4 -12 9 -9 5 3 6 10 3 15 -9 13 -12 11 -12 -6z"/>
<path d="M4955 6960 c3 -5 8 -10 11 -10 2 0 4 5 4 10 0 6 -5 10 -11 10 -5 0
-7 -4 -4 -10z"/>
<path d="M7507 6919 c7 -7 15 -10 18 -7 3 3 -2 9 -12 12 -14 6 -15 5 -6 -5z"/>
<path d="M10715 6880 c3 -5 8 -10 11 -10 2 0 4 5 4 10 0 6 -5 10 -11 10 -5 0
-7 -4 -4 -10z"/>
<path d="M11985 6840 c-3 -6 1 -7 9 -4 18 7 21 14 7 14 -6 0 -13 -4 -16 -10z"/>
<path d="M2475 6809 c-4 -6 -5 -12 -2 -15 2 -3 7 2 10 11 7 17 1 20 -8 4z"/>
<path d="M7676 6598 c3 -5 10 -6 15 -3 13 9 11 12 -6 12 -8 0 -12 -4 -9 -9z"/>
</g>
</svg>
