<svg width="60" height="60" viewBox="0 0 60 60" fill="none" xmlns="http://www.w3.org/2000/svg">
<g clip-path="url(#clip0_94_1512)">
<mask id="mask0_94_1512" style="mask-type:luminance" maskUnits="userSpaceOnUse" x="0" y="0" width="60" height="60">
<path d="M60 0H0V60H60V0Z" fill="white"/>
</mask>
<g mask="url(#mask0_94_1512)">
<path d="M16.5083 22.8599C15.6083 20.9171 14.9393 18.8741 14.3747 16.8107C12.8333 11.1761 16.2509 4.50469 22.1441 3.26929C24.1463 2.84929 26.2325 2.95009 28.2269 3.36229C31.5215 4.04209 34.4489 6.38147 36.1019 9.31007C36.9353 10.7861 37.4621 12.4487 37.5203 14.1485C37.5905 16.1921 36.6143 17.9255 36.3053 19.9049L36.2945 19.9709" stroke="#CCDDE2" stroke-width="0.2892" stroke-miterlimit="10"/>
<path d="M36.4367 56.9903C36.2495 57.0209 36.6233 56.9651 36.4367 56.9903ZM36.4367 56.9903C42.4199 56.9999 47.0045 52.3865 46.2599 45.7517C45.5573 39.5033 41.9723 35.3075 37.8749 31.0943C36.0695 29.2379 34.7141 24.7049 35.9591 23.0627" stroke="#CCDDE2" stroke-width="0.2892" stroke-miterlimit="10"/>
<path d="M13.5389 33.0294C13.5389 33.1566 13.5431 33.2838 13.5467 33.4086C13.6199 35.64 14.1497 37.107 14.4695 37.8C14.3648 37.5042 14.3287 37.1884 14.3639 36.8766C14.3864 36.665 14.4199 36.4547 14.4641 36.2466C14.7155 35.0786 15.2858 34.0031 16.1117 33.1398L16.1195 33.1326C16.2293 33.0186 16.3139 32.9418 16.3595 32.901L16.3799 32.88L16.4009 32.8632L25.7063 24.0102C25.7644 23.6291 25.8013 23.2451 25.8167 22.86C26.2847 22.9314 26.7971 22.9854 27.3581 23.022C27.7991 23.049 28.2737 23.0646 28.7783 23.0664C33.4169 23.082 35.4095 23.7984 36.1823 24.2208C36.2266 24.2452 36.2765 24.2576 36.327 24.2569C36.3775 24.2561 36.427 24.2422 36.4706 24.2166C36.5141 24.1909 36.5502 24.1543 36.5753 24.1105C36.6004 24.0666 36.6136 24.0169 36.6137 23.9664V20.1198C36.0737 19.8288 35.4077 19.6266 34.5827 19.5552C32.3549 19.3626 29.9075 19.3752 27.8189 18.48C26.2589 17.811 24.8507 16.4754 23.2589 15.801C22.4789 15.4716 21.6629 15.3018 20.7611 15.441C19.7513 15.5988 18.9011 16.05 18.1811 16.6686C18.1715 16.6758 18.1637 16.686 18.1541 16.6932C17.3315 17.4084 16.6817 18.339 16.1789 19.2912C14.5931 22.2876 13.6487 26.136 13.5659 29.5662V29.6046C13.5659 29.7588 13.5623 29.9112 13.5623 30.0636L13.5389 33.0294Z" fill="#362999"/>
<path d="M19.2767 8.78825V9.69605H25.8941V8.78825C25.8943 8.71691 25.8905 8.64557 25.8827 8.57465C25.8298 8.05259 25.5847 7.56887 25.195 7.21739C24.8054 6.86591 24.2991 6.67175 23.7743 6.67265H21.3923C21.1145 6.67247 20.8393 6.72713 20.5825 6.83339C20.3258 6.93965 20.0925 7.09547 19.8961 7.29197C19.6996 7.48841 19.5437 7.72169 19.4375 7.97843C19.3312 8.23523 19.2766 8.51039 19.2767 8.78825Z" fill="#4262C5"/>
<path d="M28.3763 36.5999L29.2931 38.9105H35.0531C35.1337 38.9105 35.2135 38.8946 35.288 38.8637C35.3624 38.8328 35.43 38.7875 35.4869 38.7305C35.6016 38.6145 35.6663 38.4581 35.6669 38.2949C35.6666 38.1539 35.6177 38.0173 35.5286 37.9081C35.4394 37.7988 35.3154 37.7236 35.1773 37.6949L32.5619 37.1591L32.2151 35.8331L28.3763 36.5999Z" fill="#101010"/>
<path d="M36.6095 55.5708L34.7495 53.0508V51.3354H31.6721C31.6582 51.3356 31.6447 51.3396 31.6328 51.3468C31.621 51.3541 31.6114 51.3644 31.6048 51.3765C31.5983 51.3888 31.5951 51.4025 31.5956 51.4164C31.5962 51.4302 31.6004 51.4437 31.6079 51.4554L35.1599 56.6052C35.2417 56.7238 35.3512 56.8208 35.4788 56.8877C35.6064 56.9547 35.7484 56.9897 35.8925 56.9898C36.0573 56.9898 36.2189 56.9442 36.3593 56.8579C36.4997 56.7716 36.6133 56.648 36.6877 56.5009C36.762 56.3538 36.794 56.189 36.7802 56.0248C36.7664 55.8606 36.7073 55.7034 36.6095 55.5708Z" fill="#060606"/>
<path d="M19.7663 11.0082C19.942 11.5783 20.0316 12.1715 20.0321 12.768C21.3329 12.768 21.5777 12.1338 21.4775 11.6328C21.3659 11.076 21.5333 10.299 22.3097 10.1874C23.0861 10.0758 22.8671 11.2992 22.7747 12.7428C22.7771 13.0533 22.8283 13.3615 22.9265 13.656C23.0724 14.1004 23.3782 14.4748 23.7845 14.7066C24.172 14.9212 24.6094 15.0295 25.0523 15.0204C25.0523 15.0204 25.8113 13.1322 25.2815 12.9762C24.7517 12.8202 23.5337 11.4654 23.8109 9.79619C23.8169 9.75959 23.8229 9.72719 23.8307 9.69419H19.5737C19.5641 10.1399 19.6292 10.5841 19.7663 11.0082Z" fill="#524316"/>
<path d="M13.5701 29.5681V29.6065C13.5701 29.7607 13.5665 29.9131 13.5665 30.0655L13.5455 33.0367C13.5455 33.1621 13.5491 33.2857 13.5527 33.4087" stroke="black" stroke-width="0.2892" stroke-miterlimit="10"/>
<path d="M14.4701 36.2435C14.9954 37.0626 15.7183 37.7364 16.5724 38.2028C17.4264 38.6691 18.384 38.9132 19.3571 38.9123H30.0371C31.0295 38.9123 31.5227 39.4055 31.5227 40.0127V55.8599C31.5227 56.1599 31.6419 56.4476 31.854 56.6597C32.0661 56.8718 32.3538 56.9909 32.6537 56.9909H36.5591" stroke="black" stroke-width="0.2892" stroke-miterlimit="10"/>
<path d="M36.6095 55.5708L34.7495 53.0508V51.3354H31.6721C31.6582 51.3356 31.6447 51.3396 31.6328 51.3468C31.621 51.3541 31.6114 51.3644 31.6048 51.3765C31.5983 51.3888 31.5951 51.4025 31.5956 51.4164C31.5962 51.4302 31.6004 51.4437 31.6079 51.4554L35.1599 56.6052C35.2417 56.7238 35.3512 56.8208 35.4788 56.8877C35.6064 56.9547 35.7484 56.9897 35.8925 56.9898C36.0573 56.9898 36.2189 56.9442 36.3593 56.8579C36.4997 56.7716 36.6133 56.648 36.6877 56.5009C36.762 56.3538 36.794 56.189 36.7802 56.0248C36.7664 55.8606 36.7073 55.7034 36.6095 55.5708Z" stroke="black" stroke-width="0.2892" stroke-miterlimit="10"/>
<path d="M25.7501 32.8643L26.9663 33.0473" stroke="black" stroke-width="0.2892" stroke-miterlimit="10"/>
<path d="M34.1831 34.2961C36.7229 35.2813 38.2031 37.6999 37.8983 40.3111L36.6209 51.3355H31.5209" stroke="black" stroke-width="0.2892" stroke-miterlimit="10"/>
<path d="M25.6356 29.6953L26.3736 31.5553L26.9652 33.0486L28.3764 36.6L29.2932 38.9106H35.0532C35.1337 38.9106 35.2135 38.8947 35.288 38.8638C35.3624 38.8329 35.43 38.7876 35.487 38.7306C35.6017 38.6146 35.6663 38.4582 35.667 38.295C35.6666 38.154 35.6178 38.0174 35.5286 37.9082C35.4394 37.7989 35.3154 37.7237 35.1774 37.695L32.562 37.1592L32.2152 35.8333L34.5912 35.4072L34.185 34.2955L30.741 24.8755C30.021 22.8955 27.33 22.4701 25.8042 23.9233L25.7154 24.0079L16.0734 33.18" stroke="black" stroke-width="0.2892" stroke-miterlimit="10"/>
<path d="M19.8815 38.9125C20.7834 38.9126 21.6667 38.6551 22.4273 38.1703C23.1879 37.6855 23.7943 36.9936 24.1751 36.1759L25.7495 32.8657L26.3735 31.5553" stroke="black" stroke-width="0.2892" stroke-miterlimit="10"/>
<path d="M21.1301 20.5974C21.1301 20.5974 21.8645 22.2666 25.8227 22.8618C26.2907 22.9334 26.8045 22.9874 27.3641 23.0238C27.8041 23.0506 28.2775 23.0654 28.7843 23.0682C33.4229 23.0838 35.4155 23.8002 36.1883 24.2226C36.2326 24.247 36.2825 24.2594 36.3331 24.2586C36.3836 24.2578 36.4331 24.244 36.4767 24.2183C36.5203 24.1927 36.5564 24.1561 36.5816 24.1123C36.6068 24.0684 36.6202 24.0188 36.6203 23.9682V22.2702C36.9725 22.5054 37.2311 22.854 37.4177 23.2494C37.6511 23.7294 37.7777 24.2838 37.8455 24.7908C37.9009 25.1912 37.9273 25.595 37.9247 25.9992C37.9247 26.0989 37.9642 26.1944 38.0345 26.265C38.069 26.3005 38.1104 26.3287 38.156 26.3479C38.2018 26.3671 38.2508 26.3768 38.3003 26.3766C38.3894 26.3768 38.4758 26.3454 38.5439 26.288C38.612 26.2305 38.6575 26.1507 38.6723 26.0628C38.8523 25.0008 39.2081 21.5226 36.6203 20.1198C36.0803 19.8288 35.4137 19.6266 34.5887 19.5552C32.3615 19.3626 29.9141 19.3752 27.8249 18.48C26.2619 17.811 24.8555 16.4736 23.2649 15.801C22.4879 15.4716 21.6689 15.3018 20.7671 15.441C19.7573 15.5988 18.9071 16.05 18.1871 16.6686C17.3507 17.3886 16.6931 18.3294 16.1843 19.2912C14.5985 22.2876 13.6541 26.136 13.5713 29.5662V29.6046C13.5713 29.7588 13.5677 29.9112 13.5677 30.0636" stroke="black" stroke-width="0.2892" stroke-miterlimit="10"/>
<path d="M22.9332 13.668L22.9278 13.656C22.8168 13.4352 22.7478 13.1394 22.7754 12.7434C22.8666 11.2986 23.0892 10.0758 22.311 10.1874C21.5328 10.299 21.3666 11.0766 21.48 11.6322C21.5802 12.1338 21.3366 12.7722 20.0352 12.7686" stroke="black" stroke-width="0.2892" stroke-miterlimit="10"/>
<path d="M25.2815 12.9763C25.3841 12.6007 26.2739 12.6535 25.8749 11.8399C25.6475 11.3755 25.6349 10.5841 25.7777 9.69611" stroke="black" stroke-width="0.2892" stroke-miterlimit="10"/>
<path d="M19.5737 9.69611C19.565 10.1411 19.6299 10.5845 19.7657 11.0083C19.9424 11.5784 20.0324 12.1718 20.0327 12.7687L20.0111 13.8193C20.0042 14.3063 19.8794 14.7844 19.6476 15.2128C19.4157 15.6411 19.0836 16.0071 18.6797 16.2793C18.4925 16.4003 18.3177 16.5393 18.1577 16.6945" stroke="black" stroke-width="0.2892" stroke-miterlimit="10"/>
<path d="M22.7753 12.7434C22.7773 13.0538 22.8287 13.3618 22.9277 13.656C23.4371 15.1128 25.0517 15.0198 25.0517 15.0198C25.0517 15.0198 25.8119 13.1322 25.2815 12.9762C24.7511 12.8202 23.5337 11.4654 23.8115 9.79619C23.8169 9.76079 23.8241 9.72659 23.8313 9.69419" stroke="black" stroke-width="0.2892" stroke-miterlimit="10"/>
<path d="M25.8995 8.57387H25.9103" stroke="black" stroke-width="0.2892" stroke-miterlimit="10"/>
<path d="M28.3763 36.6018L32.2127 35.835" stroke="black" stroke-width="0.2892" stroke-miterlimit="10"/>
<path d="M36.6204 22.2701V20.1197" stroke="black" stroke-width="0.2892" stroke-miterlimit="10"/>
<path d="M37.4189 23.2481C37.0793 23.8361 37.1585 25.0253 37.5263 25.0019C37.6535 24.9923 37.7597 24.9053 37.8467 24.7901" stroke="black" stroke-width="0.2892" stroke-miterlimit="10"/>
<path d="M25.9104 9.69593V8.78873C25.9104 8.51063 25.8556 8.23523 25.7491 7.97825C25.6426 7.72133 25.4865 7.48787 25.2897 7.29131C25.093 7.09469 24.8594 6.93881 24.6024 6.83255C24.3453 6.72629 24.0699 6.67169 23.7918 6.67193H21.4098C21.1317 6.67169 20.8563 6.72629 20.5993 6.83261C20.3424 6.93887 20.1089 7.09475 19.9122 7.29137C19.7155 7.48799 19.5596 7.72145 19.4532 7.97837C19.3468 8.23529 19.2922 8.51069 19.2924 8.78873V9.69593H28.2768" stroke="black" stroke-width="0.2892" stroke-miterlimit="10"/>
<path d="M24.1313 9.69599C24.1733 7.23179 22.7699 6.72839 22.6019 6.67679C22.5912 6.67313 22.5796 6.67313 22.5689 6.67679C22.4009 6.72839 20.9975 7.23179 21.0395 9.69599" stroke="black" stroke-width="0.2892" stroke-miterlimit="10"/>
<path d="M23.0597 6.66C23.0553 6.53712 23.0034 6.42071 22.915 6.33533C22.8265 6.24995 22.7083 6.20226 22.5854 6.20226C22.4624 6.20226 22.3443 6.24995 22.2558 6.33533C22.1674 6.42071 22.1155 6.53712 22.1111 6.66H23.0597Z" fill="black"/>
<path d="M23.7845 14.7054L23.2661 15.8004" stroke="black" stroke-width="0.2892" stroke-miterlimit="10"/>
<path d="M25.6127 10.6199C25.6127 10.6199 24.8033 10.4741 24.4949 11.0999" stroke="black" stroke-width="0.2856" stroke-miterlimit="10"/>
<path d="M25.2202 11.4826C25.3333 11.4038 25.3707 11.2619 25.3036 11.1657C25.2366 11.0694 25.0905 11.0552 24.9774 11.1341C24.8643 11.2129 24.827 11.3548 24.894 11.451C24.9611 11.5472 25.1071 11.5614 25.2202 11.4826Z" fill="black"/>
<path d="M24.564 13.1119C24.564 13.1119 24.8718 13.5457 25.5 13.3909" stroke="black" stroke-width="0.2856" stroke-miterlimit="10"/>
<path d="M16.4051 32.8643C16.4051 32.8643 14.6399 34.2959 14.3693 36.8747C14.2577 37.9385 14.9273 38.9117 15.9971 38.9117H19.5065" stroke="black" stroke-width="0.2892" stroke-miterlimit="10"/>
<path d="M14.7173 38.2589C14.7173 38.2589 13.4909 36.3743 13.5461 32.6189" stroke="black" stroke-width="0.2892" stroke-miterlimit="10"/>
<path d="M25.7129 24.0102C25.7708 23.6291 25.8075 23.2451 25.8227 22.86" stroke="black" stroke-width="0.2892" stroke-miterlimit="10"/>
<path d="M14.6213 36.4663C14.6213 36.4663 14.5523 36.3373 14.4701 36.5179C14.3879 36.6985 14.0537 38.1901 15.0821 38.6245C16.1105 39.0589 18.2699 38.8111 18.2699 38.8111C18.2699 38.8111 15.7199 38.2699 14.6213 36.4663Z" fill="black"/>
</g>
</g>
<defs>
<clipPath id="clip0_94_1512">
<rect width="60" height="60" fill="white"/>
</clipPath>
</defs>
</svg>
