<svg width="80" height="80" viewBox="0 0 80 80" fill="none" xmlns="http://www.w3.org/2000/svg">
<path d="M16.7895 30.6399C16.5655 31.0143 16.0967 31.1727 15.6935 31.2535C15.1783 31.3591 14.6455 31.3871 14.1239 31.4335L13.8207 31.5079C13.7633 31.5256 13.71 31.5545 13.6638 31.5928C13.6176 31.6312 13.5794 31.6783 13.5515 31.7315C13.5235 31.7846 13.5064 31.8427 13.5009 31.9026C13.4955 31.9623 13.502 32.0227 13.5199 32.0799C13.7075 32.7255 13.9656 33.3484 14.2895 33.9375L13.8095 34.4175C13.6735 34.2335 13.6671 33.9111 13.4847 33.9423C13.3095 33.7671 13.1015 33.6815 12.8863 33.9159C12.4655 34.3759 12.5335 35.3319 13.1519 35.5959L13.0135 36.2847C12.9657 36.5255 12.8361 36.7424 12.6465 36.8983C12.4568 37.0543 12.219 37.1396 11.9735 37.1399L12.0799 36.3247C11.3599 36.6887 10.5431 35.9015 10.5999 35.2527C10.6367 34.8079 10.5359 34.5007 10.2071 34.1783C10.1855 34.1567 10.3175 34.0767 10.2975 34.0551C10.2047 33.7743 10.1919 33.4463 10.2839 33.2607C10.4439 32.9295 10.9151 32.7359 10.6983 32.3743C10.6032 32.2167 10.5337 32.045 10.4927 31.8655C10.4492 31.6276 10.4571 31.3831 10.5161 31.1485C10.575 30.9139 10.6835 30.6947 10.8343 30.5055C11.1543 30.1215 11.6743 30.2247 12.0991 30.0887C12.6167 29.9287 12.8559 29.3743 13.3975 29.2031C13.6671 29.1175 13.9167 29.1567 14.1863 29.2183C14.4143 29.2711 14.6399 29.3303 14.8639 29.4007C15.0879 29.4711 15.2847 29.5295 15.5039 29.4639C15.7935 29.3839 16.0167 29.1135 16.3327 29.1111C16.4904 29.1075 16.6447 29.1568 16.7711 29.2511C17.0047 29.6711 17.0063 30.2807 16.7895 30.6399Z" fill="#284551"/>
<path d="M43.4503 28.0245V28.0216" stroke="#CCDDE2" stroke-width="0.286218" stroke-miterlimit="10"/>
<path d="M20.5975 45.3213V45.3185" stroke="black" stroke-width="0.286218" stroke-miterlimit="10"/>
<path d="M13.788 34.3537C13.7027 34.2063 13.6012 34.0689 13.4856 33.9441C13.3104 33.7689 13.1024 33.6833 12.8872 33.9177C12.4664 34.3777 12.5344 35.3337 13.1528 35.5977L13.0144 36.2865C12.9666 36.5273 12.8369 36.7441 12.6473 36.9C12.4576 37.0559 12.2199 37.1413 11.9744 37.1417" stroke="black" stroke-width="0.286218" stroke-linecap="round" stroke-linejoin="round"/>
<path d="M11.5872 40.1896C11.6224 39.9224 11.7096 39.2208 11.7936 38.552C11.8736 37.932 11.9448 37.3352 11.9728 37.1384L12.08 36.3248" stroke="black" stroke-width="0.286218" stroke-linecap="round" stroke-linejoin="round"/>
<path d="M16.5263 32.1728C16.5263 32.1728 15.5047 32.2232 15.3071 33.0688" stroke="black" stroke-width="0.286218" stroke-miterlimit="10"/>
<path d="M16.8977 34.4072C17.1761 34.4 17.5377 34.3592 17.6689 34.0768L16.9649 33.3C16.7931 33.1097 16.6915 32.8664 16.6769 32.6104C16.6489 32.1808 16.6993 31.4992 16.2881 31.0456" stroke="black" stroke-width="0.286218" stroke-miterlimit="10"/>
<path d="M16.2957 33.332C16.4109 33.2045 16.4166 33.0219 16.3085 32.9241C16.2003 32.8263 16.0192 32.8505 15.904 32.978C15.7887 33.1054 15.7829 33.2881 15.8911 33.3858C15.9993 33.4836 16.1804 33.4595 16.2957 33.332Z" fill="black"/>
<path d="M16.2264 39.5096L15.696 36.9384" stroke="black" stroke-width="0.286218" stroke-miterlimit="10"/>
<path d="M29.672 51.0815L26.2536 53.8767C30.3664 60.1487 27.2536 61.2999 27.2536 61.2999C26.6497 61.4155 26.0401 61.4975 25.4272 61.5455C22.4544 61.7599 19.4048 60.9927 16.9544 59.2743C11.9944 55.7943 7.67437 48.8295 9.97838 42.7655C10.1722 42.2526 10.4091 41.757 10.6864 41.2839C10.9253 40.8727 11.2296 40.5031 11.5872 40.1895C12.2131 39.6416 12.9839 39.286 13.807 39.1655C14.6301 39.045 15.4705 39.1648 16.2272 39.5103C16.5169 39.6426 16.7909 39.8068 17.044 39.9999C18.3392 40.9911 19.5168 42.3999 20.532 43.8783C21.4333 45.2153 22.2445 46.611 22.96 48.0559C23.1576 48.4503 23.3368 48.8231 23.4952 49.1647C24.9312 48.5839 26.1352 47.5975 27.2552 46.5319C25.9008 49.0599 29.672 51.0815 29.672 51.0815Z" fill="#22D1EE"/>
<path d="M27.28 53.1263C27.2144 53.1767 27.1464 53.2295 27.0784 53.2799" stroke="black" stroke-width="0.286218" stroke-miterlimit="10"/>
<path d="M17.1736 42.5C18.0802 44.236 18.9869 45.9752 19.8936 47.7176C20.5776 49.0328 21.7336 49.8448 23.3616 49.2216C25.1328 48.5432 26.5616 47.2464 27.8832 45.9248C29.2048 44.6032 30.544 43.3392 32.452 42.9984C34.9184 42.5576 37.252 43.9016 38.932 45.6C39.0613 45.7295 39.143 45.8989 39.1641 46.0806C39.1851 46.2624 39.1442 46.446 39.048 46.6016C38.9862 46.7011 38.9037 46.7862 38.8062 46.851C38.7086 46.9158 38.5982 46.9589 38.4825 46.9771C38.3668 46.9954 38.2485 46.9886 38.1357 46.957C38.0229 46.9255 37.9182 46.8701 37.8288 46.7944C37.0328 46.1152 35.7376 45.1328 34.8368 45.12" stroke="black" stroke-width="0.286218" stroke-miterlimit="10"/>
<path d="M32.3793 47.4504C32.6561 47.6352 33.0401 47.84 33.3601 47.84" stroke="black" stroke-width="0.286218" stroke-miterlimit="10"/>
<path d="M35.9264 45.4569C36.5168 45.7489 36.732 46.6033 36.3152 47.1137C35.7867 47.7694 35.1245 48.305 34.3728 48.6849C33.5504 49.0953 33.0224 48.8449 32.2128 48.3441" stroke="black" stroke-width="0.286218" stroke-miterlimit="10"/>
<path d="M34.5599 46.2225C34.5599 46.2225 35.7295 46.5121 35.6983 47.6473C35.6963 47.6957 35.6876 47.7437 35.6727 47.7897" stroke="black" stroke-width="0.286218" stroke-miterlimit="10"/>
<path d="M33.7336 46.9375C33.7336 46.9375 35.3024 47.9511 34.556 48.5887" stroke="black" stroke-width="0.286218" stroke-miterlimit="10"/>
<path d="M64.0384 50.9104C62.1904 55.9896 57.0168 56.1328 56.4248 56.1328C56.6728 55.6104 56.74 54.6928 56.1968 53.0848C56.5607 52.5534 56.7522 51.9229 56.7455 51.2788C56.7388 50.6348 56.5341 50.0085 56.1592 49.4848C56.1664 49.4784 56.1704 49.4696 56.1768 49.4632C56.4355 49.4474 56.6922 49.4086 56.944 49.3472C57.8368 49.1344 59.5968 48.6672 60.9936 48.0096C61.9408 47.5624 63.0456 48.2792 62.9648 49.3248C62.9648 49.3384 62.9648 49.3511 62.96 49.3663C63.1449 49.3663 63.3272 49.4108 63.4912 49.4962C63.6552 49.5816 63.7961 49.7054 63.9021 49.8571C64.0079 50.0087 64.0756 50.1835 64.0993 50.367C64.1231 50.5503 64.1022 50.7368 64.0384 50.9104Z" fill="#8BD346"/>
<path d="M40.324 62.8233C39.7016 63.8913 38.7328 64.8009 37.7968 65.5945C34.5016 68.3833 30.1968 69.7993 25.8768 69.8545C21.5424 69.7993 17.2216 68.3785 13.9112 65.6145C3.45116 56.8801 5.34156 46.5673 7.03356 41.7921C7.09315 41.627 7.17382 41.4703 7.27356 41.3257C7.40585 41.1322 7.5776 40.9688 7.77753 40.8464C7.97746 40.7239 8.201 40.6452 8.43356 40.6153C9.32157 40.7377 10.128 41.4745 9.98557 42.6153C9.98557 42.6593 9.96797 42.7201 9.96397 42.7641C7.66156 48.8281 11.9832 55.7929 16.94 59.2729C19.1888 60.8513 21.9424 61.6273 24.6784 61.5769H24.7096C24.9442 61.5721 25.1786 61.5612 25.4128 61.5441C26.9496 61.4321 28.4432 61.0641 29.9224 60.6185C31.6584 60.0993 33.3752 59.4697 35.1096 59.0289C35.7192 58.8737 36.3304 58.7241 36.9448 58.5841C37.2993 58.5114 37.662 58.4863 38.0232 58.5097C40.1536 58.6537 41.6504 60.5481 40.324 62.8233Z" fill="#D7E8F0"/>
<path d="M40.8504 62.8233C40.228 63.8913 39.2584 64.8009 38.3224 65.5945C34.896 68.4969 30.3752 69.9145 25.8744 69.8545C21.54 69.7993 17.2192 68.3785 13.9088 65.6145C3.45117 56.8801 5.34157 46.5673 7.03357 41.7921C7.09317 41.627 7.17383 41.4703 7.27357 41.3257C7.40587 41.1322 7.57762 40.9688 7.77755 40.8464C7.97747 40.7239 8.20108 40.6452 8.43356 40.6153C9.32156 40.7377 10.128 41.4745 9.98556 42.6153C9.98556 42.6593 9.96796 42.7201 9.96396 42.7641C7.66157 48.8281 11.9832 55.7929 16.94 59.2729C19.1888 60.8513 21.9424 61.6273 24.6784 61.5769H24.7096C25.1218 61.5833 25.5317 61.5724 25.9392 61.5441C27.476 61.4321 28.9688 61.0641 30.4488 60.6185C32.1848 60.0993 33.9016 59.4697 35.636 59.0289C36.2448 58.8737 36.8568 58.7241 37.4704 58.5841C37.6528 58.5468 37.8374 58.5219 38.0232 58.5097C40.4184 58.3489 42.284 60.3641 40.8504 62.8233Z" fill="#D7E8F0"/>
<path d="M26.5969 69.8399L27.6497 71.3295C27.6497 71.3295 34.0201 71.5775 37.5065 74.5039C38.1513 75.0455 37.7657 76.0975 36.9241 76.0975C36.713 76.0982 36.5086 76.0239 36.3473 75.8879C35.5241 75.1967 32.3793 73.0239 25.2657 72.9583C18.3345 72.8935 15.6761 75.0383 14.9409 75.8199C14.857 75.9082 14.756 75.9783 14.644 76.0261C14.532 76.0738 14.4114 76.0981 14.2897 76.0975H14.1529C13.2889 76.0975 12.9233 75.0063 13.6057 74.4767C16.5161 72.2135 23.0401 71.4919 23.0401 71.4919L24.1537 69.8119" fill="#353642"/>
<path d="M54.7896 61.5801C54.7896 61.5801 56.7408 63.4337 56.132 69.1801C56.0876 69.5904 55.9449 69.9839 55.716 70.3273L55.504 70.6473C55.1563 71.1679 54.632 71.5453 54.028 71.7097C52.7536 72.0577 50.4416 72.8641 49.0136 74.3921C48.4104 75.0393 48.8592 76.0937 49.744 76.0937C49.9089 76.0941 50.0715 76.0537 50.2171 75.9761C50.3626 75.8985 50.4868 75.7861 50.5784 75.6489C51.16 74.7737 52.9208 72.9153 57.168 72.9545C61.9584 72.9985 63.888 74.9033 64.5064 75.7241C64.5918 75.8385 64.7027 75.9315 64.8304 75.9957C64.958 76.0598 65.0988 76.0933 65.2416 76.0937C65.4206 76.0933 65.5956 76.0407 65.7452 75.9423C65.8948 75.844 66.0124 75.7041 66.0837 75.5398C66.1549 75.3756 66.1767 75.1941 66.1464 75.0177C66.116 74.8412 66.0348 74.6774 65.9128 74.5465C64.0448 72.5169 61.76 71.7601 60.4992 71.4793C59.8657 71.3427 59.3061 70.9744 58.9304 70.4465C58.6427 70.0393 58.479 69.5574 58.4592 69.0593C58.3888 67.2777 58.352 62.9529 59.5592 61.5817" fill="#353642"/>
<path d="M29.9384 60.6208C33.3696 58.9552 37.0936 57.8624 40.7552 56.8336C44.44 55.7984 48.1608 54.8952 51.8928 54.0464C53.384 53.708 54.8888 53.4064 56.3728 53.0248" stroke="black" stroke-width="0.286218" stroke-miterlimit="10"/>
<path d="M33.1575 47.8169H33.1598H33.1614" stroke="black" stroke-width="0.286218" stroke-miterlimit="10"/>
<path d="M32.7728 47.6001C32.5576 47.8129 31.7896 48.9497 31.5968 49.1537C30.5376 50.2888 29.4124 51.3606 28.2272 52.3633C27.9288 52.6113 27.6128 52.8673 27.28 53.1265C27.2144 53.1769 27.1464 53.2297 27.0784 53.2801C24.8224 54.9921 21.8784 56.6401 19.1584 55.5841C19.0864 55.5577 19.016 55.5273 18.9464 55.4961C14.7744 53.6281 11.8584 48.9497 11.604 44.4337C11.5952 44.2865 11.5904 44.1401 11.5888 43.9953C11.5664 42.7609 11.7488 41.5265 12.9328 40.8753" stroke="black" stroke-width="0.286218" stroke-miterlimit="10"/>
<path d="M9.98482 42.7481L10.0016 42.6169C10.2672 40.4873 7.24323 39.7689 6.52563 41.7921C4.83443 46.5665 2.94323 56.8769 13.4056 65.6129C20.1584 71.2537 31.0912 71.2929 37.8184 65.5945C38.7544 64.8017 39.7232 63.8905 40.3464 62.8225C41.9232 60.1217 39.5152 57.9561 36.7992 58.6209" stroke="black" stroke-width="0.286218" stroke-miterlimit="10"/>
<path d="M26.5969 69.8399L27.6497 71.3295C27.6497 71.3295 34.0201 71.5775 37.5065 74.5039C38.1513 75.0455 37.7657 76.0975 36.9241 76.0975C36.713 76.0982 36.5086 76.0239 36.3473 75.8879C35.5241 75.1967 32.3793 73.0239 25.2657 72.9583C18.3345 72.8935 15.6761 75.0383 14.9409 75.8199C14.857 75.9082 14.756 75.9783 14.644 76.0261C14.532 76.0738 14.4114 76.0981 14.2897 76.0975H14.1529C13.2889 76.0975 12.9233 75.0063 13.6057 74.4767C16.5161 72.2135 23.0401 71.4919 23.0401 71.4919L24.1537 69.8119" stroke="black" stroke-width="0.286218" stroke-miterlimit="10"/>
<path d="M23.0399 47.9282C25.7103 47.2082 26.8103 43.441 27.2535 40.9082" stroke="black" stroke-width="0.286218" stroke-miterlimit="10"/>
<path d="M20.5297 43.8807C21.2715 43.7836 21.9761 43.4979 22.5759 43.0507C23.1758 42.6037 23.651 42.0103 23.9561 41.3271C24.0199 41.1912 24.0509 41.0424 24.0468 40.8923C24.0426 40.7422 24.0033 40.5952 23.9321 40.4631C23.6409 39.9239 23.2065 39.2991 23.3097 38.6527C23.3841 38.1967 23.7593 37.8759 24.1897 37.7727C24.4078 37.7155 24.6376 37.7195 24.8537 37.784C24.9832 37.8207 25.1029 37.8857 25.2042 37.9743C25.3055 38.0631 25.3857 38.1732 25.4393 38.2968C25.5441 38.5424 25.4193 38.7855 25.2265 38.9455C25.0337 39.1055 24.8081 39.1624 24.5729 39.2264C24.5425 39.2352 24.4593 39.2527 24.3673 39.2703" stroke="black" stroke-width="0.286218" stroke-miterlimit="10"/>
<path d="M56.3695 53.0232C56.3695 53.0232 61.6335 51.9208 62.6223 50.3328C62.8077 50.0433 62.9232 49.7147 62.9599 49.3728" stroke="black" stroke-width="0.286218" stroke-miterlimit="10"/>
<path d="M30.4671 50.3112C39.6487 49.336 50.0119 49.48 50.0119 49.48H55.8279C56.2038 49.4806 56.5784 49.4365 56.9439 49.3488C57.8367 49.136 59.5967 48.6696 60.9935 48.0112C61.9407 47.564 63.0455 48.2808 62.9647 49.3272C62.9647 49.34 62.9647 49.3536 62.9599 49.3688C63.1445 49.3689 63.3262 49.4135 63.4899 49.4987C63.6536 49.5839 63.7943 49.7074 63.9002 49.8586C64.0059 50.0098 64.0738 50.1843 64.0978 50.3672C64.1218 50.5502 64.1014 50.7363 64.0383 50.9096C62.0767 56.3008 56.3695 56.132 56.3695 56.132C55.6399 56.1536 54.9119 56.1824 54.1815 56.22C47.7471 56.5328 41.3695 57.436 35.1263 59.0304C33.3919 59.4712 31.6751 60.1 29.9391 60.62C28.4591 61.0672 26.9639 61.4328 25.4271 61.5448C22.4543 61.76 19.4047 60.992 16.9543 59.2736C11.5871 55.5072 6.96792 47.6544 10.6863 41.28C11.9991 39.0304 14.9719 38.4144 17.0439 40C19.9663 42.236 22.3007 46.592 23.4983 49.1616" stroke="black" stroke-width="0.286218" stroke-miterlimit="10"/>
<path d="M63.9169 61.5801H51.1393" stroke="black" stroke-width="0.286218" stroke-miterlimit="10"/>
<path d="M48.5601 58.9991C48.562 58.3151 48.8345 57.6598 49.318 57.176C49.8016 56.6923 50.4569 56.4196 51.1409 56.4175H63.9201C64.6041 56.4194 65.2597 56.692 65.7434 57.1758C66.2272 57.6594 66.4997 58.315 66.5017 58.9991" stroke="black" stroke-width="0.286218" stroke-miterlimit="10"/>
<path d="M66.7528 59.9144C66.7535 60.1334 66.7109 60.3504 66.6273 60.5528C66.5437 60.7552 66.421 60.9391 66.2661 61.0939C66.1112 61.2487 65.9273 61.3713 65.7248 61.4548C65.5224 61.5382 65.3054 61.5808 65.0865 61.58H49.9664C49.588 61.5442 49.2387 61.3613 48.9936 61.0707C48.7486 60.78 48.6274 60.4048 48.6561 60.0257C48.6848 59.6466 48.8612 59.2939 49.1472 59.0435C49.4332 58.793 49.8061 58.6648 50.1856 58.6864H65.3057C65.5741 58.686 65.8386 58.7506 66.0765 58.8748C66.3145 58.9989 66.5189 59.1788 66.6721 59.3992C66.7256 59.5657 66.7528 59.7396 66.7528 59.9144Z" fill="#D7E8F0"/>
<path d="M66.7528 59.9143C66.7534 60.1333 66.7107 60.3503 66.6272 60.5527C66.5437 60.7551 66.4209 60.939 66.2661 61.0938C66.1112 61.2486 65.9272 61.3712 65.7248 61.4546C65.5223 61.5381 65.3053 61.5807 65.0864 61.5799H49.9664C49.7445 61.5848 49.5239 61.5453 49.3175 61.4638C49.1112 61.3822 48.9231 61.2602 48.7645 61.105C48.6059 60.9498 48.4798 60.7646 48.3938 60.56C48.3077 60.3555 48.2634 60.1359 48.2634 59.9139C48.2634 59.692 48.3077 59.4723 48.3938 59.2678C48.4798 59.0632 48.6059 58.8779 48.7645 58.7227C48.9231 58.5675 49.1112 58.4456 49.3175 58.3641C49.5239 58.2826 49.7445 58.2431 49.9664 58.2479H65.0864C65.4384 58.2478 65.7814 58.3591 66.0662 58.5659C66.3511 58.7727 66.5631 59.0643 66.672 59.3991C66.7255 59.5656 66.7527 59.7395 66.7528 59.9143Z" stroke="black" stroke-width="0.286218" stroke-miterlimit="10"/>
<path d="M27.2248 40.8489L27.1944 41.1057C27.1805 41.2223 27.1244 41.3297 27.0367 41.4077C26.949 41.4857 26.8358 41.5288 26.7184 41.5289H25.0568C24.9395 41.5288 24.8263 41.4857 24.7385 41.4077C24.6508 41.3297 24.5947 41.2223 24.5808 41.1057L24.3664 39.2657C24.4584 39.2481 24.5416 39.2305 24.572 39.2217C24.8072 39.1577 25.0352 39.1033 25.2256 38.9409C25.416 38.7785 25.5456 38.5409 25.4384 38.2921C25.3849 38.1686 25.3047 38.0585 25.2034 37.9698C25.1021 37.8811 24.9823 37.8161 24.8528 37.7793C24.6367 37.7149 24.407 37.7109 24.1888 37.7681L24.1384 37.3297C24.131 37.2628 24.1378 37.1949 24.1583 37.1308C24.1788 37.0665 24.2127 37.0074 24.2575 36.9572C24.3024 36.9069 24.3575 36.8666 24.4189 36.839C24.4804 36.8114 24.5471 36.7971 24.6144 36.7969H27.164C27.2314 36.7972 27.2979 36.8117 27.3593 36.8393C27.4207 36.8669 27.4755 36.9072 27.5203 36.9574C27.5651 37.0077 27.5989 37.0668 27.6194 37.1309C27.6399 37.1951 27.6467 37.2628 27.6392 37.3297L27.58 37.8297" stroke="#8BD346" stroke-width="0.286218" stroke-miterlimit="10"/>
<path d="M27.4462 38.9728L27.444 38.9889" stroke="black" stroke-width="0.286218" stroke-miterlimit="10"/>
<path d="M27.3215 40.0282V40.0225" stroke="black" stroke-width="0.286218" stroke-miterlimit="10"/>
<path d="M27.3455 40.0295C27.3384 40.0283 27.331 40.0283 27.3239 40.0295C27.3138 40.0283 27.3036 40.0283 27.2935 40.0295C27.1898 40.0299 27.0901 40.0691 27.014 40.1395C26.9379 40.2099 26.891 40.3064 26.8826 40.4098C26.8743 40.5131 26.9051 40.6158 26.9689 40.6975C27.0326 40.7793 27.1248 40.8341 27.2271 40.8511C27.2712 40.8599 27.3166 40.8599 27.3607 40.8511C27.5604 40.8192 27.7427 40.7184 27.8759 40.5663C28.0534 40.2743 28.1768 39.9526 28.2399 39.6167C28.241 39.6133 28.241 39.6096 28.2399 39.6063C28.2887 39.3587 28.3073 39.1063 28.2951 38.8543M28.2951 38.8543C28.2951 38.7463 28.2815 38.6391 28.2687 38.5343C28.2443 38.3589 28.1642 38.1961 28.0402 38.0698C27.9161 37.9435 27.7548 37.8603 27.5799 37.8327C27.5711 37.8327 27.5607 37.8327 27.5519 37.8279C27.2159 37.7863 26.7447 37.9135 26.6575 38.2927C26.5775 38.6351 26.9487 38.9287 27.2535 38.9551C27.2535 38.9551 27.3335 38.9655 27.4463 38.9727C27.6719 38.9879 28.0471 38.9855 28.2951 38.8543ZM28.2951 38.8543C28.3316 38.8354 28.3659 38.8126 28.3975 38.7863" stroke="black" stroke-width="0.286218" stroke-miterlimit="10"/>
<path d="M27.696 38.9913H27.6408H27.2144H27.0264C26.8992 38.9917 26.7772 39.0408 26.6851 39.1284C26.5929 39.216 26.5379 39.3356 26.5312 39.4625C26.5249 39.5859 26.5647 39.7071 26.6428 39.8028C26.7208 39.8986 26.8315 39.962 26.9536 39.9809C27.5056 40.0697 28.136 40.0881 28.244 39.5937" stroke="black" stroke-width="0.286218" stroke-miterlimit="10"/>
<path d="M54.7896 61.5801C54.7896 61.5801 56.7408 63.4337 56.132 69.1801C56.0876 69.5904 55.9449 69.9839 55.716 70.3273L55.504 70.6473C55.1563 71.1679 54.632 71.5453 54.028 71.7097C52.7536 72.0577 50.4416 72.8641 49.0136 74.3921C48.4104 75.0393 48.8592 76.0937 49.744 76.0937C49.9089 76.0941 50.0715 76.0537 50.2171 75.9761C50.3626 75.8985 50.4868 75.7861 50.5784 75.6489C51.16 74.7737 52.9208 72.9153 57.168 72.9545C61.9584 72.9985 63.888 74.9033 64.5064 75.7241C64.5918 75.8385 64.7027 75.9315 64.8304 75.9957C64.958 76.0598 65.0988 76.0933 65.2416 76.0937C65.4206 76.0933 65.5956 76.0407 65.7452 75.9423C65.8948 75.844 66.0124 75.7041 66.0837 75.5398C66.1549 75.3756 66.1767 75.1941 66.1464 75.0177C66.116 74.8412 66.0348 74.6774 65.9128 74.5465C64.0448 72.5169 61.76 71.7601 60.4992 71.4793C59.8657 71.3427 59.3061 70.9744 58.9304 70.4465C58.6427 70.0393 58.479 69.5574 58.4592 69.0593C58.3888 67.2777 58.352 62.9529 59.5592 61.5817" stroke="black" stroke-width="0.286218" stroke-miterlimit="10"/>
<path d="M50.7335 48.1487V48.2783C50.7335 49.1655 50.0183 49.3183 49.4007 49.3335L37.4479 49.6119C36.9239 49.6247 36.4831 49.1671 36.4719 48.5943V48.5703C36.4719 48.0103 36.8847 47.5423 37.4015 47.5303C37.4015 47.5303 44.0887 47.3415 49.2663 47.1991C49.3655 47.5127 49.6055 47.7543 49.9063 47.9439C50.1555 48.0929 50.4435 48.1642 50.7335 48.1487Z" stroke="black" stroke-width="0.286218" stroke-miterlimit="10"/>
<path d="M57.0871 35.5006C57.0878 35.6466 57.0543 35.7906 56.9895 35.9214L51.6439 46.8798C51.5812 47.007 51.4915 47.119 51.3809 47.2079C51.2703 47.2967 51.1417 47.3603 51.0039 47.3942C50.7832 47.4508 50.5495 47.427 50.3447 47.327C50.1806 47.2462 50.0424 47.1208 49.9461 46.9652C49.8498 46.8096 49.7991 46.6301 49.7999 46.447C49.8003 46.4021 49.8035 46.3572 49.8095 46.3126C49.8238 46.2134 49.8535 46.1171 49.8975 46.027L55.2423 35.067C55.3389 34.8704 55.4992 34.7122 55.6971 34.6182C55.8951 34.5244 56.119 34.5002 56.3324 34.5499C56.5459 34.5995 56.7361 34.72 56.8723 34.8916C57.0085 35.0633 57.0825 35.2759 57.0823 35.495L57.0871 35.5006Z" stroke="black" stroke-width="0.286218" stroke-miterlimit="10"/>
<path d="M13.8104 34.4192C13.804 34.3968 13.7952 34.3752 13.788 34.3536C13.7808 34.332 13.7704 34.3072 13.764 34.2832" stroke="black" stroke-width="0.286218" stroke-linecap="round" stroke-linejoin="round"/>
<path d="M13.8104 34.42L13.9744 34.2552L14.288 33.9376" stroke="black" stroke-width="0.286218" stroke-linecap="round" stroke-linejoin="round"/>
<path d="M15.656 34.8538C15.656 34.8538 15.8664 35.4818 16.6704 35.5242" stroke="black" stroke-width="0.286218" stroke-miterlimit="10"/>
<path d="M12.08 36.3248C11.36 36.6888 10.5432 35.9016 10.6 35.2528C10.6368 34.808 10.536 34.5008 10.2072 34.1784C10.1856 34.1568 10.1656 34.1344 10.1464 34.1128C10.0212 33.9766 9.93981 33.806 9.91269 33.6229C9.88557 33.44 9.91405 33.253 9.99437 33.0864C10.144 32.7384 10.4664 32.5344 10.2424 32.1592C10.144 31.9969 10.0723 31.82 10.0296 31.6352C9.98485 31.39 9.99325 31.1382 10.0541 30.8965C10.115 30.6549 10.2269 30.4291 10.3824 30.2343C10.712 29.8343 11.2488 29.9448 11.6896 29.8048C12.22 29.636 12.468 29.0656 13.0248 28.8904C13.3032 28.8032 13.5616 28.8424 13.84 28.9056C14.0744 28.9608 14.3096 29.0223 14.5376 29.0943C14.7656 29.1663 14.9736 29.228 15.2016 29.16C15.5 29.0728 15.7296 28.7984 16.0544 28.796C16.3792 28.7936 16.6288 28.9847 16.7744 29.2519C17.0048 29.6711 17.0064 30.2808 16.7896 30.6424C16.5656 31.0168 16.0968 31.1752 15.6936 31.256C15.1784 31.3616 14.6456 31.3896 14.124 31.436L13.8208 31.5104C13.7054 31.5462 13.609 31.6262 13.5526 31.733C13.4962 31.8398 13.4844 31.9646 13.52 32.08C13.7076 32.7256 13.9656 33.3485 14.2896 33.9376" stroke="black" stroke-width="0.286218" stroke-miterlimit="10"/>
<path d="M14.288 36.4166C14.288 36.4166 15.8752 37.579 16.78 36.9382C17.6848 36.2974 17.1736 34.419 17.1736 34.419" stroke="black" stroke-width="0.286218" stroke-linecap="round" stroke-linejoin="round"/>
<path d="M25.5031 35.9944C25.5031 35.9944 24.8287 35.5384 25.2575 35.0728C25.6863 34.6072 25.1151 33.9928 25.1151 33.9928" stroke="black" stroke-width="0.286218" stroke-miterlimit="10"/>
<path d="M26.1256 36.0735C26.1256 36.0735 26.572 35.7719 26.2856 35.4631C25.9992 35.1543 26.3808 34.7431 26.3808 34.7431" stroke="black" stroke-width="0.286218" stroke-miterlimit="10"/>
<g clip-path="url(#clip0_91_715)">
<path d="M48.0017 33.9826L44.5051 32.3522C44.4117 32.3089 44.3018 32.301 44.1972 32.339C44.0927 32.3771 44.0135 32.4538 43.9699 32.5471L43.6324 33.2725L44.5534 33.7019C44.591 33.6712 44.6373 33.6445 44.689 33.6257C44.9375 33.5353 45.212 33.6633 45.3024 33.9117C45.3215 33.9644 45.3309 34.018 45.3313 34.071L45.3312 34.0675L46.2183 34.4816C46.2562 34.4503 46.3032 34.423 46.3555 34.4039C46.6037 34.3136 46.8782 34.4416 46.9686 34.6898C47.0589 34.9381 46.9309 35.2126 46.6827 35.3029C46.4345 35.3933 46.1599 35.2653 46.0696 35.017C46.0473 34.9557 46.0384 34.8929 46.0411 34.8316L46.041 34.835L45.2117 34.4509L45.7927 36.0472C45.9697 36.0681 46.126 36.1837 46.19 36.3595C46.2805 36.6082 46.1522 36.8832 45.9036 36.9737C45.655 37.0642 45.3799 36.9359 45.2894 36.6873C45.2443 36.5632 45.2536 36.4328 45.3052 36.3217C45.3314 36.2654 45.3684 36.214 45.4145 36.1707L45.417 36.1684L44.8303 34.5565C44.6402 34.5472 44.4683 34.4282 44.4004 34.2416C44.3776 34.1789 44.3686 34.1148 44.372 34.0522L44.3719 34.0555L43.4658 33.6304L42.3472 36.0271C42.3041 36.1206 42.2967 36.2304 42.3347 36.335C42.3728 36.4395 42.4493 36.5187 42.5424 36.5627L46.039 38.1925C46.1323 38.2362 46.2423 38.244 46.3468 38.206C46.4513 38.1679 46.5303 38.0913 46.5739 37.9979L48.1968 34.5175C48.2405 34.4242 48.2485 34.314 48.2105 34.2096C48.1725 34.1053 48.0955 34.026 48.0022 33.9826L48.0017 33.9826Z" fill="#F1502F"/>
</g>
<g clip-path="url(#clip1_91_715)">
<path d="M41.7028 27.7073C41.6936 27.7106 41.6829 27.7145 41.6725 27.7183C41.2522 27.8712 40.859 28.0661 40.4964 28.2962L40.5315 28.2755C40.1838 28.4916 39.8933 28.7297 39.6384 28.9975L39.659 28.9776C39.4414 29.2008 39.2799 29.4523 39.1715 29.7256L39.1704 29.7283C39.0807 29.9454 39.0665 30.1956 39.1484 30.4352L39.1487 30.4362C39.2405 30.673 39.4118 30.8551 39.6206 30.9642L39.6197 30.9636C39.881 31.1047 40.1664 31.1935 40.462 31.2237L40.4765 31.2246C40.8153 31.2636 41.191 31.2596 41.5667 31.2068L41.5962 31.2017C41.9817 31.1515 42.4082 31.048 42.8284 30.8951L42.8605 30.8834L42.859 30.884L42.8893 30.8729C43.3095 30.72 43.7027 30.5251 44.0653 30.295L44.0303 30.3157C44.3779 30.0997 44.6684 29.8615 44.9233 29.5937L44.9027 29.6136C45.1204 29.3904 45.2819 29.1389 45.3902 28.8657L45.3913 28.8629C45.4811 28.6458 45.4952 28.3956 45.4134 28.1561L45.413 28.155C45.3214 27.9179 45.1497 27.7353 44.9405 27.6261L44.9413 27.6267C44.6801 27.4856 44.3947 27.3967 44.0991 27.3666L44.0846 27.3657C43.7458 27.3267 43.3701 27.3307 42.9944 27.3835L42.9649 27.3886C42.5793 27.4388 42.1529 27.5422 41.7327 27.6952C41.722 27.6991 41.7113 27.703 41.7005 27.7069L41.7021 27.7063L41.7028 27.7073ZM41.5785 29.8998C41.5556 29.9433 41.5264 29.9841 41.4917 30.0203L41.4893 30.0227C41.459 30.0538 41.4214 30.0861 41.3805 30.1152L41.3755 30.1185C41.3365 30.151 41.2881 30.1796 41.2338 30.1994C41.2317 30.2001 41.2296 30.2009 41.2275 30.2016L40.713 30.3889L40.816 30.9317L40.4383 31.0692L40.1382 29.2052L40.8621 28.9418C40.8668 28.94 40.8724 28.9377 40.8781 28.9356C40.9721 28.9014 41.0684 28.885 41.163 28.8849L41.1568 28.885C41.2441 28.8852 41.3256 28.9052 41.3985 28.9416L41.3989 28.9418C41.4657 28.9833 41.524 29.0419 41.5662 29.1141L41.5678 29.1168C41.5882 29.1525 41.6081 29.1949 41.6244 29.2398C41.643 29.291 41.6562 29.3426 41.6645 29.3946L41.6635 29.3894C41.6711 29.4395 41.6736 29.4847 41.6725 29.5295L41.6725 29.5238C41.6715 29.5677 41.6687 29.6098 41.6641 29.6502C41.6553 29.692 41.6442 29.7347 41.631 29.7784C41.6182 29.8212 41.6015 29.8607 41.5808 29.898L41.5802 29.8989L41.5785 29.8998ZM42.7234 29.6572L42.6028 28.8669C42.5989 28.8367 42.591 28.8035 42.579 28.7706C42.5765 28.7638 42.5738 28.7571 42.5711 28.7504L42.5714 28.7515C42.5608 28.7231 42.5405 28.7013 42.5156 28.6881C42.4919 28.679 42.4661 28.6748 42.4399 28.6761L42.4385 28.6763C42.4021 28.6777 42.3624 28.6856 42.3236 28.6998C42.3191 28.7014 42.3147 28.703 42.3103 28.7049L42.3109 28.7047L42.0169 28.8117L42.1792 29.8552L41.8078 29.9904L41.5262 28.1774L41.8977 28.0422L41.976 28.536L42.3101 28.4144C42.3159 28.4123 42.3223 28.4097 42.3291 28.4072C42.4155 28.3758 42.5034 28.3559 42.5911 28.3464L42.5834 28.3474C42.6537 28.3381 42.7214 28.3481 42.7823 28.3732L42.7819 28.373C42.8343 28.3903 42.8799 28.4255 42.9091 28.474L42.9099 28.4752C42.922 28.4971 42.9337 28.5229 42.9436 28.5501C42.9598 28.5945 42.97 28.6395 42.9742 28.6844L42.9736 28.6805L43.1043 29.5179L42.7234 29.6572ZM44.5786 28.3363C44.5853 28.3874 44.5883 28.4297 44.5891 28.4723L44.5885 28.4634C44.5895 28.51 44.5853 28.5523 44.5764 28.5934L44.5769 28.5909C44.5736 28.6379 44.5649 28.6804 44.5509 28.7209L44.5513 28.7196C44.5374 28.7608 44.5202 28.7989 44.4999 28.8356L44.4994 28.8367C44.4765 28.8802 44.4473 28.921 44.4126 28.9572L44.4102 28.9596C44.3798 28.9907 44.3422 29.023 44.3014 29.0521L44.2964 29.0554C44.2574 29.0879 44.2089 29.1165 44.1546 29.1362C44.1526 29.137 44.1505 29.1378 44.1484 29.1385L43.6339 29.3258L43.7305 29.8697L43.359 30.0049L43.059 28.141L43.7765 27.8798C43.7822 27.8774 43.7887 27.8751 43.7955 27.8726C43.8908 27.8379 43.9884 27.821 44.0843 27.8207L44.0779 27.8209C44.1627 27.8208 44.2419 27.8417 44.3117 27.8801L44.3124 27.8804C44.3831 27.9203 44.4445 27.9793 44.487 28.0531L44.4885 28.0555C44.5067 28.0876 44.5243 28.1255 44.5389 28.1657C44.5599 28.2234 44.5735 28.2817 44.5803 28.3402L44.5795 28.3348L44.5786 28.3363ZM43.7268 28.1891L43.4715 28.282L43.5988 29.0483L43.8222 28.9669L43.8358 28.962C43.9011 28.9382 43.9631 28.9089 44.0211 28.875L44.015 28.8785C44.0648 28.8497 44.1054 28.8133 44.1374 28.7712L44.1361 28.7726C44.16 28.7278 44.1764 28.6802 44.1846 28.6305L44.1849 28.628C44.1939 28.5692 44.1932 28.5047 44.1814 28.4407L44.1808 28.4374C44.1766 28.4008 44.1669 28.3602 44.1524 28.3203C44.1454 28.301 44.1374 28.2823 44.1285 28.2645L44.1297 28.2668C44.111 28.2269 44.0823 28.1951 44.0478 28.1727L44.0483 28.1732C44.0077 28.156 43.9635 28.1473 43.9184 28.1486L43.9161 28.1488C43.8617 28.1503 43.8028 28.1614 43.7448 28.1825C43.7388 28.1847 43.7328 28.1869 43.7272 28.1892L43.728 28.1889L43.7268 28.1891ZM40.8059 29.2522L40.5507 29.3451L40.6774 30.1116L40.9014 30.0301L40.9149 30.0251C40.9802 30.0014 41.0422 29.972 41.1003 29.9381L41.0941 29.9416C41.1439 29.9128 41.1845 29.8764 41.2165 29.8344L41.2152 29.8357C41.2391 29.7909 41.2555 29.7433 41.2637 29.6936L41.264 29.6911C41.273 29.6323 41.2723 29.5678 41.2605 29.5038L41.2599 29.5005C41.2558 29.4639 41.246 29.4234 41.2315 29.3834C41.2245 29.3641 41.2165 29.3454 41.2077 29.3277L41.2088 29.3299C41.1901 29.29 41.1614 29.2582 41.1269 29.2358L41.1274 29.2363C41.0869 29.2191 41.0426 29.2104 40.9975 29.2117L40.9953 29.2119C40.9408 29.2134 40.8819 29.2245 40.824 29.2456C40.818 29.2478 40.812 29.25 40.8063 29.2523L40.8071 29.252L40.8059 29.2522Z" fill="#8993BE"/>
</g>
<g clip-path="url(#clip2_91_715)">
<path d="M56.7007 21.0765L54.9843 24.0477L55.6033 24.341L56.9217 22.0584L57.5008 22.4695L56.6364 23.9666L57.2477 24.2474L58.0524 22.8536L58.7992 23.3947L58.6018 24.1554L58.0344 24.7165L57.5342 24.4842L57.1944 25.0727L58.1012 25.5092L59.1965 24.4987L59.5509 23.0882L56.7008 21.0768L56.7007 21.0765ZM53.4811 24.3551L56.2146 19.6205L60.8276 22.8581L60.2559 25.1171L58.5912 26.7308L53.4811 24.3551Z" fill="#2965F1"/>
</g>
<g clip-path="url(#clip3_91_715)">
<path d="M53.0953 23.1535L47.9609 25.5382L46.2771 23.8931L45.7021 21.6258L50.3345 18.3717L53.0953 23.1535ZM51.5834 22.84L49.8501 19.8378L48.1287 21.0444L49.3289 23.1232L48.5113 23.4947L47.9446 22.9303L47.7406 22.1605L48.1902 21.8421L47.8473 21.2481L46.9466 21.8677L47.3168 23.2932L47.3245 23.3064L47.3279 23.3045L48.3682 24.3299L50.3138 23.4331L49.0508 21.2456L49.6361 20.8398L50.9577 23.1288L51.5834 22.84Z" fill="#E34C26"/>
</g>
<g clip-path="url(#clip4_91_715)">
<path fill-rule="evenodd" clip-rule="evenodd" d="M50.4178 29.8255C50.1264 30.07 50.1248 30.506 50.3665 30.7745C50.5988 31.0325 50.8755 31.3867 51.0244 31.7401C51.1737 32.0945 51.1763 32.3961 50.9555 32.6205L51.1723 32.8789C51.4316 32.7004 51.7282 32.7554 52.0513 32.964C52.3735 33.1719 52.6743 33.506 52.888 33.7795C53.1104 34.0641 53.5401 34.1383 53.8315 33.8937L56.8173 31.3883C57.1087 31.1438 57.1103 30.7079 56.8686 30.4394C56.6363 30.1814 56.3596 29.8272 56.2107 29.4738C56.0615 29.1193 56.0584 28.818 56.2793 28.5937L56.0624 28.3352C55.8031 28.5138 55.5069 28.4585 55.1838 28.2499C54.8617 28.042 54.5608 27.7079 54.3471 27.4344C54.1247 27.1497 53.6951 27.0755 53.4037 27.3201L50.4178 29.8255ZM54.9207 30.3146C55.2403 30.6955 55.15 31.1648 54.6786 31.5604L53.8761 32.2338C53.8531 32.2531 53.8234 32.2624 53.7936 32.2598C53.7637 32.2572 53.7362 32.2428 53.7169 32.2199L52.0464 30.229C52.0271 30.2061 52.0177 30.1764 52.0204 30.1465C52.023 30.1167 52.0373 30.0891 52.0603 30.0698L52.8582 29.4003C53.2513 29.0704 53.688 29.0669 53.9623 29.3938C54.1549 29.6233 54.1537 29.9743 53.9628 30.1959L53.9728 30.2079C54.3016 29.9883 54.6791 30.0267 54.9207 30.3146ZM53.0056 29.7443L52.548 30.1282L53.0903 30.7746L53.4757 30.4512C53.7736 30.2012 53.8373 29.9433 53.6573 29.7289C53.4887 29.528 53.2543 29.5355 53.0056 29.7443ZM53.3055 31.031L53.9032 31.7433L54.3776 31.3452C54.6878 31.085 54.7477 30.8226 54.5514 30.5887C54.3551 30.3547 54.0855 30.3765 53.7599 30.6496L53.3055 31.031Z" fill="#712CF9"/>
</g>
<path d="M6.91833 76.0938H75.9999" stroke="black" stroke-width="0.286218" stroke-miterlimit="10"/>
<defs>
<clipPath id="clip0_91_715">
<rect width="6.66667" height="6.66667" fill="white" transform="translate(41 33.2801) rotate(-20)"/>
</clipPath>
<clipPath id="clip1_91_715">
<rect width="6.66667" height="6.66667" fill="white" transform="translate(38 27.2801) rotate(-20)"/>
</clipPath>
<clipPath id="clip2_91_715">
<rect width="6.66667" height="6.66667" fill="white" transform="translate(53 24.77) rotate(-60)"/>
</clipPath>
<clipPath id="clip3_91_715">
<rect width="6.66667" height="6.66667" fill="white" transform="translate(50.218 17.7778) rotate(60)"/>
</clipPath>
<clipPath id="clip4_91_715">
<rect width="6.66667" height="6.66667" fill="white" transform="translate(49 30.29) rotate(-40)"/>
</clipPath>
</defs>
</svg>
