<svg width="25" height="25" viewBox="0 0 25 25" fill="none" xmlns="http://www.w3.org/2000/svg">
<g clip-path="url(#clip0_712_1323)">
<path fill-rule="evenodd" clip-rule="evenodd" d="M4.03328 4.43649C6.01736 2.5469 9.24401 2.5469 11.2281 4.43649L13.0265 6.14926L14.8249 4.43649L13.0265 2.72377C10.0466 -0.114262 5.21482 -0.114262 2.23489 2.72377C-0.745044 5.5618 -0.745044 10.1634 2.23489 13.0015L4.03328 14.7142L5.83167 13.0015L4.03328 11.2887C2.0492 9.39911 2.0492 6.32609 4.03328 4.43649ZM22.765 11.9985L20.9666 10.2846L19.1682 11.9985L20.9666 13.7113C22.9494 15.5997 22.9494 18.6739 20.9666 20.5635C18.9825 22.4519 15.7546 22.4519 13.7718 20.5635L11.9734 18.8495L10.1737 20.5635L11.9734 22.2762C14.9533 25.1143 19.7851 25.1143 22.765 22.2762C25.7449 19.4382 25.7449 14.8366 22.765 11.9985ZM6.73085 5.29288L20.0674 17.9932L18.2678 19.7071L4.93246 7.00564L6.73085 5.29288Z" fill="white"/>
</g>
<defs>
<clipPath id="clip0_712_1323">
<rect width="25" height="25" fill="white"/>
</clipPath>
</defs>
</svg>
